<?xml version="1.0" standalone="no"?>
<!DOCTYPE svg PUBLIC "-//W3C//DTD SVG 1.1//EN" "http://www.w3.org/Graphics/SVG/1.1/DTD/svg11.dtd" >
<svg xmlns="http://www.w3.org/2000/svg" xmlns:xlink="http://www.w3.org/1999/xlink" version="1.1">
<metadata>
Created by FontForge 20170731 at Wed Jun 14 01:10:25 2017
 By Aleksey,,,
Copyright (c) 1986 Murasu Systems Sdn. Bhd. Malaysia. (c) 2000 Grow Momentum (S) Pte. Ltd. All rights reserved.
</metadata>
<defs>
<font id="InaiMathi" horiz-adv-x="452" >
  <font-face 
    font-family="InaiMathi"
    font-weight="400"
    font-stretch="normal"
    units-per-em="1000"
    panose-1="0 0 5 0 0 0 0 0 0 0"
    ascent="681"
    descent="-319"
    x-height="497"
    cap-height="662"
    bbox="-348 -276 2151 858"
    underline-thickness="20"
    underline-position="-173"
    unicode-range="U+000D-25CC"
  />
<missing-glyph horiz-adv-x="364" 
d="M33 0v666h265v-666h-265zM66 33h199v600h-199v-600z" />
    <glyph glyph-name="uni0BB60BCD0BB00BC0.shrii" unicode="&#xbb6;&#xbcd;&#xbb0;&#xbc0;" horiz-adv-x="1010" 
d="M971 93q0 -155 -142 -254q-126 -88 -293 -88h-62q-168 0 -296 101q-139 109 -139 272v124q0 119 70 195l37 -49q-45 -52 -45 -146v-124q0 -137 120 -229q107 -82 253 -82h62q142 0 249 69q124 80 124 211v93q0 25 -18.5 43t-43.5 19t-44 -18t-19 -44v-186h-62v435h-93
v-435h-62v373q0 24 -19 43t-43 19h-31q-24 0 -31 -31v-404h-218v497h62v-436h94v343q0 36 28.5 64.5t64.5 28.5h31q36 0 64 -28.5t29 -64.5v93h111q-48 51 -49 97q-1 56 33 103q37 52 91 52h94q36 0 64 -28.5t29 -64.5t-28 -64.5t-65 -28.5h-31q-79 0 -115 76
q-8 -27 -10 -45q0 -38 28 -67.5t66 -29.5h62v-62h-94v-187q0 25 19 44t44 19q51 1 87.5 -36.5t36.5 -88.5v-93zM909 656q0 24 -31 31h-94q0 -26 18.5 -44t44.5 -18h31q24 0 31 31z" />
    <glyph glyph-name="uni0BB80BCD0BB00BC0.srii" unicode="&#xbb8;&#xbcd;&#xbb0;&#xbc0;" horiz-adv-x="1010" 
d="M971 93q0 -155 -142 -254q-126 -88 -293 -88h-62q-168 0 -296 101q-139 109 -139 272v124q0 119 70 195l37 -49q-45 -52 -45 -146v-124q0 -137 120 -229q107 -82 253 -82h62q142 0 249 69q124 80 124 211v93q0 25 -18.5 43t-43.5 19t-44 -18t-19 -44v-186h-62v435h-93
v-435h-62v373q0 24 -19 43t-43 19h-31q-24 0 -31 -31v-404h-218v497h62v-436h94v343q0 36 28.5 64.5t64.5 28.5h31q36 0 64 -28.5t29 -64.5v93h111q-48 51 -49 97q-1 56 33 103q37 52 91 52h94q36 0 64 -28.5t29 -64.5t-28 -64.5t-65 -28.5h-31q-79 0 -115 76
q-8 -27 -10 -45q0 -38 28 -67.5t66 -29.5h62v-62h-94v-187q0 25 19 44t44 19q51 1 87.5 -36.5t36.5 -88.5v-93zM909 656q0 24 -31 31h-94q0 -26 18.5 -44t44.5 -18h31q24 0 31 31z" />
    <glyph glyph-name=".notdef" horiz-adv-x="364" 
d="M33 0v666h265v-666h-265zM66 33h199v600h-199v-600z" />
    <glyph glyph-name=".null" horiz-adv-x="0" 
 />
    <glyph glyph-name="uni000D" unicode="&#xd;" horiz-adv-x="300" 
 />
    <glyph glyph-name="NULL" horiz-adv-x="0" 
 />
    <glyph glyph-name="NULL" horiz-adv-x="0" 
 />
    <glyph glyph-name="space" unicode=" " horiz-adv-x="300" 
 />
    <glyph glyph-name="exclam" unicode="!" horiz-adv-x="248" 
d="M167 648v-268l-17 -217h-53l-17 215v270h87zM167 98v-98h-87v98h87z" />
    <glyph glyph-name="quotedbl" unicode="&#x22;" horiz-adv-x="321" 
d="M124 648v-243h-61v243h61zM258 648v-243h-62v243h62z" />
    <glyph glyph-name="numbersign" unicode="#" horiz-adv-x="593" 
d="M322 190h-107l-33 -190h-64l33 190h-119l11 57h119l20 106h-119l10 56h119l32 180h63l-32 -180h107l32 180h64l-33 -180h138l-9 -56h-137l-21 -106h138l-10 -57h-138l-35 -190h-64zM353 353h-107l-21 -106h108z" />
    <glyph glyph-name="dollar" unicode="$" 
d="M238 619v-47q31 0 60 -10t52 -29.5t38.5 -48.5t20.5 -66h-72q-3 17 -11.5 33t-21 28.5t-29 20t-37.5 7.5v-188q40 -12 73 -26.5t57 -34.5t37 -48.5t13 -67.5q0 -44 -16.5 -73t-42.5 -46t-58 -24t-63 -7v-48h-39v48q-33 0 -62.5 14t-53 39.5t-39 61t-18.5 79.5l72 -2
q8 -62 35.5 -94.5t65.5 -32.5v199q-38 12 -68 25.5t-50.5 33t-31.5 46.5t-11 66q0 30 12.5 56t34 46t51 31.5t63.5 11.5v47h39zM199 507q-41 0 -64 -22.5t-23 -56.5q0 -33 21.5 -59t65.5 -41v179zM238 57q45 0 75.5 24t30.5 60t-23 58.5t-83 44.5v-187z" />
    <glyph glyph-name="percent" unicode="%" horiz-adv-x="684" 
d="M139 0l347 565h55l-348 -565h-54zM171 290q-29 0 -54.5 11t-44 30.5t-29.5 45t-11 55.5t11 55.5t29.5 44.5t44 30t54.5 11q28 0 53.5 -11t44.5 -30t30 -44.5t11 -55.5t-11 -55.5t-30 -45t-44.5 -30.5t-53.5 -11zM171 345q16 0 30 7t24.5 18.5t17 27.5t6.5 34q0 36 -23 61
t-55 25t-55 -25t-23 -61t23 -61.5t55 -25.5zM514 -8q-29 0 -54 11t-43.5 30t-29.5 45t-11 55q0 30 11 56t29.5 45t43.5 30t54 11q28 0 53.5 -11t44 -30t29.5 -45t11 -56q0 -29 -11 -55t-29.5 -45t-44 -30t-53.5 -11zM514 47q16 0 30 6.5t25 18.5t17.5 27.5t6.5 33.5
q0 37 -23.5 62t-55.5 25t-55 -25t-23 -62q0 -36 23 -61t55 -25z" />
    <glyph glyph-name="ampersand" unicode="&#x26;" horiz-adv-x="543" 
d="M490 287q-3 -32 -6.5 -56.5t-9.5 -44.5t-14.5 -37t-21.5 -34l103 -115h-97l-46 60q-14 -14 -30 -28t-36 -24.5t-47 -17t-63 -6.5q-48 0 -83 14.5t-58 37.5t-34 52.5t-11 58.5q0 30 12 56.5t32 49t47.5 41.5t59.5 34l-38 46q-17 25 -27.5 48t-12.5 50q0 28 11 52.5
t29.5 42.5t43.5 28.5t54 10.5q39 0 66 -10.5t44 -28.5t24.5 -42.5t7.5 -52.5q0 -22 -5.5 -40.5t-18 -36.5t-34 -37.5t-53.5 -41.5l120 -142q10 21 16.5 52t6.5 61h69v0zM247 361q28 20 43 38t22 33t8 27.5t1 21.5q0 15 -2.5 27.5t-10.5 21.5t-22.5 14t-38.5 5
q-27 0 -49 -18.5t-22 -49.5q0 -20 8 -41t31 -45l32 -34v0zM221 287q-18 -12 -37 -26.5t-34 -31.5t-25 -36t-10 -39q0 -23 9 -42t24 -33t33.5 -22t38.5 -8q27 0 46 4t34 12t28 21t28 31l-135 170v0z" />
    <glyph glyph-name="quotesingle" unicode="'" horiz-adv-x="169" 
d="M116 648v-243h-62v243h62z" />
    <glyph glyph-name="parenleft" unicode="(" horiz-adv-x="265" 
d="M235 743q-26 -46 -45.5 -100t-32 -110t-19 -112t-6.5 -107t6.5 -107t19 -112.5t32 -110t45.5 -98.5h-47q-33 41 -57.5 93t-41 108.5t-24.5 115t-8 111.5q0 52 8 110t24.5 115t41 109.5t57.5 94.5h47z" />
    <glyph glyph-name="parenright" unicode=")" horiz-adv-x="265" 
d="M77 743q33 -42 58 -94.5t41.5 -109.5t24.5 -115t8 -110q0 -53 -8.5 -111.5t-25 -115t-41 -108.5t-57.5 -93h-46q26 45 45 98.5t32 110t19 112.5t6 107t-6 107t-19 112t-32 110t-45 100h46z" />
    <glyph glyph-name="asterisk" unicode="*" horiz-adv-x="382" 
d="M227 606l-13 -125l114 53l25 -71l-128 -27l91 -91l-59 -44l-67 108l-68 -108l-58 44l91 91l-127 29l23 69l115 -53l-13 125h74z" />
    <glyph glyph-name="plus" unicode="+" horiz-adv-x="484" 
d="M32 344h187v179h55v-179h186v-56h-186v-179h-55v179h-187v56z" />
    <glyph glyph-name="comma" unicode="," horiz-adv-x="248" 
d="M165 98v-116q0 -46 -23 -76.5t-64 -39.5v43q26 9 34.5 26.5t8.5 46.5v18h-43v98h87z" />
    <glyph glyph-name="hyphen" unicode="-" horiz-adv-x="295" 
d="M254 286v-69h-214v69h214z" />
    <glyph glyph-name="period" unicode="." horiz-adv-x="248" 
d="M165 98v-98h-87v98h87z" />
    <glyph glyph-name="slash" unicode="/" horiz-adv-x="222" 
d="M36 -16h-49l197 622h47z" />
    <glyph glyph-name="zero" unicode="0" 
d="M225 573q197 0 197 -286q0 -146 -49.5 -220.5t-147.5 -74.5t-147.5 74.5t-49.5 220.5q0 132 49.5 209t147.5 77zM225 508q-61 0 -88.5 -52t-27.5 -169q0 -118 27.5 -174t88.5 -56t88.5 56t27.5 174q0 117 -27.5 169t-88.5 52z" />
    <glyph glyph-name="one" unicode="1" 
d="M222 409h-131v56h41q22 0 41.5 8t33.5 22t22.5 34t8.5 44h57v-573h-73v409z" />
    <glyph glyph-name="two" unicode="2" 
d="M37 390q9 82 60.5 132.5t140.5 50.5q44 0 78 -14.5t57 -39t35 -55.5t12 -64q0 -29 -7.5 -52t-21 -41t-31.5 -33.5t-39 -29.5q-39 -28 -80.5 -54t-79.5 -59q-14 -12 -23 -25.5t-15 -33.5h281v-72h-361v54q0 34 23 66.5t57.5 63t76 59t78.5 55.5q28 20 44.5 43t16.5 59
q0 51 -28 79.5t-73 28.5q-55 0 -87 -31.5t-32 -86.5h-82z" />
    <glyph glyph-name="three" unicode="3" 
d="M37 398q10 82 52 128t133 46q79 0 125.5 -40.5t46.5 -107.5q0 -48 -19.5 -76.5t-61.5 -44.5q20 -6 39 -17t34 -28.5t24 -41.5t9 -57q0 -41 -16 -72t-43 -52t-62.5 -32t-75.5 -11q-82 0 -135.5 47.5t-66.5 140.5h81q12 -68 41 -95.5t80 -27.5q23 0 44 7t37 20.5t25.5 32.5
t9.5 42q0 46 -31 78t-85 32h-46v65h46q25 0 42.5 7.5t28.5 19.5t15.5 27t4.5 30q0 42 -25.5 66t-67.5 24q-26 0 -44 -9t-30 -24t-19 -35t-10 -42h-80z" />
    <glyph glyph-name="four" unicode="4" 
d="M273 0v138h-245v82l245 345h73v-363h81v-64h-81v-138h-73zM94 202h179v255z" />
    <glyph glyph-name="five" unicode="5" 
d="M38 261l38 304h310v-65h-253l-17 -157l3 -1q22 19 51.5 27t58.5 8q41 0 76 -15t60.5 -41t40 -61.5t14.5 -75.5q0 -37 -13 -71.5t-38.5 -61.5t-64.5 -43t-91 -16q-73 0 -126 41t-67 120h81q11 -45 41.5 -70.5t71.5 -25.5q28 0 51 10t39.5 27t25.5 41t9 51q0 28 -11 51
t-29.5 39.5t-42.5 26t-49 9.5q-28 0 -54 -12t-44 -39h-71z" />
    <glyph glyph-name="six" unicode="6" 
d="M338 424q0 15 -8 30t-21 27t-31.5 19.5t-39.5 7.5q-37 0 -60 -17t-36.5 -44.5t-19 -61.5t-6.5 -67h3q52 50 113 50q39 0 73.5 -14t59.5 -39t39.5 -60t14.5 -76q0 -38 -13 -72t-37 -59.5t-58.5 -40.5t-77.5 -15q-46 0 -83.5 18t-63.5 51.5t-40.5 81.5t-14.5 109
q0 87 14.5 148.5t41.5 99.5t65 55.5t85 17.5q37 0 68.5 -12.5t54 -33.5t36 -48t15.5 -55h-73zM232 57q54 0 80 34.5t26 85.5q0 25 -6.5 47.5t-20 40t-33 28t-45.5 10.5q-32 0 -54 -12t-35.5 -30.5t-19 -40.5t-5.5 -43q0 -54 31 -87t82 -33z" />
    <glyph glyph-name="seven" unicode="7" 
d="M113 0q19 143 77.5 265.5t155.5 233.5v1h-317v65h393v-65q-48 -58 -87.5 -121.5t-69 -128t-48 -128.5t-24.5 -122h-80z" />
    <glyph glyph-name="eight" unicode="8" 
d="M224 572q42 0 75.5 -11t57.5 -30t36.5 -44.5t12.5 -54.5q0 -49 -22.5 -80.5t-58.5 -48.5q25 -8 43 -22.5t29.5 -34t16.5 -42t5 -44.5q0 -33 -13.5 -63.5t-39 -54t-61.5 -37.5t-81 -14t-81 14t-61.5 37t-39 53t-13.5 63q0 22 5 44.5t16.5 42.5t29.5 35t44 23
q-37 16 -59 48t-22 81q0 29 12 54.5t35.5 44.5t57 30t76.5 11zM225 508q-51 0 -76 -26t-25 -58q0 -35 25.5 -62.5t75.5 -27.5q24 0 43 7.5t31.5 20t19 28.5t6.5 34q0 16 -6 31t-18 27t-31 19t-45 7zM224 269q-28 0 -49.5 -9.5t-35.5 -25t-21.5 -35.5t-7.5 -40t9 -38.5
t24.5 -32.5t36.5 -22.5t45 -8.5q29 0 50 8.5t35 23t21 32.5t7 38t-7.5 40t-22 35.5t-36 25t-48.5 9.5z" />
    <glyph glyph-name="nine" unicode="9" 
d="M105 144q12 -46 44.5 -66.5t66.5 -20.5q36 0 60.5 16t39.5 43t21.5 61.5t6.5 71.5q-28 -37 -62 -50t-66 -13q-34 0 -68 13.5t-61.5 38t-45 58t-17.5 74.5t12.5 78t36.5 64.5t60 44t83 16.5q97 0 151.5 -68t54.5 -195q0 -54 -8.5 -110.5t-31.5 -102.5t-63 -75.5
t-103 -29.5q-33 0 -65 8.5t-57 26.5t-42 47t-20 70h73zM216 251q24 0 45.5 10t37 27.5t25 41t9.5 50.5t-9.5 50t-25 40.5t-37 27.5t-45.5 10q-23 0 -43 -10t-35 -27.5t-24 -40.5t-9 -50t9 -50.5t24 -41t35 -27.5t43 -10z" />
    <glyph glyph-name="colon" unicode=":" horiz-adv-x="248" 
d="M156 466v-97h-87v97h87zM156 98v-98h-87v98h87z" />
    <glyph glyph-name="semicolon" unicode=";" horiz-adv-x="248" 
d="M156 466v-97h-87v97h87zM156 98v-116q0 -46 -23 -76.5t-64 -39.5v43q27 9 35 26.5t8 46.5v18h-43v98h87z" />
    <glyph glyph-name="less" unicode="&#x3c;" horiz-adv-x="484" 
d="M44 260l396 172v-64l-326 -131v-2l326 -132v-63l-396 171v49z" />
    <glyph glyph-name="equal" unicode="=" horiz-adv-x="484" 
d="M457 416v-56h-428v56h428zM457 259v-55h-428v55h428z" />
    <glyph glyph-name="greater" unicode="&#x3e;" horiz-adv-x="484" 
d="M49 40v63l325 132v2l-325 131v64l395 -172v-49z" />
    <glyph glyph-name="question" unicode="?" horiz-adv-x="450" 
d="M180 165v47q0 37 20.5 65t45 53.5t45.5 53t21 62.5q0 45 -22.5 70t-69.5 25q-48 0 -76 -37t-28 -95h-72q0 43 12.5 79.5t36 62.5t56 40.5t71.5 14.5q46 0 79 -14.5t54 -38t30.5 -52.5t9.5 -57q0 -32 -10.5 -55.5t-26.5 -42.5t-34.5 -36t-34.5 -35t-26.5 -40t-10.5 -51
v-19h-70zM255 89v-89h-80v89h80z" />
    <glyph glyph-name="at" unicode="@" horiz-adv-x="821" 
d="M591 457l-70 -244q-14 -48 14 -48q10 0 29.5 6t39 25t34 54t14.5 94q0 48 -17.5 86.5t-47 66t-69 42.5t-83.5 15q-58 0 -107 -20t-84.5 -56t-55.5 -86t-20 -110q0 -58 22.5 -103.5t59.5 -77t83.5 -48.5t93.5 -17q139 0 201 94h55q-15 -39 -43.5 -67t-65.5 -45.5
t-79.5 -25.5t-85.5 -8q-57 0 -110 21.5t-94.5 60.5t-66.5 93.5t-25 119.5q0 79 25.5 140.5t69.5 102.5t102.5 62.5t125.5 21.5q54 0 103 -18t86.5 -51t59.5 -79.5t22 -104.5q0 -59 -16.5 -104t-43.5 -75.5t-63 -46t-76 -15.5q-23 0 -34 11t-19 40q-25 -27 -45 -39t-52 -12
q-29 0 -52 11.5t-38.5 30t-24 42t-8.5 47.5q0 39 14 79.5t39 73.5t60 54t77 21q21 0 37.5 -8.5t28 -19.5t18 -22t9.5 -15l18 51h55zM490 306q7 24 4.5 43t-12 32.5t-24 21t-32.5 7.5q-25 0 -47 -15t-39 -38.5t-27 -52t-10 -54.5q0 -31 17 -54t51 -23q35 0 61.5 18.5
t40.5 63.5z" />
    <glyph glyph-name="A" unicode="A" horiz-adv-x="543" 
d="M319 662l214 -662h-88l-61 209h-225l-61 -209h-88l213 662h96zM180 280h183l-91 311h-1z" />
    <glyph glyph-name="B" unicode="B" horiz-adv-x="536" 
d="M60 662h243q31 0 60 -14t51 -36.5t35 -51t13 -57.5q0 -24 -4.5 -47t-14.5 -43.5t-24.5 -36t-34.5 -24.5q28 -7 48 -24t33.5 -39.5t20 -49t6.5 -52.5q0 -32 -13.5 -65.5t-36.5 -60.5t-53.5 -44t-64.5 -17h-264v662zM139 382h148q19 0 37 10.5t31.5 26.5t21.5 35.5t8 37.5
q0 15 -6 32.5t-18.5 32t-31 24.5t-42.5 10h-148v-209zM139 71h156q21 0 42 10t37.5 26.5t27 38t10.5 44.5q0 21 -8 43.5t-23 40.5t-36.5 29.5t-48.5 11.5h-157v-244z" />
    <glyph glyph-name="C" unicode="C" horiz-adv-x="579" 
d="M118 339q0 -63 15 -114t40 -86.5t57.5 -54.5t66.5 -19q37 0 67 13t52 34.5t35 50t17 58.5h79q-6 -48 -25 -90t-50.5 -73t-75.5 -48.5t-99 -17.5q-61 0 -110 26t-83.5 72.5t-53 110t-18.5 138.5q0 58 18 117t52 106.5t83 77.5t112 30q54 0 98 -15t76 -41.5t51.5 -62.5
t24.5 -78h-79q-16 63 -59.5 93.5t-111.5 30.5q-41 0 -74 -23t-56 -59.5t-36 -83t-13 -92.5z" />
    <glyph glyph-name="D" unicode="D" horiz-adv-x="588" 
d="M60 662h240q59 0 104.5 -29t76 -75.5t46.5 -105.5t16 -120q0 -62 -16 -122t-46 -106.5t-74 -75t-101 -28.5h-246v662zM139 71h144q43 0 76.5 21t56.5 56.5t34.5 82.5t11.5 100q0 58 -11.5 105.5t-34 82t-56 53.5t-76.5 19h-145v-520z" />
    <glyph glyph-name="E" unicode="E" horiz-adv-x="517" 
d="M460 662v-71h-321v-214h302v-71h-302v-235h335v-71h-414v662h400z" />
    <glyph glyph-name="F" unicode="F" horiz-adv-x="476" 
d="M452 662v-71h-312v-214h271v-71h-271v-306h-80v662h392z" />
    <glyph glyph-name="G" unicode="G" horiz-adv-x="625" 
d="M554 0h-52l-22 78q-10 -19 -27.5 -36t-41 -30t-52 -20.5t-58.5 -7.5q-62 0 -112 29t-85 76.5t-53.5 109.5t-18.5 128q0 80 22 145t58.5 111t85.5 71t103 25q55 0 98 -16t74 -43t51 -62.5t30 -75.5h-74q-18 57 -60 90.5t-119 33.5q-48 0 -82.5 -24.5t-57 -64.5t-33 -89.5
t-10.5 -100.5q0 -59 13 -108.5t37 -85.5t57.5 -56t74.5 -20q33 0 65.5 21.5t58 54.5t41 73t15.5 77h-179v71h253v-354z" />
    <glyph glyph-name="H" unicode="H" horiz-adv-x="575" 
d="M140 662v-276h295v276h80v-662h-80v315h-295v-315h-80v662h80z" />
    <glyph glyph-name="I" unicode="I" horiz-adv-x="209" 
d="M144 662v-662h-79v662h79z" />
    <glyph glyph-name="J" unicode="J" horiz-adv-x="401" 
d="M342 662v-532q0 -32 -14 -58.5t-37 -46t-53.5 -30.5t-63.5 -11q-32 0 -61.5 9t-52.5 27t-36.5 44t-13.5 60v71h79v-58q0 -20 7.5 -35t19.5 -25t27 -15t31 -5q14 0 29.5 4.5t29 14.5t22 25.5t8.5 37.5v523h79z" />
    <glyph glyph-name="K" unicode="K" horiz-adv-x="539" 
d="M139 662v-317h2l277 317h106l-237 -271l244 -391h-100l-200 334l-92 -106v-228h-79v662h79z" />
    <glyph glyph-name="L" unicode="L" horiz-adv-x="445" 
d="M139 662v-591h287v-71h-366v662h79z" />
    <glyph glyph-name="M" unicode="M" horiz-adv-x="665" 
d="M182 662l150 -553h2l159 553h112v-662h-79v537h-3l-155 -537h-70l-157 537h-2v-537h-79v662h122z" />
    <glyph glyph-name="N" unicode="N" horiz-adv-x="574" 
d="M157 662l275 -530h3v530h79v-662h-96l-276 532h-3v-532h-79v662h97z" />
    <glyph glyph-name="O" unicode="O" horiz-adv-x="612" 
d="M305 -16q-63 0 -113.5 29t-86 78t-54.5 112t-19 131t19.5 130.5t55 110t86 76t113.5 28.5t113.5 -28.5t86 -76t55 -110t19.5 -130.5t-19.5 -131t-55 -112t-86.5 -78t-114 -29zM306 57q45 0 80 20.5t59 57t36.5 87.5t12.5 112t-12.5 111t-36.5 86t-59 55.5t-80 19.5
q-44 0 -79 -19.5t-59 -55.5t-37 -86t-13 -111t12.5 -112t36.5 -87.5t59 -57t80 -20.5z" />
    <glyph glyph-name="P" unicode="P" horiz-adv-x="507" 
d="M60 662h240q39 0 71.5 -18t55 -45.5t35 -60.5t12.5 -64q0 -33 -12.5 -66.5t-35 -61t-55 -45t-71.5 -17.5h-161v-284h-79v662zM139 355h153q18 0 35 10.5t31 27.5t22.5 38.5t8.5 42.5t-8 42t-21 37.5t-31 27t-37 10.5h-153v-236z" />
    <glyph glyph-name="Q" unicode="Q" horiz-adv-x="622" 
d="M305 -16q-63 0 -113.5 29t-86 78t-54.5 112t-19 131t19.5 130.5t55 110t86 76t113.5 28.5t113.5 -28.5t86 -76t55 -110t19.5 -130.5q0 -72 -21.5 -137t-60.5 -115l89 -88l-50 -51l-89 89q-62 -48 -143 -48zM306 57q50 0 90 26l-56 57l51 50l54 -55q49 75 49 199
q0 61 -12.5 111t-36.5 86t-59 55.5t-80 19.5q-44 0 -79 -19.5t-59 -55.5t-37 -86t-13 -111t12.5 -112t36.5 -87.5t59 -57t80 -20.5z" />
    <glyph glyph-name="R" unicode="R" horiz-adv-x="546" 
d="M60 662h281q34 0 62 -17t47.5 -42.5t30.5 -56t11 -58.5q0 -27 -7 -55t-19 -51.5t-29 -40t-37 -20.5q48 -11 64 -44.5t16 -75.5v-125q0 -27 8 -46t20 -30h-90q-6 6 -9.5 15t-5.5 19.5t-2.5 21t-0.5 18.5v128q0 15 -5 29.5t-15.5 26t-26.5 19t-39 7.5h-175v-284h-79v662z
M139 356h173q20 0 37.5 11t30 28t20 39t7.5 43q0 20 -8 40.5t-21.5 37t-30.5 26.5t-35 10h-173v-235z" />
    <glyph glyph-name="S" unicode="S" horiz-adv-x="530" 
d="M120 214q0 -30 10 -59t29 -51t45.5 -35.5t58.5 -13.5q27 0 52 7t43.5 21.5t29.5 35.5t11 50q0 32 -15.5 55.5t-39 40t-51.5 26.5t-53 16q-35 8 -68 24.5t-58.5 41t-41.5 58t-16 74.5q0 37 17 69t45 55.5t64 36.5t74 13q61 0 100.5 -21.5t62.5 -53t32.5 -67.5t9.5 -65h-79
q0 29 -10.5 54t-28 43t-40 28.5t-47.5 10.5q-23 0 -44.5 -7t-38.5 -20.5t-27.5 -32.5t-10.5 -42q0 -30 13.5 -52t34.5 -38t46.5 -25.5t48.5 -15.5q39 -9 75 -26t64 -42.5t44.5 -59.5t16.5 -77q0 -45 -16 -79.5t-45 -58t-68.5 -36t-85.5 -12.5q-43 0 -83.5 18t-71.5 49
t-49.5 73t-18.5 90h80z" />
    <glyph glyph-name="T" unicode="T" horiz-adv-x="476" 
d="M466 662v-71h-188v-591h-80v591h-188v71h456z" />
    <glyph glyph-name="U" unicode="U" horiz-adv-x="558" 
d="M136 662v-478q0 -32 12.5 -56t32 -40t44.5 -23.5t49 -7.5q27 0 53.5 8t47.5 24t34 39.5t13 55.5v478h79v-466q0 -52 -20 -91.5t-52.5 -66.5t-73 -40.5t-81.5 -13.5q-38 0 -77 13.5t-70 40.5t-50.5 66.5t-19.5 91.5v466h79z" />
    <glyph glyph-name="V" unicode="V" horiz-adv-x="510" 
d="M96 662l159 -529h1l158 529h88l-202 -662h-89l-203 662h88z" />
    <glyph glyph-name="W" unicode="W" horiz-adv-x="733" 
d="M97 662l109 -529l119 529h83l118 -529l109 529h89l-147 -662h-87l-124 526l-125 -526h-85l-148 662h89z" />
    <glyph glyph-name="X" unicode="X" horiz-adv-x="498" 
d="M113 662l135 -262l136 262h89l-182 -325l199 -337h-99l-143 274l-142 -274h-98l198 337l-182 325h89z" />
    <glyph glyph-name="Y" unicode="Y" horiz-adv-x="514" 
d="M93 662l159 -313h2l159 313h93l-214 -388v-274h-79v274l-213 388h93z" />
    <glyph glyph-name="Z" unicode="Z" horiz-adv-x="497" 
d="M467 662v-81l-355 -508v-2h355v-71h-447v73l362 517v1h-338v71h423z" />
    <glyph glyph-name="bracketleft" unicode="[" horiz-adv-x="219" 
d="M202 719v-57h-81v-720h81v-56h-153v833h153z" />
    <glyph glyph-name="backslash" unicode="\" horiz-adv-x="258" 
d="M53 680l197 -696h-49l-196 696h48z" />
    <glyph glyph-name="bracketright" unicode="]" horiz-adv-x="219" 
d="M172 -114h-154v56h81v720h-81v57h154v-833z" />
    <glyph glyph-name="asciicircum" unicode="^" horiz-adv-x="487" 
d="M287 589l196 -220h-73l-166 165l-168 -165h-72l196 220h87z" />
    <glyph glyph-name="underscore" unicode="_" horiz-adv-x="408" 
d="M408 -115v-57h-408v57h408z" />
    <glyph glyph-name="grave" unicode="`" horiz-adv-x="161" 
d="M5 629l184 -158l-40 -47l-185 158z" />
    <glyph glyph-name="a" unicode="a" horiz-adv-x="492" 
d="M50 350q0 36 16.5 65t43 49.5t59 31t65.5 10.5q35 0 68.5 -10t59.5 -30t42 -49t16 -67v-256q0 -12 9 -23.5t21 -11.5q7 0 13 3l14 7v-68q-13 -4 -25 -7t-32 -3q-64 0 -64 81q-34 -42 -82.5 -61.5t-96.5 -19.5q-29 0 -55 10.5t-46.5 29.5t-32.5 43.5t-12 53.5
q0 46 23.5 75.5t59 49t76.5 31t76.5 21t59 19.5t23.5 26q0 19 -7 37t-21 31.5t-35.5 21.5t-51.5 8q-22 0 -42.5 -7.5t-36 -20.5t-25 -31t-9.5 -39h-71zM349 271q-27 -12 -68.5 -22.5t-80.5 -25t-67 -36.5t-28 -57q0 -38 28 -59t66 -21q20 0 43 6t44 18t37.5 30t25.5 42v125z
" />
    <glyph glyph-name="b" unicode="b" horiz-adv-x="492" 
d="M258 -9q-44 0 -79.5 20t-55.5 51v-62h-69v681h69v-251q20 35 55.5 56t79.5 21q52 0 90 -22t63.5 -58t38 -83t12.5 -97t-12.5 -96t-38 -81.5t-63.5 -57t-90 -21.5zM258 51q32 0 56.5 15.5t41.5 42.5t26 62.5t9 75.5t-9 76t-26 63.5t-41.5 44t-56.5 16.5t-56.5 -16.5
t-41.5 -44t-26 -63.5t-9 -76t9 -75.5t26 -62.5t41.5 -42.5t56.5 -15.5z" />
    <glyph glyph-name="c" unicode="c" horiz-adv-x="472" 
d="M437 172q-8 -38 -24 -71t-40.5 -57.5t-57.5 -38.5t-75 -14q-52 0 -90 21.5t-63.5 57t-38 81.5t-12.5 96t12.5 97t38 83t63.5 58t90 22q40 0 72.5 -14t57 -38t40.5 -55.5t24 -67.5h-72q-14 50 -45 82.5t-77 32.5q-32 0 -56.5 -16.5t-41.5 -44t-26 -63.5t-9 -76t9 -75.5
t26 -62.5t41.5 -42.5t56.5 -15.5q48 0 79.5 34t44.5 87h73z" />
    <glyph glyph-name="d" unicode="d" horiz-adv-x="501" 
d="M248 -9q-52 0 -90 21.5t-63.5 57t-38 81.5t-12.5 96t12.5 97t38 83t63.5 58t90 22q44 0 79.5 -21t55.5 -56v251h69v-681h-69v62q-20 -31 -55.5 -51t-79.5 -20zM248 51q32 0 56.5 15.5t41.5 42.5t26 62.5t9 75.5t-9 76t-26 63.5t-41.5 44t-56.5 16.5t-56.5 -16.5
t-41.5 -44t-26 -63.5t-9 -76t9 -75.5t26 -62.5t41.5 -42.5t56.5 -15.5z" />
    <glyph glyph-name="e" unicode="e" horiz-adv-x="491" 
d="M452 155q-10 -35 -28 -65t-43.5 -52t-58.5 -34.5t-72 -12.5q-52 0 -92 21.5t-67 57t-41 81.5t-14 96t14 97t41 83t67 58t92 22t92 -22t67 -58t41 -83t14 -97v-13h-357q2 -38 13 -71.5t29.5 -58t44 -39t56.5 -14.5q45 0 79 28.5t51 75.5h72zM388 294q-6 32 -18 60
t-29.5 48.5t-40.5 32.5t-50 12t-50 -12t-41 -32.5t-30.5 -48.5t-17.5 -60h277z" />
    <glyph glyph-name="f" unicode="f" horiz-adv-x="263" 
d="M90 497v108q0 42 22.5 68t70.5 26q15 0 33 -7t29 -12v-65q-6 6 -19 10t-21 4q-21 0 -32.5 -14.5t-11.5 -31.5v-86h79v-61h-79v-436h-71v436h-79v61h79z" />
    <glyph glyph-name="g" unicode="g" horiz-adv-x="499" 
d="M234 -9q-52 0 -90 21.5t-63.5 57t-38 81.5t-12.5 96t12.5 97t38 83t63.5 58t90 22q44 0 79 -18.5t58 -53.5v62h71v-497q0 -49 -17 -86.5t-45.5 -63t-64.5 -38.5t-73 -13q-34 0 -65 8.5t-56.5 26.5t-44.5 45.5t-28 65.5h77q15 -48 43.5 -66.5t72.5 -18.5q25 0 48.5 9.5
t41.5 26.5t29 41t11 53v72q-22 -32 -57.5 -51.5t-79.5 -19.5zM234 51q32 0 57 15.5t42.5 42.5t26.5 62.5t9 75.5t-9 76t-26.5 63.5t-42.5 44t-57 16.5t-56.5 -16.5t-41.5 -44t-26 -63.5t-9 -76t9 -75.5t26 -62.5t41.5 -42.5t56.5 -15.5z" />
    <glyph glyph-name="h" unicode="h" horiz-adv-x="493" 
d="M129 681v-247h2q31 40 71.5 55.5t86.5 15.5q69 0 109.5 -32.5t40.5 -92.5v-380l-71 2v365q0 23 -9 38t-23 23.5t-32.5 12t-36.5 3.5q-23 0 -47 -10.5t-44.5 -27.5t-33.5 -38.5t-13 -42.5v-325h-71v681h71z" />
    <glyph glyph-name="i" unicode="i" horiz-adv-x="184" 
d="M129 662v-82h-71v82h71zM129 497v-497h-71v497h71z" />
    <glyph glyph-name="j" unicode="j" horiz-adv-x="189" 
d="M133 662v-82h-70v82h70zM132 497v-577q0 -61 -32 -91t-80 -30q-10 0 -21.5 2t-19.5 8v58q6 -2 14 -5t16 -3q23 0 38 18.5t15 44.5v575h70z" />
    <glyph glyph-name="k" unicode="k" 
d="M129 662v-403h1l217 238h81l-180 -206l186 -291h-84l-149 238l-72 -83v-155h-71v662h71z" />
    <glyph glyph-name="l" unicode="l" horiz-adv-x="180" 
d="M129 662v-662h-71v662h71z" />
    <glyph glyph-name="m" unicode="m" horiz-adv-x="752" 
d="M58 497h71v-63h2q12 17 28.5 30.5t35.5 22.5t39.5 14t40.5 5q74 0 118 -72q25 35 68.5 53.5t84.5 18.5q66 0 105 -34.5t39 -90.5v-381h-71v364q0 22 -8 37.5t-20.5 25t-27 14t-27.5 4.5q-20 0 -42.5 -9t-41.5 -24t-31 -33.5t-12 -37.5v-341h-71v364q0 22 -8 37.5t-20 25
t-26.5 14t-27.5 4.5q-20 0 -42.5 -9t-41.5 -24t-31 -33.5t-12 -37.5v-341h-71v497z" />
    <glyph glyph-name="n" unicode="n" horiz-adv-x="492" 
d="M58 497h71v-63h2q12 18 29.5 31.5t38 22.5t42.5 13.5t43 4.5q68 0 107 -35.5t39 -92.5v-378h-71v360q0 18 -8 34t-20 27t-27 17.5t-28 6.5q-22 0 -46 -8.5t-44.5 -22.5t-36 -33t-20.5 -41v-340h-71v497z" />
    <glyph glyph-name="o" unicode="o" horiz-adv-x="499" 
d="M250 -9q-52 0 -92 21.5t-67 57t-41 81.5t-14 96t14 97t41 83t67 58t92 22t92 -22t67 -58t41 -83t14 -97t-14 -96t-41 -81.5t-67 -57t-92 -21.5zM250 51q32 0 58.5 15.5t45 42.5t29 62.5t10.5 75.5t-10.5 76t-29 63.5t-45 44t-58.5 16.5t-58.5 -16.5t-45 -44t-29 -63.5
t-10.5 -76t10.5 -75.5t29 -62.5t45 -42.5t58.5 -15.5z" />
    <glyph glyph-name="p" unicode="p" horiz-adv-x="500" 
d="M262 506q52 0 90 -21.5t63.5 -57t38 -81.5t12.5 -96t-12.5 -97t-38 -83t-63.5 -58t-90 -22q-44 0 -79.5 21t-55.5 56v-251h-69v681h69v-62q20 31 55.5 51t79.5 20zM262 446q-32 0 -56.5 -15.5t-41.5 -42.5t-26 -62.5t-9 -75.5t9 -76t26 -63.5t41.5 -44t56.5 -16.5
t56.5 16.5t41.5 44t26 63.5t9 76t-9 75.5t-26 62.5t-41.5 42.5t-56.5 15.5z" />
    <glyph glyph-name="q" unicode="q" horiz-adv-x="517" 
d="M252 506q44 0 79.5 -20t55.5 -51v62h69v-681h-69v251q-20 -35 -55.5 -56t-79.5 -21q-52 0 -90 22t-63.5 58t-38 83t-12.5 97t12.5 96t38 81.5t63.5 57t90 21.5zM252 446q-32 0 -56.5 -15.5t-41.5 -42.5t-26 -62.5t-9 -75.5t9 -76t26 -63.5t41.5 -44t56.5 -16.5t56.5 16.5
t41.5 44t26 63.5t9 76t-9 75.5t-26 62.5t-41.5 42.5t-56.5 15.5z" />
    <glyph glyph-name="r" unicode="r" horiz-adv-x="286" 
d="M58 497h71v-62h2q19 34 46.5 52.5t69.5 18.5q20 0 37 -9v-71q-14 4 -21 5t-15 1q-26 0 -48 -9t-37.5 -24.5t-24.5 -36t-9 -43.5v-319h-71v497z" />
    <glyph glyph-name="s" unicode="s" horiz-adv-x="443" 
d="M106 152q0 -24 9 -43t24.5 -31.5t35.5 -19.5t42 -7q18 0 39 4.5t39 14t30 24.5t12 37q0 16 -9.5 30.5t-25.5 26.5t-37 22.5t-44 19.5q-31 12 -61.5 25.5t-54.5 31t-39 40.5t-15 55q0 36 14 60t37 38.5t53 21t62 6.5q38 0 70 -8.5t55.5 -25.5t36.5 -42.5t13 -60.5l-71 1
q0 20 -8.5 34t-23 23t-33.5 13.5t-39 4.5q-42 0 -68.5 -20t-26.5 -44q0 -18 10 -31.5t26 -24t36.5 -19t42.5 -18.5q29 -13 59 -25.5t55 -29t40.5 -39.5t15.5 -57q0 -40 -15.5 -68t-41.5 -46t-60.5 -26t-72.5 -8q-37 0 -70 10t-57.5 30.5t-39 50.5t-14.5 70h70z" />
    <glyph glyph-name="t" unicode="t" horiz-adv-x="256" 
d="M156 634v-137h79v-61h-79v-329q0 -31 19 -43.5t45 -12.5q5 0 11 0.5t15 5.5v-58q-13 -3 -29 -5.5t-34 -2.5q-20 0 -37.5 5t-31 16t-21.5 29t-8 44v351h-72v61h72v137h71z" />
    <glyph glyph-name="u" unicode="u" horiz-adv-x="491" 
d="M125 497v-349q0 -26 8.5 -44t22 -29.5t30.5 -17t34 -5.5q20 0 41.5 6.5t40.5 18.5t35 28t25 34v358h71v-497h-71v63h-3q-28 -36 -68.5 -54t-88.5 -18q-66 0 -107 32t-41 98v376h71z" />
    <glyph glyph-name="v" unicode="v" horiz-adv-x="455" 
d="M85 497l143 -408l142 408h80l-182 -497h-81l-182 497h80z" />
    <glyph glyph-name="w" unicode="w" horiz-adv-x="653" 
d="M81 497l106 -390l106 390h67l106 -390l106 390h72l-136 -497h-80l-101 389l-102 -389h-80l-136 497h72z" />
    <glyph glyph-name="x" unicode="x" horiz-adv-x="446" 
d="M105 497l118 -188l123 188h87l-172 -242l176 -255h-89l-125 195l-125 -195h-89l176 255l-167 242h87z" />
    <glyph glyph-name="y" unicode="y" horiz-adv-x="443" 
d="M88 497l141 -395l137 395h69l-208 -594q-21 -57 -51 -80.5t-58 -23.5q-14 0 -28.5 3t-26.5 8v68q11 -7 21.5 -13t24.5 -6q12 0 22.5 9t19 21.5t14.5 26t9 22.5l18 62l-183 497h79z" />
    <glyph glyph-name="z" unicode="z" horiz-adv-x="455" 
d="M409 497v-61l-291 -372l5 -2h294l1 -62h-389l-1 62l288 373l-5 1h-265v61h363z" />
    <glyph glyph-name="braceleft" unicode="{" horiz-adv-x="275" 
d="M32 329h25q16 0 26 7.5t15.5 18.5t7.5 23.5t2 23.5v226q0 21 8 38t21.5 29t30 18t34.5 6h44v-57h-11q-25 0 -43.5 -13.5t-18.5 -34.5v-242q0 -32 -20 -49t-54 -22q32 -7 53 -23t21 -48v-238q0 -24 18.5 -37t43.5 -13h11v-56h-44q-18 0 -34.5 7t-30 19t-21.5 29t-8 38v221
q0 13 -2 26t-7.5 23.5t-15.5 17t-26 6.5h-25v56z" />
    <glyph glyph-name="bar" unicode="|" horiz-adv-x="203" 
d="M130 743v-857h-57v857h57z" />
    <glyph glyph-name="braceright" unicode="}" horiz-adv-x="275" 
d="M246 273h-25q-16 0 -26 -6.5t-15.5 -17t-7.5 -23.5t-2 -26v-221q0 -21 -8 -38t-21.5 -29t-30 -19t-34.5 -7h-44v56h11q25 0 43.5 13t18.5 37v238q0 32 21 48t53 23q-35 5 -54.5 22t-19.5 49v242q0 21 -18.5 34.5t-43.5 13.5h-11v57h44q18 0 34.5 -6t30 -18t21.5 -29
t8 -38v-226q0 -11 2 -23.5t7.5 -23.5t15.5 -18.5t26 -7.5h25v-56z" />
    <glyph glyph-name="asciitilde" unicode="~" horiz-adv-x="582" 
d="M522 347q0 -89 -38.5 -135t-99.5 -46q-29 0 -48.5 10t-33.5 25t-25.5 33t-24.5 33t-29.5 25t-41.5 10q-23 0 -37.5 -12t-23 -30.5t-12 -40.5t-3.5 -41h-56q0 36 8.5 69.5t26 60t44 42t62.5 15.5q32 0 54.5 -10t39 -25t28 -33t23 -33t24 -25t29.5 -10q13 0 27 9t25 24.5
t18 37t7 47.5h57z" />
    <glyph glyph-name="NBSPACE" unicode="&#xa0;" horiz-adv-x="300" 
 />
    <glyph glyph-name="copyright" unicode="&#xa9;" horiz-adv-x="787" 
d="M394 718q97 0 183 -49.5t132.5 -134t47.5 -180.5q1 -97 -48.5 -182.5t-134 -133t-180.5 -47.5q-98 0 -184 49.5t-132.5 134.5t-47.5 179q-1 98 49.5 184t136.5 133t178 47zM394 658q-80 1 -151.5 -40.5t-111 -111.5t-40.5 -152t40 -152t113 -110.5t150 -40.5q81 0 151 40
t110.5 110t41.5 153q1 82 -41 153t-114 110.5t-148 40.5zM510 296l59 -18q-13 -62 -61 -97t-113 -35q-91 0 -142 59q-49 56 -49 148q0 134 92 182q44 23 103 23q127 0 164 -113l-58 -14q-30 73 -108 74q-63 1 -97 -46q-30 -41 -30 -107q0 -147 121 -149q95 -2 119 93z" />
    <glyph glyph-name="commaturnedmod" unicode="&#x2bb;" horiz-adv-x="219" 
d="M155 588v-101h-93v79q0 67 15 94q19 35 64 58l22 -34q-51 -17 -54 -96h46z" />
    <glyph glyph-name="afii57929" unicode="&#x2bc;" horiz-adv-x="219" 
d="M60 612v101h93v-79q0 -60 -14 -90q-18 -39 -66 -62l-21 34q50 19 53 96h-45z" />
    <glyph glyph-name="uni02EE" unicode="&#x2ee;" horiz-adv-x="328" 
d="M41 612v101h94v-79q0 -60 -14 -90q-18 -39 -66 -62l-20 34q50 19 52 96h-46zM191 612v101h93v-79q0 -59 -14 -90q-18 -39 -65 -62l-22 34q54 20 54 96h-46z" />
    <glyph glyph-name="combininggraphemejoiner" unicode="&#x34f;" horiz-adv-x="0" 
 />
    <glyph glyph-name="uni0B82" unicode="&#xb82;" horiz-adv-x="833" 
 />
    <glyph glyph-name="uni0B83.aytham" unicode="&#xb83;" horiz-adv-x="702" 
d="M352 559q51 1 87.5 -36t37.5 -88q1 -52 -36 -88t-89 -36q-51 0 -87 36.5t-37 87.5t36 87t88 37zM352 497q-24 1 -42.5 -18.5t-19.5 -43.5q-1 -21 18 -44q18 -18 44 -18q25 0 43.5 18.5t19.5 43.5t-18.5 43t-44.5 19zM166 249q52 1 87.5 -36t36.5 -89q1 -51 -36 -87
t-88 -37t-87 36t-37 88t36 87.5t88 37.5zM166 186q-24 1 -42.5 -18.5t-19.5 -43.5q-1 -21 18 -44q18 -18 44 -18q25 0 43 18.5t19 43.5q1 24 -18.5 42.5t-43.5 19.5zM539 249q52 1 87.5 -36t36.5 -89q1 -51 -36 -87t-88 -37t-87 36t-37 88t36 87.5t88 37.5zM539 186
q-24 1 -42.5 -18.5t-19.5 -43.5q-1 -21 18 -44q18 -18 44 -18q25 0 43 18.5t19 43.5q1 24 -18.5 42.5t-43.5 19.5z" />
    <glyph glyph-name="uni0B85.a" unicode="&#xb85;" horiz-adv-x="853" 
d="M810 -62h-62v217h-80q-30 -96 -112 -156q-80 -61 -181 -61h-62q-105 0 -183 39q-99 50 -99 143q1 21 9 38.5t21 30.5t30 20.5t36 7.5h493l4 32q0 81 -54 133q-26 26 -53.5 39.5t-67.5 13.5q10 -2 19 -9.5t16 -17.5t11 -20t4 -18q0 -25 -10 -47t-27 -38t-39.5 -25.5
t-47.5 -10.5q-51 -1 -87 36q-35 37 -37 88q-1 50 36 87t88 37h62q101 0 178 -74q17 -16 30.5 -37t23 -44t14.5 -46.5t3 -46.5l-2 -32h64v280h62v-559zM602 155h-475q-25 0 -32 -31q0 -124 218 -124h62q76 0 137 42q62 44 90 113zM375 435q-12 0 -23 -5t-19.5 -13.5t-14 -20
t-5.5 -23.5q-2 -21 18 -44q18 -18 44 -18q25 0 43 18.5t19 43.5q0 12 -5 23t-13.5 19.5t-20 14t-23.5 5.5z" />
    <glyph glyph-name="uni0B86.aa" unicode="&#xb86;" horiz-adv-x="1025" 
d="M620 217l4 32q0 81 -54 133q-26 26 -53.5 39.5t-67.5 13.5q10 -2 19 -9.5t16 -17.5t11 -20t4 -18q0 -25 -10 -47t-27 -38t-39.5 -25.5t-47.5 -10.5q-51 -1 -87 36q-35 37 -37 88q-1 50 36 87t88 37h62q101 0 178 -74q17 -16 30.5 -37t23 -44t14.5 -46.5t3 -46.5l-2 -32
h64v280h62v-366q2 5 9 14.5t18 18.5t24.5 15.5t29.5 6.5q24 0 43.5 -10t33 -27.5t21 -40t7.5 -46.5q1 -123 -77 -215q-81 -96 -202 -96h-124q-19 0 -36 7.5t-29.5 20.5t-20.5 30t-8 36q-1 36 28 65q28 28 66 28h62q37 0 65 -22t28 -59q0 -12 -8 -24t-23 -19q94 0 157 79
q60 73 60 169q0 25 -12.5 43.5t-42.5 18.5q-11 0 -22.5 -6t-21 -15t-16 -20t-9.5 -21v-124h-62v217h-80q-30 -96 -112 -156q-80 -61 -181 -61h-62q-105 0 -183 39q-99 50 -99 143q1 21 9 38.5t21 30.5t30 20.5t36 7.5h493zM602 155h-475q-25 0 -32 -31q0 -124 218 -124h62
q76 0 137 42q62 44 90 113zM375 435q-12 0 -23 -5t-19.5 -13.5t-14 -20t-5.5 -23.5q-2 -21 18 -44q18 -18 44 -18q25 0 43 18.5t19 43.5q0 12 -5 23t-13.5 19.5t-20 14t-23.5 5.5zM655 -186q24 0 31 31q0 24 -31 31h-62q-25 0 -32 -31q0 -28 32 -31h62z" />
    <glyph glyph-name="uni0B87.i" unicode="&#xb87;" horiz-adv-x="990" 
d="M216 120q-33 91 -33 191q0 170 100 297q106 136 272 138q162 2 272 -140q100 -128 101 -295h-62q0 143 -82 252q-90 120 -229 120q-138 0 -228 -120q-80 -107 -82 -252q-1 -96 37 -187h417q12 46 12 93q0 39 -19 86t-62 85q16 -56 6 -94.5t-33 -61.5q-46 -45 -110 -46
t-109 45q-44 46 -46 111q-1 61 46 108q45 45 109 47q59 1 110.5 -20.5t89 -59.5t59 -89.5t21.5 -110.5q0 -46 -12 -95q78 0 133 -37q63 -41 65 -116q1 -90 -63 -153q-63 -63 -154 -65q-102 -1 -208 39q-75 -39 -165 -39q-128 0 -222 45q-120 57 -120 173q0 73 61 113
q53 37 128 38zM602 -167q54 -17 140 -19q63 -2 108 45q45 45 47 110q1 49 -53 73q-41 18 -96 18q-48 -147 -146 -227zM528 -138q99 62 152 200h-367q77 -132 215 -200zM456 -173q-142 85 -213 233q-60 0 -99 -16q-57 -23 -57 -71q2 -75 71.5 -116.5t210.5 -42.5q54 0 87 13z
M561 419q-30 11 -68 16q-18 0 -35 -7.5t-29.5 -20.5t-20.5 -30t-8 -35q0 -19 7 -36t20 -29.5t30 -20t36 -7.5q36 -1 64 27q31 31 29.5 69.5t-25.5 73.5z" />
    <glyph glyph-name="uni0B88.ii" unicode="&#xb88;" horiz-adv-x="579" 
d="M307 0v435h-187v-435h-62v497h466v-62h-155v-435h-62zM254 229q2 -36 -44 -44q-38 0 -43 44q0 17 13 30.5t30 16.5q17 0 30 -15t14 -32zM548 229q0 -14 -15 -31q-14 -9 -32 -13q-38 0 -45 44q0 16 15.5 30.5t31.5 14.5q15 0 30 -15t15 -30z" />
    <glyph glyph-name="uni0B89.u" unicode="&#xb89;" horiz-adv-x="849" 
d="M230 445q16 -16 27.5 -38t11.5 -54q0 -51 -32.5 -77.5t-79.5 -26.5q-21 0 -41.5 7t-36 21t-25 34t-9.5 47q0 35 14 61t38 43.5t56 26t67 8.5q42 0 78.5 -11t63.5 -34t42 -58t15 -83q0 -26 -9.5 -58t-33.5 -61t-65 -48.5t-104 -19.5h-62q-19 0 -28.5 -10.5t-9.5 -21.5
t10 -20.5t36 -9.5h654v-62h-649q-52 0 -82.5 25.5t-30.5 68.5q0 36 26.5 64t77.5 28h58q35 0 63 10.5t47.5 28.5t29.5 42.5t10 51.5q0 26 -7 49t-22.5 40t-39.5 27t-58 10zM159 311q20 0 34 13t14 38q0 21 -12 41.5t-35 31.5q-17 -5 -35 -23.5t-18 -50.5q2 -25 17.5 -37.5
t34.5 -12.5z" />
    <glyph glyph-name="uni0B8A.uu" unicode="&#xb8a;" horiz-adv-x="1045" 
d="M230 445q16 -16 27.5 -38t11.5 -54q0 -51 -32.5 -77.5t-79.5 -26.5q-21 0 -41.5 7t-36 21t-25 34t-9.5 47q0 35 14 61t38 43.5t56 26t67 8.5q42 0 78.5 -11t63.5 -34t42 -58t15 -83q0 -26 -9.5 -58t-33.5 -61t-65 -48.5t-104 -19.5h-62q-19 0 -28.5 -10.5t-9.5 -21.5
t10 -20.5t36 -9.5h850v-62h-845q-52 0 -82.5 25.5t-30.5 68.5q0 36 26.5 64t77.5 28h58q35 0 63 10.5t47.5 28.5t29.5 42.5t10 51.5q0 26 -7 49t-22.5 40t-39.5 27t-58 10zM159 311q20 0 34 13t14 38q0 21 -12 41.5t-35 31.5q-17 -5 -35 -23.5t-18 -50.5q2 -25 17.5 -37.5
t34.5 -12.5zM723 435h280v-62h-62v-280h-62v280h-93v-280h-63v189q0 10 -6.5 25.5t-19.5 30t-32.5 25t-44.5 10.5t-49.5 -12t-38.5 -45q9 12 24 16t26 4q19 0 34 -9.5t25 -25t15 -35t5 -39.5q0 -66 -22.5 -100t-69.5 -34q-48 0 -71 41t-23 107v8q0 45 12.5 79.5t32.5 58
t46.5 36t53.5 12.5q35 0 61.5 -16.5t41.5 -42.5v59zM568 279q-11 0 -23.5 -11.5t-12.5 -48.5q0 -35 9.5 -49.5t25.5 -14.5q17 0 24.5 18t7.5 46q0 26 -7.5 43t-23.5 17z" />
    <glyph glyph-name="uni0B8E.e" unicode="&#xb8e;" horiz-adv-x="691" 
d="M298 435q-78 0 -132 -54q-27 -27 -40.5 -58.5t-13.5 -73.5q3 10 11 20.5t19 19t23.5 14t24.5 5.5q29 0 49 -15t33 -37.5t19 -49.5t7 -51q2 -56 -33 -103q-36 -51 -91 -52t-91 51q-33 47 -33 104v94q0 106 71 177t177 71h342v-62h-124v-435h-62v435h-156zM174 249
q-28 1 -47 -34q-15 -28 -15 -60q0 -34 14 -60q17 -31 48 -33q19 -1 38 22q16 19 20 41q4 15 4 30q2 32 -15 60q-18 32 -47 34z" />
    <glyph glyph-name="uni0B8F.ee" unicode="&#xb8f;" horiz-adv-x="681" 
d="M298 435q-78 0 -132 -54q-27 -27 -40.5 -58.5t-13.5 -73.5q3 10 11 20.5t19 19t23.5 14t24.5 5.5q29 0 49 -15t33 -37.5t19 -49.5t7 -51q2 -56 -33 -103q-36 -51 -91 -52t-91 51q-33 47 -33 104v94q0 106 71 177t177 71h342v-62h-124v-435l-156 -155l-46 46l140 140v404
h-156zM174 249q-28 1 -47 -34q-15 -28 -15 -60q0 -34 14 -60q17 -31 48 -33q19 -1 38 22q16 19 20 41q4 15 4 30q2 32 -15 60q-18 32 -47 34z" />
    <glyph glyph-name="uni0B90.ai" unicode="&#xb90;" horiz-adv-x="762" 
d="M621 85l45 45q55 -61 56 -130q1 -79 -53 -132.5t-133 -53.5q-90 0 -155 93q-25 -40 -67.5 -66t-88.5 -27q-78 -1 -132 53.5t-54 132.5t54 132t132 54h311q51 0 87 37t37 88t-36 87t-88 37q-50 1 -87 -36.5t-37 -87.5v-94h-62v94q0 52 -36.5 87.5t-88.5 36.5q-10 0 -31 -6
q39 -9 66 -43.5t27 -74.5q0 -51 -36.5 -87.5t-87.5 -37.5q-53 -1 -88.5 35.5t-35.5 89.5q0 78 54 132t132 54q93 0 156 -93q60 93 155 93q79 0 132.5 -53.5t53.5 -132.5t-53.5 -133t-132.5 -54h-311q-51 0 -87 -36.5t-37 -87.5t36 -87t88 -37q50 -1 87.5 36.5t37.5 87.5v93
h62v-93q0 -51 36.5 -87t87.5 -37t87 35.5t37 88.5q1 41 -39 85zM138 398q-36 -33 -37 -87q0 -21 18 -44q18 -18 44 -18q24 0 43 19t19 43q1 60 -87 87z" />
    <glyph glyph-name="uni0B92.o" unicode="&#xb92;" horiz-adv-x="699" 
d="M662 218q2 -80 -53 -133q-53 -53 -133 -53q-65 0 -110 45q-44 44 -46 110q-1 45 29 80q26 31 74 43l22 -60q-25 0 -43 -19t-19 -44q-1 -37 27 -65q28 -26 66 -28q51 -1 87 36q37 37 37 88q1 106 -71 185q-72 78 -178 79q-37 1 -72 -11t-65 -34.5t-54.5 -53.5t-40.5 -69
q13 11 30.5 19.5t26.5 8.5q24 1 44.5 -14t35.5 -38t23.5 -50.5t9.5 -52.5q1 -26 -8 -53.5t-25.5 -49.5t-39.5 -36.5t-51 -15.5t-51 13.5t-39.5 37t-25 50.5t-8.5 54v31q0 63 23.5 121t65.5 102.5t98.5 71t122.5 26.5q130 0 220 -95q89 -94 91 -226zM600 -30h-93
q-21 0 -44 -18q-18 -18 -18 -44q0 -33 -13.5 -60t-36 -46t-52 -29.5t-60.5 -10.5t-58.5 11t-47.5 30.5t-31.5 46t-11.5 58.5v31h62v-31q0 -18 7.5 -33.5t20 -27t29.5 -17.5t36 -6q18 0 35 6t30 17.5t21 27t8 33.5q0 26 9.5 48.5t26.5 39.5t39.5 26.5t48.5 9.5h93v-62z
M227 187q1 14 -3 30t-12 30t-20 23.5t-27 10.5t-27 -9t-19.5 -24.5t-11.5 -31t-4 -29.5q0 -15 3.5 -31t11 -29.5t19.5 -22.5t28 -10q15 -1 27 9t19.5 25t11.5 31t4 28z" />
    <glyph glyph-name="uni0B93.oo" unicode="&#xb93;" horiz-adv-x="696" 
d="M662 228q1 -80 -52.5 -133t-133.5 -53q-65 0 -110 45t-46 110q-1 45 30 79q28 31 73 43l22 -60q-25 0 -43 -18.5t-19 -43.5q-1 -37 27.5 -64.5t65.5 -28.5q51 -1 87.5 36t36.5 88q1 106 -71 177t-178 72q-71 1 -129 -37t-92 -103q24 15 35 15q55 0 91 -52q33 -46 33 -103
t-33 -103q-36 -51 -91 -52t-91 51q-33 47 -33 104v31q0 132 89 221t221 90q131 1 220.5 -89.5t90.5 -221.5zM600 -20h-93q-26 0 -44 -18.5t-18 -44.5q-1 -64 -46 -104t-110 -41q-64 -1 -109 40.5t-46 104.5q-1 45 24 79.5t69 35.5q43 1 69 -37q23 -33 24 -78q1 -51 -35 -93
h4q37 0 65 28t29 65q1 52 36.5 88.5t87.5 36.5h93v-62zM227 197q1 33 -14 60q-17 32 -48 33q-20 1 -38 -22q-15 -18 -21 -41q-3 -11 -3 -30q0 -34 14 -60q17 -32 48 -33q20 -1 38 22q15 18 20 41q4 16 4 30zM258 -83q1 52 -31 53q-30 1 -31 -53q-1 -61 31 -62q30 -1 31 62z
" />
    <glyph glyph-name="uni0B94.au" unicode="&#xb94;" horiz-adv-x="1413" 
d="M662 218q2 -80 -53 -133q-53 -53 -133 -53q-65 0 -110 45q-44 44 -46 110q-1 45 29 80q26 31 74 43l22 -60q-25 0 -43 -19t-19 -44q-1 -37 27 -65q28 -26 66 -28q51 -1 87 36q37 37 37 88q1 106 -71 185q-72 78 -178 79q-37 1 -72 -11t-65 -34.5t-54.5 -53.5t-40.5 -69
q13 11 30.5 19.5t26.5 8.5q24 1 44.5 -14t35.5 -38t23.5 -50.5t9.5 -52.5q1 -26 -8 -53.5t-25.5 -49.5t-39.5 -36.5t-51 -15.5t-51 13.5t-39.5 37t-25 50.5t-8.5 54v31q0 63 23.5 121t65.5 102.5t98.5 71t122.5 26.5q130 0 220 -95q89 -94 91 -226zM600 -30h-93
q-21 0 -44 -18q-18 -18 -18 -44q0 -33 -13.5 -60t-36 -46t-52 -29.5t-60.5 -10.5t-58.5 11t-47.5 30.5t-31.5 46t-11.5 58.5v31h62v-31q0 -18 7.5 -33.5t20 -27t29.5 -17.5t36 -6q18 0 35 6t30 17.5t21 27t8 33.5q0 26 9.5 48.5t26.5 39.5t39.5 26.5t48.5 9.5h93v-62z
M227 187q1 14 -3 30t-12 30t-20 23.5t-27 10.5t-27 -9t-19.5 -24.5t-11.5 -31t-4 -29.5q0 -15 3.5 -31t11 -29.5t19.5 -22.5t28 -10q15 -1 27 9t19.5 25t11.5 31t4 28zM762 249q3 10 11 20.5t19 19t23.5 14t24.5 5.5q29 0 49 -15t33 -37.5t19 -49.5t7 -51q2 -56 -33 -103
q-36 -51 -91 -52t-91 51q-33 47 -33 104v94q0 93 46 164q52 82 140 84q77 2 125 -87v87h372v-62h-93v-435h-62v435h-155v-435h-62v249q0 69 -28 121q-35 65 -97 65q-63 0 -96 -65q-27 -51 -28 -121zM824 249q-28 1 -47 -34q-15 -28 -15 -60q0 -34 14 -60q17 -31 48 -33
q19 -1 38 22q16 19 20 41q4 15 4 30q2 32 -15 60q-18 32 -47 34z" />
    <glyph glyph-name="uni0B95.ka" unicode="&#xb95;" horiz-adv-x="671" 
d="M411 89q27 -27 66 -27q37 0 64.5 28t28.5 65q1 36 -28 65t-65 29h-62v-63q0 -80 -53.5 -133t-133.5 -53q-78 0 -132 54t-54 132q0 52 36 88t88 37v186h404v-62h-155v-124h62q64 0 109 -45.5t46 -110.5q1 -63 -45 -108.5t-110 -46.5q-66 -1 -109 47zM352 435h-124v-124
h124v124zM228 62q50 -1 87 36.5t37 87.5v63h-186q-25 0 -43.5 -19t-18.5 -44q-1 -51 36 -87t88 -37z" />
    <glyph glyph-name="uni0B99.nga" unicode="&#xb99;" horiz-adv-x="741" 
d="M248 0v435h-125v-435h-62v497h373v-62h-124v-185q5 13 15.5 28.5t26 29.5t36.5 23.5t46 10.5q26 1 48.5 -9t39 -27.5t26 -40.5t10.5 -48t-8 -52t-23.5 -49t-32 -37t-34.5 -18h160v436h63v-497h-311v62q26 6 48.5 21.5t39.5 36.5t26.5 46.5t9.5 50.5q0 24 -19 43.5
t-43 19.5q-28 1 -51 -13.5t-39.5 -37.5t-25 -51t-8.5 -54v-124h-62z" />
    <glyph glyph-name="uni0B9A.ca" unicode="&#xb9a;" horiz-adv-x="609" 
d="M415 249v-63q0 -80 -53.5 -133t-133.5 -53q-78 0 -132 54t-54 132q0 52 36 88t88 37v186h404v-62h-155v-124h155v-62h-155zM228 62q50 -1 87 36.5t37 87.5v63h-186q-25 0 -43.5 -19t-18.5 -44q-1 -51 36 -87t88 -37zM352 311v124h-124v-124h124z" />
    <glyph glyph-name="uni0B9C.ja" unicode="&#xb9c;" horiz-adv-x="762" 
d="M536 -186q-52 0 -87 36t-37 88h62q0 -24 19 -43t43 -19h62q24 0 43 19t19 43v31q0 28 -34 46q-30 16 -59 16h-93q-38 0 -65 -27.5t-28 -65.5q-1 -54 -53 -90q-47 -33 -103 -34q-79 -1 -132.5 53t-53.5 133q0 78 54 132t132 54h311q51 0 87 37t37 88t-36 87t-88 37
q-50 1 -87 -36.5t-37 -87.5v-94h-62v94q0 52 -36.5 87.5t-88.5 36.5q-10 0 -31 -6q39 -9 66 -43.5t27 -74.5q0 -51 -36.5 -87.5t-87.5 -37.5q-53 -1 -88.5 35.5t-35.5 89.5q0 78 54 132t132 54q93 0 156 -93q60 93 155 93q79 0 132.5 -53.5t53.5 -132.5t-53.5 -133
t-132.5 -54h-311q-51 0 -87 -36.5t-37 -87.5t35.5 -87t88.5 -37q36 -1 64 27.5t29 65.5q1 54 53 90q47 34 103 34h93q57 0 103 -33q52 -36 52 -91v-31q0 -50 -37 -87t-87 -37h-62zM138 398q-36 -33 -37 -87q0 -21 18 -44q18 -18 44 -18q24 0 43 19t19 43q1 60 -87 87z" />
    <glyph glyph-name="uni0B9E.nya" unicode="&#xb9e;" horiz-adv-x="950" 
d="M118 418l45 -45q-60 -66 -60 -155q0 -178 130 -293q124 -110 305 -111q131 -1 221 89.5t90 221.5v62q0 25 -19 43.5t-44 18.5q-51 1 -87.5 -35.5t-36.5 -88.5v-125h-62v435h-155q-80 0 -132.5 -53t-54.5 -133q0 25 18.5 43.5t43.5 18.5q54 1 91 -52q33 -46 34 -103
t-33 -104q-36 -51 -92 -52q-55 -1 -91 52q-33 47 -33 104v93q0 105 72 176.5t177 71.5h341v-62h-124v-248q0 51 36.5 87t87.5 37q50 1 87.5 -36.5t37.5 -87.5v-62q0 -155 -108.5 -263.5t-264.5 -109.5q-205 -1 -349 129q-148 134 -148 337q0 117 77 200zM320 249
q-20 1 -38 -22q-15 -18 -21 -41q-3 -11 -3 -30q0 -32 15 -60q18 -33 47 -34t47 34q15 28 16 60q1 30 -16 59q-19 33 -47 34z" />
    <glyph glyph-name="uni0B9F.tta" unicode="&#xb9f;" horiz-adv-x="677" 
d="M58 497h62v-436h501v-61h-563v497z" />
    <glyph glyph-name="uni0BA3.nna" unicode="&#xba3;" horiz-adv-x="1149" 
d="M578 435q-37 0 -72 -16q72 -78 72 -170v-94q0 -57 -33 -103q-36 -51 -91 -52t-91 51q-33 47 -33 104v94q0 98 69 170q-40 16 -69 16h-32q-78 0 -132 -54t-54 -132q0 25 18.5 43.5t43.5 18.5q53 1 90 -53q33 -47 34 -103t-33 -103q-36 -51 -91 -52t-91 51q-33 47 -33 104
v94q0 106 71 177t177 71h32q63 0 124 -37q60 37 124 37h31q63 0 124 -37q59 37 125 37h248v-62h-93v-435h-62v435h-93q-40 0 -72 -16q72 -78 72 -170v-94q0 -57 -34 -103q-36 -51 -91 -52t-91 51q-33 47 -33 104v94q0 100 70 170q-40 16 -70 16h-31zM452 384
q-60 -51 -60 -135v-94q0 -34 14 -60q17 -32 48 -33q20 -1 38 22q15 19 20 41q4 18 4 30v94q0 80 -64 135zM174 249q-29 1 -47 -34q-15 -28 -15 -60q0 -34 14 -60q17 -32 48 -33q20 -1 38 22q15 18 20 41q4 16 4 30q1 32 -15 60q-18 33 -47 34zM731 384q-60 -54 -60 -135v-94
q0 -48 31 -79q13 -13 31 -14q24 -1 47 34q16 30 16 59v94q0 79 -65 135z" />
    <glyph glyph-name="uni0BA4.ta" unicode="&#xba4;" horiz-adv-x="637" 
d="M411 249v-62q0 -80 -53.5 -133t-133.5 -54t-133 53t-53 134q0 52 36 87t88 37v186h373v-62h-124v-124h62q50 0 87 -37t37 -87v-32q0 -105 -71.5 -176.5t-176.5 -71.5h-125q-44 0 -81 -24q-43 -27 -43 -69v-26h-62v26q0 68 61 113q55 42 125 42h125q78 0 132 54t54 132v32
q0 24 -19 43t-43 19h-62zM349 435h-125v-124h125v124zM224 62q51 -1 88 36.5t37 88.5v62h-187q-25 0 -43.5 -18.5t-18.5 -43.5q-1 -52 35.5 -88t88.5 -37z" />
    <glyph glyph-name="uni0BA8.na" unicode="&#xba8;" horiz-adv-x="636" 
d="M58 0v497h466v-62h-186v-198q7 19 18.5 33t24.5 23t26.5 13.5t23.5 4.5h31q49 0 87 -38t38 -87v-31q0 -105 -72 -176q-72 -72 -177 -72h-124q-44 0 -82 -24q-43 -27 -43 -69v-31h-62v31q0 68 61 113q56 42 126 42h124q78 0 132 54t54 132v31q0 24 -19 43.5t-43 19.5h-31
q-18 0 -35 -10t-30 -24t-20.5 -30.5t-7.5 -28.5v-156h-62v435h-155v-435h-63z" />
    <glyph glyph-name="uni0BA9.nnna" unicode="&#xba9;" horiz-adv-x="845" 
d="M567 435q-37 0 -72 -16q72 -78 72 -170v-94q0 -57 -33 -103q-36 -51 -91 -52q-56 -1 -92 51q-33 46 -33 104v94q0 99 70 170q-45 16 -70 16h-31q-78 0 -132 -54t-54 -132q0 25 18.5 43.5t43.5 18.5q53 1 90 -53q33 -47 34 -103t-33 -103q-36 -51 -91 -52t-91 51
q-33 47 -33 104v94q0 106 71 177t177 71h31q63 0 125 -37q60 37 124 37h249v-62h-94v-435h-62v435h-93zM441 384q-60 -51 -60 -135v-94q0 -34 14 -60q17 -32 48 -33q20 -1 38 22q15 19 20 41q4 18 4 30v94q0 80 -64 135zM163 249q-29 1 -47 -34q-15 -28 -15 -60
q0 -34 14 -60q17 -32 48 -33q20 -1 38 22q15 18 20 41q4 16 4 30q1 32 -15 60q-18 33 -47 34z" />
    <glyph glyph-name="uni0BAA.pa" unicode="&#xbaa;" horiz-adv-x="565" 
d="M58 497h62v-436h311v436h62v-497h-435v497z" />
    <glyph glyph-name="uni0BAE.ma" unicode="&#xbae;" horiz-adv-x="621" 
d="M276 61v312q0 51 36.5 87t87.5 37q79 1 132.5 -53t53.5 -133v-125q0 -78 -54 -132t-132 -54h-342v497h62v-436h156zM338 61h62q50 0 87 37.5t37 87.5v125q0 51 -36.5 87t-87.5 37q-24 0 -43 -19t-19 -43v-312z" />
    <glyph glyph-name="uni0BAF.ya" unicode="&#xbaf;" horiz-adv-x="676" 
d="M276 0v93q0 -37 -28 -64.5t-65 -28.5q-50 -1 -87.5 36.5t-37.5 87.5v373h62v-373q0 -26 18.5 -43.5t44.5 -18.5q36 -1 64.5 28t28.5 65v342h62v-436h217v436h62v-497h-341z" />
    <glyph glyph-name="uni0BB0.ra" unicode="&#xbb0;" horiz-adv-x="495" 
d="M338 435v-435l-156 -155l-46 46l140 140v404h-156v-435h-62v497h404v-62h-124z" />
    <glyph glyph-name="uni0BB1.rra" unicode="&#xbb1;" horiz-adv-x="617" 
d="M391 435q-36 1 -64.5 -27.5t-28.5 -65.5v-342h-62v342q0 34 -14 60q-17 32 -48 33q-20 1 -38 -22q-15 -18 -21 -41q-3 -11 -3 -30v-342h-62v342q0 57 33 103q36 51 91 52q45 1 95 -72q50 72 122 72q85 0 140 -85q46 -71 47 -163q1 -140 -69 -249q-80 -124 -211 -124h-124
q-48 0 -83 -22q-41 -26 -41 -71v-32h-63v32q0 68 61 113q56 42 126 42h124q104 0 167 105q51 85 51 206q0 69 -28 121q-34 64 -97 65z" />
    <glyph glyph-name="uni0BB2.la" unicode="&#xbb2;" horiz-adv-x="728" 
d="M39 249q0 96 60 169q63 78 157 79q64 1 110 -45t46 -110v-187q0 -38 27.5 -65t65.5 -28q63 -1 97 65q27 52 27 122q0 134 -105 236l45 45q121 -117 122 -281q1 -93 -45 -165q-53 -83 -141 -84q-63 -1 -109 45t-46 110v187q0 36 -29 64t-65 29q-68 1 -113 -60
q-42 -56 -42 -126q0 25 18.5 43.5t43.5 18.5q53 1 90 -53q33 -47 34 -103t-33 -103q-36 -51 -91 -52t-91 51q-33 47 -33 104v94zM163 249q-29 1 -47 -34q-15 -28 -15 -60q0 -34 14 -60q17 -32 48 -33q20 -1 38 22q15 18 20 41q4 16 4 30q1 32 -15 60q-18 33 -47 34z" />
    <glyph glyph-name="uni0BB3.lla" unicode="&#xbb3;" horiz-adv-x="764" 
d="M102 249q3 10 11 20.5t19 19t23.5 14t24.5 5.5q29 0 49 -15t33 -37.5t19 -49.5t7 -51v-5q0 -53 -33 -98q-36 -51 -91 -52h-3q-53 0 -88 51q-33 47 -33 104v94q0 93 46 164q52 82 140 84h3q76 0 122 -87v87h372v-62h-93v-435h-62v435h-155v-435h-62v249q0 69 -28 121
q-35 65 -97 65q-63 0 -96 -65q-27 -51 -28 -121zM162 249q-26 0 -45 -34q-15 -28 -15 -60q0 -34 14 -60q17 -31 48 -33h2q19 0 36 22q16 19 20 41q4 15 4 30v5q0 30 -15 55q-18 32 -47 34h-2z" />
    <glyph glyph-name="uni0BB4.llla" unicode="&#xbb4;" horiz-adv-x="625" 
d="M276 0h-218v497h62v-436h156v312q0 51 36.5 87t87.5 37q79 1 132.5 -53t53.5 -133v-125q0 -78 -54 -132t-132 -54h-62q0 -24 19 -43t43 -19h93v-62h-93q-61 0 -62 -31q-1 -37 -28.5 -65.5t-64.5 -28.5h-31q-50 0 -87.5 37.5t-37.5 87.5v31h62v-31q0 -25 19 -43.5
t44 -18.5h31q25 0 43 18.5t19 43.5q1 30 62 31q-38 0 -65 27.5t-28 65.5zM338 61h62q50 0 87 37.5t37 87.5v125q0 51 -36.5 87t-87.5 37q-24 0 -43 -19t-19 -43v-312z" />
    <glyph glyph-name="uni0BB5.va" unicode="&#xbb5;" horiz-adv-x="700" 
d="M414 61h153v436h62v-497h-311v62q28 0 47 34q16 28 16 59v94q0 69 -28 121q-34 64 -97 65q-68 1 -114 -60q-41 -56 -41 -126q0 25 18.5 43.5t43.5 18.5q53 1 90 -53q33 -47 34 -103t-33 -103q-36 -51 -91 -52t-91 51q-33 47 -33 104v94q0 96 60 169q63 78 157 79
q84 1 140 -85q47 -72 47 -163v-94q0 -52 -29 -94zM163 249q-29 1 -47 -34q-15 -28 -15 -60q0 -34 14 -60q17 -32 48 -33q20 -1 38 22q15 18 20 41q4 16 4 30q1 32 -15 60q-18 33 -47 34z" />
    <glyph glyph-name="uni0BB6.sha" unicode="&#xbb6;" horiz-adv-x="805" 
d="M187 0q-26 0 -52 11.5t-47 32t-34.5 49t-13.5 61.5v342h62v-342q0 -38 28 -66t65 -27q37 2 64 29q30 30 30 64v342h480v-342q0 -27 -10.5 -54t-30.5 -49.5t-49 -36.5t-66 -14q-63 0 -109 45q-45 45 -45 108v282h-109v-281q0 -31 -13.5 -59t-36.5 -49t-52.5 -33.5
t-60.5 -12.5zM678 90q30 30 30 64v281h-188v-281q0 -37 28 -65q14 -14 32 -21t36 -7q19 0 33.5 7.5t28.5 21.5z" />
    <glyph glyph-name="uni0BB7.ssa" unicode="&#xbb7;" horiz-adv-x="848" 
d="M404 61h215q-68 0 -113 62q-42 56 -42 126v62q0 72 41 126q44 60 114 60q50 0 87 -37t37 -87v-312h73v-61h-73v-186h-62v186h-373v62q28 0 47 34q16 28 16 59v94q0 69 -28 121q-34 64 -97 65q-68 1 -114 -60q-41 -56 -41 -126q0 25 18.5 43.5t43.5 18.5q53 1 90 -53
q33 -47 34 -103t-33 -103q-36 -51 -91 -52t-91 51q-33 47 -33 104v94q0 96 60 169q63 78 157 79q84 1 140 -85q47 -72 47 -163v-94q0 -52 -29 -94zM153 249q-29 1 -47 -34q-15 -28 -15 -60q0 -34 14 -60q17 -32 48 -33q20 -1 38 22q15 18 20 41q4 16 4 30q1 32 -15 60
q-18 33 -47 34zM619 435q-43 1 -70 -42q-23 -36 -23 -82v-62q0 -72 41 -126q45 -61 114 -62v312q0 24 -18.5 42.5t-43.5 19.5z" />
    <glyph glyph-name="uni0BB8.sa" unicode="&#xbb8;" horiz-adv-x="854" 
d="M412 311v-311h-62v249q0 78 -13 118q-22 68 -81 68h-31q-63 0 -96 -65q-26 -50 -28 -121q0 25 18.5 43.5t43.5 18.5q53 1 90 -53q33 -47 34 -103t-33 -103q-36 -51 -91 -52t-91 51q-33 47 -33 104v94q0 92 46 164q54 84 140 84h31q76 0 117 -74q34 73 101 74q62 1 96 -65
q28 -55 28 -121v-125q0 -53 7 -77q14 -47 55 -47h31q40 0 54 46q8 26 8 78v63q0 63 -29 128t-75 108l44 45q123 -120 123 -281v-63q0 -69 -28 -121q-34 -65 -97 -65h-31q-62 0 -96 65q-28 53 -28 121v125q0 54 -7 77q-14 46 -55 47q-62 2 -62 -124zM163 249q-29 1 -47 -34
q-15 -28 -15 -60q0 -34 14 -60q17 -32 48 -33q20 -1 38 22q15 18 20 41q4 16 4 30q1 32 -15 60q-18 33 -47 34z" />
    <glyph glyph-name="uni0BB9.ha" unicode="&#xbb9;" horiz-adv-x="1170" 
d="M414 61h153v281q0 63 46 108.5t109 46.5q74 1 123 -66q48 66 126 66q63 0 109 -46t46 -109v-218q0 -106 -71 -177t-177 -71h-653q-44 0 -81 -24q-43 -27 -43 -69v-32h-62v32q0 68 61 113q55 42 125 42h653q78 0 132 54t54 132v218q0 36 -28.5 64t-64.5 29
q-37 1 -65 -27.5t-28 -65.5v-342h-62v342q0 36 -29 64t-65 29t-64.5 -28t-28.5 -65v-342h-311v62q28 0 47 34q16 28 16 59v94q0 69 -28 121q-34 64 -97 65q-68 1 -114 -60q-41 -56 -41 -126q0 25 18.5 43.5t43.5 18.5q53 1 90 -53q33 -47 34 -103t-33 -103q-36 -51 -91 -52
t-91 51q-33 47 -33 104v94q0 96 60 169q63 78 157 79q84 1 140 -85q47 -72 47 -163v-94q0 -52 -29 -94zM163 249q-29 1 -47 -34q-15 -28 -15 -60q0 -34 14 -60q17 -32 48 -33q20 -1 38 22q15 18 20 41q4 16 4 30q1 32 -15 60q-18 33 -47 34z" />
    <glyph glyph-name="uni0BBE.aa" unicode="&#xbbe;" horiz-adv-x="501" 
d="M338 0h-62v435h-156v-435h-62v497h404v-62h-124v-435z" />
    <glyph glyph-name="uni0BBF.i" unicode="&#xbbf;" horiz-adv-x="141" 
d="M26 559q0 44 -24 82q-27 42 -69 42h-62q-18 0 -35 -7.5t-29.5 -20.5t-20.5 -30t-8 -35v-3q0 -34 28 -62q30 -28 65 -28h39v-62h-39q-64 0 -109 45q-46 45 -47 110v4q0 59 46 105q47 47 110 47h62q68 0 113 -61q42 -56 42 -126v-559h-62v559z" />
    <glyph glyph-name="uni0BC0.ii" unicode="&#xbc0;" horiz-adv-x="62" 
d="M-239 635q-8 -27 -10 -45q0 -38 28 -65t66 -28h55v-62h-55q-65 0 -110 45t-46 110q-1 55 34 103q38 53 91 53h93q37 0 64.5 -28.5t28.5 -65.5t-27.5 -65t-65.5 -28h-31q-81 0 -115 76zM-186 683q0 -24 19 -43t43 -19h31q10 0 21 10q7 8 10 21q0 24 -31 31h-93z" />
    <glyph glyph-name="uni0BC1.u" unicode="&#xbc1;" horiz-adv-x="674" 
d="M29 497h621v-62q0 -93 -45 -165q-53 -83 -141 -84q-86 -1 -139 85q-45 73 -47 164h-249v62zM464 249q63 -1 97 64q27 52 27 122h-248q0 -70 27 -121q33 -64 97 -65z" />
    <glyph glyph-name="uni0BC2.uu" unicode="&#xbc2;" horiz-adv-x="801" 
d="M163 330q25 -92 99.5 -148.5t170.5 -57.5q122 -1 203 96q77 91 77 215v62q0 80 -53.5 133t-133.5 53q-79 0 -132.5 -54t-53.5 -132h248v-62q0 -72 -41 -126q-44 -60 -114 -60q-68 0 -113 61q-42 55 -42 125h-249v62h249q0 106 71 177t177 72q105 1 177 -71.5t72 -177.5
v-62q0 -151 -94 -259q-99 -113 -248 -114q-116 -1 -204.5 64.5t-121.5 176.5zM340 435q0 -44 24 -81q27 -42 69 -43t69 42q24 37 24 82h-186z" />
    <glyph glyph-name="uni0BC6.e" unicode="&#xbc6;" horiz-adv-x="777" 
d="M256 83q-30 45 -31 103q-1 70 42 126q45 60 114 61q68 1 113 -61q42 -56 42 -126q0 -78 -54 -132t-132 -54q-137 0 -229 120q-81 106 -82 253q-1 155 108.5 263.5t264.5 109.5q129 1 219.5 -90.5t90.5 -220.5v-435h-62v435q0 105 -71 176t-177 72q-131 1 -220.5 -89
t-90.5 -221q-1 -90 38 -167q42 -84 117 -123zM381 311q-43 1 -70 -42q-24 -37 -24 -83t24 -82q27 -41 70 -42q42 -1 69 42q24 37 24 82t-24 82q-27 42 -69 43z" />
    <glyph glyph-name="uni0BC7.ee" unicode="&#xbc7;" horiz-adv-x="636" 
d="M429 70q44 12 73 41q33 33 34 75q1 37 -27.5 65t-65.5 29q-38 1 -65.5 -27.5t-27.5 -66.5q0 -78 79 -116zM350 62q-63 48 -63 124q0 64 46 109.5t110 46.5q63 1 108.5 -45.5t46.5 -110.5q1 -81 -69 -136q-65 -50 -148 -50q-150 0 -248 113q-93 108 -94 260q-1 151 94 259
q99 113 248 114q83 1 147 -51q69 -55 70 -136q1 -63 -45 -108.5t-110 -46.5q-65 -1 -110 44.5t-46 110.5q-1 68 61 121q-109 -15 -179 -107q-67 -87 -68 -200q-1 -114 68 -202q70 -91 181 -109zM431 674q-35 -15 -57.5 -46.5t-23.5 -68.5t27.5 -64.5t65.5 -28.5t65 27.5
t28 65.5q1 76 -105 115z" />
    <glyph glyph-name="uni0BC8.ai" unicode="&#xbc8;" horiz-adv-x="872" 
d="M764 249q0 78 -54 132t-132 54q-39 0 -72 -16q72 -78 72 -170v-94q0 -56 -33 -103q-36 -51 -91 -52q-56 -2 -92 51q-33 47 -33 104v94q0 100 70 170q-44 16 -70 16h-31q-78 0 -132 -54q-27 -27 -40.5 -58.5t-13.5 -73.5q3 10 11 20.5t19 19t23.5 14t24.5 5.5q29 0 49 -15
t33 -37.5t19 -49.5t7 -51q2 -56 -33 -103q-36 -51 -91 -52t-91 51q-33 47 -33 104v94q0 106 71 177t177 71h31q64 0 125 -37q58 35 124 37q103 1 176 -72t73 -176v-63q0 -70 -42 -126q-45 -60 -114 -60l-20 62h20q42 0 69 43q24 38 24 81v63zM452 384q-60 -51 -60 -135v-94
q0 -34 14 -60q17 -31 48 -33q19 -1 38 22q16 21 20 41q4 16 4 30v94q0 80 -64 135zM174 249q-28 1 -47 -34q-15 -28 -15 -60q0 -34 14 -60q17 -31 48 -33q19 -1 38 22q16 19 20 41q4 15 4 30q2 32 -15 60q-18 32 -47 34z" />
    <glyph glyph-name="uni0BCA.o" unicode="&#xbca;" horiz-adv-x="1886" 
d="M283 62q-11 11 -20.5 26.5t-16.5 33t-11 35.5t-4 35q0 39 11.5 72.5t32 57.5t49.5 37.5t64 13.5q37 0 65.5 -17t48 -44t30 -60.5t10.5 -65.5q0 -39 -12.5 -73t-35.5 -59t-56 -39.5t-74 -14.5q-71 0 -127 30.5t-94.5 80.5t-58.5 114t-20 132q0 87 32 158.5t85.5 122.5
t123 79.5t143.5 28.5q65 0 117 -23t88 -63.5t55.5 -94.5t19.5 -115v-450h-62v450q0 54 -16 97t-45 73t-70 46.5t-91 16.5q-66 0 -123.5 -24t-100.5 -66t-68 -98.5t-25 -121.5q0 -45 6 -87t23 -80.5t47.5 -74.5t79.5 -69zM384 311q-23 -1 -40.5 -13.5t-28.5 -30.5t-16.5 -40
t-5.5 -41q0 -21 6 -43t18 -40t29.5 -29.5t40.5 -11.5q24 0 41.5 12t29 30.5t17 40.5t5.5 41q0 22 -6.5 44t-18.5 39.5t-30 29t-41 12.5zM1713 0h-62v435h-166v-435h-62v497h414v-62h-124v-435zM915 426q0 15 9.5 24.5t24.5 9.5q13 0 22.5 -9.5t9.5 -24.5t-9.5 -24t-22.5 -9
q-15 0 -24.5 9t-9.5 24zM845 329q0 15 9 24t24 9q14 0 23 -9t9 -24t-9 -24t-23 -9q-15 0 -24 9t-9 24zM832 218q0 15 9.5 24t23.5 9q15 0 24.5 -9t9.5 -24t-9.5 -24t-24.5 -9q-14 0 -23.5 9t-9.5 24zM878 115q0 15 9.5 24t22.5 9q15 0 24.5 -9t9.5 -24t-9.5 -24t-24.5 -9
q-13 0 -22.5 9t-9.5 24zM967 48q0 15 9.5 24t24.5 9q13 0 22.5 -9t9.5 -24t-9.5 -24t-22.5 -9q-15 0 -24.5 9t-9.5 24zM1080 35q0 14 9 23.5t24 9.5t24 -9.5t9 -23.5q0 -15 -9 -24.5t-24 -9.5t-24 9.5t-9 24.5zM1186 81q0 15 9 24.5t24 9.5t24 -9.5t9 -24.5q0 -14 -9 -23.5
t-24 -9.5t-24 9.5t-9 23.5zM1250 168q0 15 9.5 24t23.5 9t23.5 -9t9.5 -24t-9.5 -24t-23.5 -9t-23.5 9t-9.5 24zM1259 286q0 15 9.5 24t23.5 9q15 0 24.5 -9t9.5 -24t-9.5 -24t-24.5 -9q-14 0 -23.5 9t-9.5 24zM1215 392q0 12 9.5 22.5t23.5 10.5t23.5 -10.5t9.5 -22.5
q0 -15 -9.5 -24.5t-23.5 -9.5t-23.5 9.5t-9.5 24.5zM1131 450q0 15 9.5 24.5t24.5 9.5t24 -9.5t9 -24.5q0 -14 -9 -23.5t-24 -9.5t-24.5 9.5t-9.5 23.5zM1021 464q0 14 9 23.5t24 9.5q14 0 23 -9.5t9 -23.5q0 -15 -9 -24.5t-23 -9.5q-15 0 -24 9.5t-9 24.5z" />
    <glyph glyph-name="uni0BCB.oo" unicode="&#xbcb;" horiz-adv-x="1749" 
d="M455 70q20 4 39 14t34 25.5t24.5 35t9.5 42.5q0 20 -8 37t-21.5 29t-31 19t-35.5 8q-19 -1 -35.5 -9t-28.5 -21t-19 -29.5t-7 -34.5q0 -79 79 -116zM376 62q-63 48 -63 124q0 33 13 61.5t34.5 49.5t49.5 33t59 12q34 0 62.5 -13.5t49 -36t32 -51t11.5 -58.5
q0 -44 -18.5 -78t-49 -57t-69.5 -35.5t-80 -12.5q-77 0 -140 31.5t-108 83.5t-69.5 118.5t-24.5 137.5q0 75 26 143t72 119.5t108.5 82t135.5 30.5q46 0 85.5 -14.5t69 -40t46 -59.5t16.5 -73q0 -35 -13.5 -63.5t-36 -48.5t-51 -31.5t-57.5 -11.5q-34 0 -62 12.5t-48.5 33
t-31.5 48t-11 57.5q0 73 61 125q-57 -9 -102.5 -38.5t-78 -71.5t-49.5 -93t-17 -104q0 -59 19 -111.5t53 -94t79 -69t98 -36.5zM457 674q-35 -15 -57.5 -47t-23.5 -71q0 -19 8 -35t21.5 -28t30 -19t33.5 -7q19 0 36 8t30 21t20 30t7 35q0 38 -25.5 69.5t-79.5 43.5zM1606 0
h-62v435h-166v-435h-62v497h414v-62h-124v-435zM805 426q0 15 9.5 24.5t24.5 9.5q13 0 22.5 -9.5t9.5 -24.5t-9.5 -24t-22.5 -9q-15 0 -24.5 9t-9.5 24zM735 329q0 15 9 24t24 9q14 0 23 -9t9 -24t-9 -24t-23 -9q-15 0 -24 9t-9 24zM722 218q0 15 9.5 24t23.5 9
q15 0 24.5 -9t9.5 -24t-9.5 -24t-24.5 -9q-14 0 -23.5 9t-9.5 24zM768 115q0 15 9.5 24t22.5 9q15 0 24.5 -9t9.5 -24t-9.5 -24t-24.5 -9q-13 0 -22.5 9t-9.5 24zM857 48q0 15 9.5 24t24.5 9q13 0 22.5 -9t9.5 -24t-9.5 -24t-22.5 -9q-15 0 -24.5 9t-9.5 24zM970 35
q0 14 9 23.5t24 9.5t24 -9.5t9 -23.5q0 -15 -9 -24.5t-24 -9.5t-24 9.5t-9 24.5zM1076 81q0 15 9 24.5t24 9.5t24 -9.5t9 -24.5q0 -14 -9 -23.5t-24 -9.5t-24 9.5t-9 23.5zM1140 168q0 15 9.5 24t23.5 9t23.5 -9t9.5 -24t-9.5 -24t-23.5 -9t-23.5 9t-9.5 24zM1149 286
q0 15 9.5 24t23.5 9q15 0 24.5 -9t9.5 -24t-9.5 -24t-24.5 -9q-14 0 -23.5 9t-9.5 24zM1105 392q0 12 9.5 22.5t23.5 10.5t23.5 -10.5t9.5 -22.5q0 -15 -9.5 -24.5t-23.5 -9.5t-23.5 9.5t-9.5 24.5zM1021 450q0 15 9.5 24.5t24.5 9.5t24 -9.5t9 -24.5q0 -14 -9 -23.5
t-24 -9.5t-24.5 9.5t-9.5 23.5zM911 464q0 14 9 23.5t24 9.5q14 0 23 -9.5t9 -23.5q0 -15 -9 -24.5t-23 -9.5q-15 0 -24 9.5t-9 24.5z" />
    <glyph glyph-name="uni0BCC.au" unicode="&#xbcc;" horiz-adv-x="2157" 
d="M1634 435q-35 0 -63 -15t-47.5 -40t-29.5 -57t-10 -66q4 12 13 22t20.5 17t24 11t23.5 4q29 0 50.5 -12.5t36 -34t22 -50t7.5 -59.5q0 -34 -9.5 -62.5t-26.5 -49t-40 -32t-51 -11.5q-32 0 -56 14t-41 38.5t-25.5 58t-8.5 72.5v42q0 70 16 121t44.5 84.5t67 50t83.5 16.5
q19 0 39.5 -5.5t40 -16t36.5 -27t29 -38.5v87h372v-62h-93v-435h-62v435h-155v-435h-62v289q-6 27 -18.5 53t-30.5 46.5t-42 33.5t-54 13zM1552 249q-17 0 -29.5 -8.5t-21 -22t-13 -30t-4.5 -31.5q0 -17 4.5 -34t13 -30.5t21 -22t29.5 -8.5q18 0 30.5 8.5t20.5 22t12 30.5
t4 34q0 40 -18.5 66t-48.5 26zM283 62q-11 11 -20.5 26.5t-16.5 33t-11 35.5t-4 35q0 39 11.5 72.5t32 57.5t49.5 37.5t64 13.5q37 0 65.5 -17t48 -44t30 -60.5t10.5 -65.5q0 -39 -12.5 -73t-35.5 -59t-56 -39.5t-74 -14.5q-71 0 -127 30.5t-94.5 80.5t-58.5 114t-20 132
q0 87 32 158.5t85.5 122.5t123 79.5t143.5 28.5q65 0 117 -23t88 -63.5t55.5 -94.5t19.5 -115v-450h-62v450q0 54 -16 97t-45 73t-70 46.5t-91 16.5q-66 0 -123.5 -24t-100.5 -66t-68 -98.5t-25 -121.5q0 -45 6 -87t23 -80.5t47.5 -74.5t79.5 -69zM384 311
q-23 -1 -40.5 -13.5t-28.5 -30.5t-16.5 -40t-5.5 -41q0 -21 6 -43t18 -40t29.5 -29.5t40.5 -11.5q24 0 41.5 12t29 30.5t17 40.5t5.5 41q0 22 -6.5 44t-18.5 39.5t-30 29t-41 12.5zM906 426q0 15 9.5 24.5t24.5 9.5q13 0 22.5 -9.5t9.5 -24.5t-9.5 -24t-22.5 -9
q-15 0 -24.5 9t-9.5 24zM836 329q0 15 9 24t24 9q14 0 23 -9t9 -24t-9 -24t-23 -9q-15 0 -24 9t-9 24zM823 218q0 15 9.5 24t23.5 9q15 0 24.5 -9t9.5 -24t-9.5 -24t-24.5 -9q-14 0 -23.5 9t-9.5 24zM869 115q0 15 9.5 24t22.5 9q15 0 24.5 -9t9.5 -24t-9.5 -24t-24.5 -9
q-13 0 -22.5 9t-9.5 24zM958 48q0 15 9.5 24t24.5 9q13 0 22.5 -9t9.5 -24t-9.5 -24t-22.5 -9q-15 0 -24.5 9t-9.5 24zM1071 35q0 14 9 23.5t24 9.5t24 -9.5t9 -23.5q0 -15 -9 -24.5t-24 -9.5t-24 9.5t-9 24.5zM1177 81q0 15 9 24.5t24 9.5t24 -9.5t9 -24.5q0 -14 -9 -23.5
t-24 -9.5t-24 9.5t-9 23.5zM1241 168q0 15 9.5 24t23.5 9t23.5 -9t9.5 -24t-9.5 -24t-23.5 -9t-23.5 9t-9.5 24zM1250 286q0 15 9.5 24t23.5 9q15 0 24.5 -9t9.5 -24t-9.5 -24t-24.5 -9q-14 0 -23.5 9t-9.5 24zM1206 392q0 12 9.5 22.5t23.5 10.5t23.5 -10.5t9.5 -22.5
q0 -15 -9.5 -24.5t-23.5 -9.5t-23.5 9.5t-9.5 24.5zM1122 450q0 15 9.5 24.5t24.5 9.5t24 -9.5t9 -24.5q0 -14 -9 -23.5t-24 -9.5t-24.5 9.5t-9.5 23.5zM1012 464q0 14 9 23.5t24 9.5q14 0 23 -9.5t9 -23.5q0 -15 -9 -24.5t-23 -9.5q-15 0 -24 9.5t-9 24.5z" />
    <glyph glyph-name="uni0BCD.pulli" unicode="&#xbcd;" horiz-adv-x="51" 
d="M-286 750q24 1 42.5 -18.5t19.5 -43.5t-18.5 -42.5t-43.5 -19.5q-21 -1 -44 18q-18 18 -18 44q0 25 18.5 43t43.5 19z" />
    <glyph glyph-name="uni0BD0.om" unicode="&#xbd0;" horiz-adv-x="837" 
d="M782 258q0 -74 -30 -119q-15 -23 -38.5 -36t-54.5 -13q-57 0 -84 35t-27 87q0 24 7 44t19 36q24 32 52 42l29 -52q-29 -17 -37 -38t-8 -32q0 -7 1.5 -18.5t7.5 -22.5q5 -12 15.5 -20t28.5 -8q15 0 26 10.5t18 27.5t10 38t3 44q0 57 -22.5 104t-62.5 82t-94 54t-118 19
q-54 0 -101 -10t-87 -34t-70 -63t-48 -96q11 15 23 22.5t23 11.5t18.5 4.5t10.5 0.5q48 0 71.5 -36t23.5 -93q0 -63 -32 -101q-33 -39 -84 -39q-28 0 -49.5 14t-36.5 37t-22.5 51.5t-7.5 57.5q0 81 30 143t81 105q51 42 117.5 64.5t139.5 22.5q64 0 128 -21t116 -63
q51 -42 83 -102.5t32 -139.5zM392 306q0 10 11.5 22t22.5 12t23 -12t12 -22t-12 -21.5t-23 -11.5t-22.5 11.5t-11.5 21.5zM227 221q0 13 -2.5 27.5t-8.5 26.5t-17 19.5t-28 7.5t-35.5 -18.5t-18.5 -57.5q0 -30 16 -56q8 -12 18.5 -19.5t24.5 -7.5q13 0 22.5 8t16.5 20
q6 12 9 25.5t3 24.5zM334 89v160h42v-125h35v76q0 29 13.5 40t30.5 11q29 0 48.5 -20t19.5 -52v-90h-189zM448 195v-71h36v57q0 17 -6.5 26t-14.5 9q-11 0 -13 -7.5t-2 -13.5zM630 90h93v-62h-76q-41 0 -60 -26q-10 -12 -14 -27t-4 -31q0 -48 -17 -81t-43 -53
q-27 -20 -58.5 -29t-60.5 -9q-33 0 -63 8.5t-52 25.5t-35 40t-13 54q0 45 28.5 72.5t73.5 27.5q42 0 63.5 -27t21.5 -64q0 -26 -10.5 -45.5t-24.5 -33.5q28 0 52 10.5t41 29.5q35 38 35 93q0 30 10 53.5t27 40.5t39 25t47 8zM358 -94q0 17 -8.5 30.5t-26.5 13.5
q-14 0 -25 -11t-11 -29q0 -42 37 -61q16 7 25 23t9 34z" />
    <glyph glyph-name="uni0BD7.aumark" unicode="&#xbd7;" horiz-adv-x="757" 
d="M350 249q0 69 -28 121q-34 65 -97 65t-96 -65q-26 -50 -28 -121q0 25 18.5 43.5t43.5 18.5q53 1 90 -53q33 -47 34 -103t-33 -103q-36 -51 -91 -52t-91 51q-33 47 -33 104v94q0 92 46 164q53 83 140 84q77 1 125 -87v87h372v-62h-93v-435h-62v435h-155v-435h-62v249z
M163 249q-29 1 -47 -34q-15 -28 -15 -60q0 -34 14 -60q17 -32 48 -33q20 -1 38 22q15 18 20 41q4 16 4 30q1 32 -15 60q-18 33 -47 34z" />
    <glyph glyph-name="uni0BE6.0" unicode="&#xbe6;" horiz-adv-x="466" 
d="M26 214q2 35 11 68.5t31 62.5q32 43 71.5 64.5t80 24.5t79.5 -11.5t70 -43.5t50.5 -70.5t21.5 -92.5q2 -50 -16 -93t-51 -73t-76.5 -45t-92.5 -10q-38 5 -70 23q-54 34 -79 84t-30 112zM69 216q2 -36 12.5 -69t35.5 -60q41 -44 90 -50.5t91.5 14.5t71 64t28.5 99
q0 46 -21 85.5t-55 63t-77.5 28t-86.5 -19.5q-46 -25 -66 -69t-23 -93v7z" />
    <glyph glyph-name="uni0BE7.1" unicode="&#xbe7;" horiz-adv-x="586" 
d="M430 -4q-56 3 -105 62q-47 -62 -115 -62t-118 42q-53 44 -53 111q0 61 25 86.5t86 29.5v161h342v-43h-134v-117h44q149 0 150 -121q0 -60 -30 -103q-34 -49 -92 -46zM315 383h-122v-117h122v117zM402 223h-44v-42q0 -34 -12 -78q12 -23 37 -43t49 -21q39 -2 60 35
q17 29 17 71q0 78 -107 78zM315 223h-144q-47 0 -66 -13q-22 -16 -23 -61q-1 -50 40 -81q37 -29 88 -29q54 0 82 46q23 38 23 96v42z" />
    <glyph glyph-name="uni0BE8.2" unicode="&#xbe8;" horiz-adv-x="562" 
d="M137 4q-92 0 -96 62q-2 34 32 53q28 16 64 16h69q66 0 112.5 40.5t44.5 105.5q-2 61 -44 101t-103 40q-14 0 -61 -10q90 -26 91 -116q1 -59 -29.5 -94t-88.5 -35q-42 0 -74 45q-30 41 -30 84q0 75 60 123q55 45 132 45q81 0 134.5 -51.5t55.5 -131.5q2 -83 -57 -136
t-143 -53h-69q-53 0 -53 -24q0 -21 37 -21h421v-43h-405zM87 359q-21 -27 -21 -63q0 -31 21 -58.5t51 -28.5q33 -1 50 28q15 24 15 59q0 72 -71 72q-19 0 -45 -9z" />
    <glyph glyph-name="uni0BE9.3" unicode="&#xbe9;" horiz-adv-x="565" 
d="M313 4v43h-1q120 59 120 127q0 32 -17.5 53.5t-48.5 21.5q-72 0 -93 -94v-151h-43v380h-136v-380h-43v423h386v-43h-164v-133q39 41 93 41q49 0 79 -34t30 -84q0 -68 -77 -127h137q-1 2 -1 -43h-221z" />
    <glyph glyph-name="uni0BEA.4" unicode="&#xbea;" horiz-adv-x="503" 
d="M418 424l46 -2v-200h-131v-60q0 -166 -132 -166q-42 0 -85 24q-81 45 -80 142q1 87 88 103v162h233v-43h-24v-118h85q-1 44 0 158zM290 384h-123v-118h123v118zM290 223h-144q-62 0 -68 -61q0 -74 61 -106q32 -17 64 -17q54 0 75 44q12 25 12 79v61z" />
    <glyph glyph-name="uni0BEB.5" unicode="&#xbeb;" horiz-adv-x="738" 
d="M706 276q0 -2 -40 -4q-22 158 -66 228q-92 147 -244 142q-151 -5 -226 -155q-59 -118 -54 -259q5 -143 65 -258q76 -145 203 -146q124 -1 194.5 72t74.5 197q2 48 -20 83q-25 40 -71 40q-24 0 -49 -31t-25 -56v-125h-43v381h-119v-381h-43v424h347v-43h-142v-166
q36 40 74 40q66 0 102 -52q32 -45 32 -114q0 -144 -84 -228t-228 -84q-148 0 -236 158q-72 129 -74 290q-4 290 168 406q71 48 154 49q174 2 269 -142q44 -67 66 -163q4 -18 15 -103z" />
    <glyph glyph-name="uni0BEC.6" unicode="&#xbec;" horiz-adv-x="790" 
d="M602 251q45 0 74 -34t29 -80q0 -39 -24 -69q-1 -2 -35 -33h115v-35h-168v51q64 41 64 84q0 76 -62 76q-39 0 -63.5 -24.5t-24.5 -63.5v-123h-44v107q-6 63 -21 85q-21 31 -77 31h-24v-42q0 -115 -71 -161q-37 -24 -77 -24q-68 0 -118 42q-53 44 -53 111q0 61 25 86.5
t86 29.5v161h342v-43h-134v-117h24q49 0 84.5 -27t35.5 -74q23 86 117 86zM298 383h-122v-117h122v117zM298 223h-144q-47 0 -66 -13q-22 -16 -23 -61q-1 -50 40 -81q37 -29 88 -29q76 0 98 76q7 24 7 66v42z" />
    <glyph glyph-name="uni0BED.7" unicode="&#xbed;" horiz-adv-x="608" 
d="M534 384v-382h-43v382h-215q-84 0 -138 -48t-55 -131q0 -33 20 -96v41q0 52 30.5 90t81.5 38q60 0 95 -41.5t36 -102.5q1 -55 -37 -97.5t-93 -40.5l-23 1q-74 10 -115 73q-37 56 -37 135q0 102 66 162t169 60h286v-43h-28zM215 235q-32 0 -50.5 -26t-18.5 -59
q0 -38 16 -64q13 -21 47 -47h6q38 0 62.5 28t25.5 67q1 42 -23 71.5t-65 29.5z" />
    <glyph glyph-name="uni0BEE.8" unicode="&#xbee;" horiz-adv-x="866" 
d="M778 -65v211h-72q-39 -96 -134 -149q-87 -49 -196 -50q-85 -1 -196 39q-136 49 -136 120q0 37 36 61q32 22 71 22h523q9 33 9 67q0 80 -38 135q-42 61 -118 71q-15 2 -54 0q94 -43 95 -126q1 -54 -35 -91.5t-90 -38.5q-61 -1 -94 41q-30 38 -31 100q-1 69 63 116
q57 43 129 44q104 2 168 -89q47 -67 48 -162q0 -31 -7 -67h59v301h43v-555h-43zM404 429q-42 -38 -43 -82q-1 -41 20.5 -69t61.5 -29q37 -1 59 24t23 63q2 88 -121 93zM151 146q-64 0 -64 -40q0 -53 102 -87q84 -28 187 -29q89 -1 164 39q79 41 118 117h-507z" />
    <glyph glyph-name="uni0BEF.9" unicode="&#xbef;" horiz-adv-x="774" 
d="M653 4l-8 40q60 30 60 105q0 49 -36.5 82t-86.5 36q-25 1 -67 -15q103 -37 104 -119q1 -55 -26 -93q-30 -44 -83 -44q-44 0 -77 48q-31 43 -31 89q0 43 25 90h-69v-42q0 -74 -36 -126q-41 -59 -112 -59q-70 0 -117 38q-51 40 -51 108q0 107 108 123v161h342v-43h-134
v-117h44q37 0 57 -2q57 50 126 46q68 -4 115 -49t48 -112q1 -51 -31 -101q-17 -19 -64 -44zM476 218q-31 -37 -31 -85q0 -33 16 -61q18 -33 49 -33q66 0 66 94q0 69 -100 85zM315 383h-122v-117h122v117zM315 223h-144q-38 0 -61.5 -22t-24.5 -59q-1 -49 39 -78
q35 -25 86 -25q54 0 82 46q23 38 23 96v42z" />
    <glyph glyph-name="uni0BF0.10" unicode="&#xbf0;" horiz-adv-x="645" 
d="M624 223q3 -91 -41 -159q-50 -77 -138 -77q-80 0 -126 56q-48 -62 -119 -59q-74 3 -124 69q-46 61 -49 138q-3 70 30.5 139t92.5 104l21 -34q-5 -4 -16 -12q-93 -76 -88 -195q3 -63 37 -112q39 -55 98 -57q56 -2 94 56q-23 44 -37 119l39 10q24 -182 147 -182
q69 0 106 58q32 49 32 121t-33 126q-40 62 -108 62q-20 0 -33 -4q-8 -1 -13 -4l-18 36q24 12 61 12q79 0 133 -67q49 -62 52 -144z" />
    <glyph glyph-name="uni0BF1.100" unicode="&#xbf1;" horiz-adv-x="666" 
d="M635 384h-125v-380h-43v380h-113q-55 0 -73 -96v-284h-43v255q0 133 -60 133q-43 0 -63 -48q-15 -35 -15 -85v-255h-43v255q0 63 29 114q34 62 92 62q51 0 84 -75q34 67 92 67h281v-43z" />
    <glyph glyph-name="uni0BF2.1000" unicode="&#xbf2;" horiz-adv-x="681" 
d="M661 22q-3 -68 -66 -107q-50 -31 -125 -39q-64 -7 -89 -22q-38 -22 -38 -78h-41q2 70 48 101q34 23 113 33q153 20 153 115q0 46 -14 63t-59 19v-35q0 -100 -97 -102q-32 -1 -64 20q-43 28 -42 76q1 47 36 64q25 12 77 12h48v81h-160v-42q0 -115 -71 -161
q-37 -24 -77 -24q-68 0 -118 42q-53 44 -53 111q0 61 25 86.5t86 29.5v161h342v-43h-134v-117h279v-42h-78v-81q66 -1 94 -28.5t25 -92.5zM298 266v117h-122v-117h122zM500 76v28h-45q-49 0 -60 -4q-19 -7 -18 -36q1 -27 22 -44.5t48 -17.5q53 1 53 74zM298 181v42h-144
q-47 0 -66 -13q-22 -16 -23 -61q-1 -50 40 -81q37 -29 88 -29q76 0 98 76q7 24 7 66z" />
    <glyph glyph-name="uni0BF3.day" unicode="&#xbf3;" horiz-adv-x="780" 
d="M243 227q-26 0 -43 -12t-28 -34q-6 -11 -8.5 -27.5t-2.5 -33t3 -30.5t8 -21q7 -10 20.5 -12t21.5 -2q17 0 33 7.5t29 20t20.5 28.5t6.5 34q0 14 -3.5 28.5t-11 26.5t-19 19.5t-26.5 7.5zM364 0l-13 55q29 17 50 33t33 33q27 38 27 90q0 73 -58 122q-52 48 -130 48
q-72 0 -123 -54q-50 -56 -50 -129q0 -7 1 -17t3 -20t5 -19t8 -15q0 29 6 55.5t17 45.5q37 61 103 61q27 0 49.5 -13t38 -33t24.5 -45.5t9 -51.5v-11q-3 -57 -47 -98t-102 -41q-80 0 -131 63q-45 57 -45 139q0 51 16.5 93.5t51.5 77.5q69 73 166 73q103 0 173 -64v1
q76 -67 76 -168q0 -83 -56 -148h288v-63h-390z" />
    <glyph glyph-name="uni0BF4.month" unicode="&#xbf4;" horiz-adv-x="615" 
d="M366 478q7 -8 15.5 -15.5t17.5 -13.5q-15 11 -23 24t-11 33q-2 16 2 40t15 49q-26 -15 -32.5 -33.5t-6.5 -31.5q0 -23 24 -53zM649 680q0 17 -13.5 34.5t-39.5 19.5q-6 -13 -8 -22t-2 -15.5t2 -13t3 -14.5q4 -19 31 -19q11 0 19 9t8 21zM498 530q0 11 -2 22.5t-8 21
t-17 17t-28 9.5q-9 -19 -13.5 -36t-4.5 -25q0 -21 7.5 -38t27.5 -17q15 0 26.5 15t11.5 31zM400 381q-29 0 -48 -20t-19 -49v-250h182q8 48 12.5 86.5t4.5 70.5q0 67 -33 113q-37 49 -99 49zM37 0v431h61v-369h173v246q0 76 61 113q-50 47 -50 105q0 60 38 95
q17 16 36.5 23.5t47.5 9.5q12 28 30 50.5t38.5 39t42.5 25.5t43 10l40 79l49 -16q-7 -17 -13 -31q-5 -12 -9.5 -21.5t-4.5 -10.5q38 -8 60 -35t22 -68q0 -36 -22.5 -59t-58.5 -24q-31 0 -54.5 18t-29.5 48v-1q-4 12 -2 34t7 36q-29 -5 -48.5 -27t-30.5 -50q36 -9 56 -28
q39 -33 39 -97q0 -42 -25 -68.5t-65 -30.5q44 -16 78 -63q46 -61 46 -149q0 -83 -24 -215h-531z" />
    <glyph glyph-name="uni0BF5.year" unicode="&#xbf5;" horiz-adv-x="1332" 
d="M290 207q-26 3 -41.5 -11.5t-22.5 -35t-8 -42.5t2 -35q5 -3 13 -7.5t17 -8.5t18 -7t16 -3q33 0 49 24q8 11 11.5 25t3.5 31q0 28 -14.5 49t-40.5 21h-3zM523 -231q-104 0 -197 26t-163 79.5t-111 136t-41 195.5q0 88 27 153t72.5 111.5t105 76.5t126 47.5t134.5 24
t130 6.5q100 0 194.5 -26t168 -77t119.5 -126.5t48 -174.5v-40q0 -22 5.5 -37.5t14 -24.5t18 -13t16.5 -4q12 1 21 7.5t15 22t9 42t3 67.5v35h60v-34q0 -36 -3.5 -72t-15 -64.5t-34 -46.5t-60.5 -18q-20 0 -40 9.5t-35.5 28t-25 45.5t-9.5 61v33q0 58 -28 119.5t-86 111.5
t-146.5 82.5t-208.5 32.5q-125 0 -213 -20t-147.5 -52t-94 -72t-52 -79.5t-22.5 -75t-5 -59.5q0 -93 36.5 -163.5t98.5 -117.5t143.5 -71t172.5 -24q44 0 93 5t97.5 16t92.5 29t78 44.5t54 62.5t20 83q0 20 -2 41.5t-8 39t-16.5 29t-27.5 11.5q-31 0 -52.5 -28t-32.5 -71
v-92h-62v373h-131v-373h-203l-8 48q18 26 26 71.5t8 90.5q0 33 -7.5 64t-22.5 54.5t-37.5 37.5t-51.5 15q-81 2 -125 -46t-44 -129q0 -4 1.5 -14.5t3.5 -22t5.5 -22.5t7.5 -17q-2 66 29 101.5t85 36.5q53 0 85 -41q31 -38 31 -90q0 -61 -30 -99q-36 -42 -95 -42
q-80 0 -133 68q-50 65 -50 142q0 54 15.5 98t45 74.5t72 47t96.5 16.5q28 0 60.5 -9.5t60 -35t46 -70.5t18.5 -116q0 -35 -7 -73t-27 -76h81v373h381v-62h-125l1 -179q17 28 37.5 42.5t47.5 15.5h2q34 0 57.5 -18.5t38.5 -46.5t21.5 -59.5t6.5 -57.5q0 -80 -41 -137
t-110.5 -93.5t-161.5 -53.5t-194 -17z" />
    <glyph glyph-name="uni0BF6.debit" unicode="&#xbf6;" horiz-adv-x="646" 
d="M421 -111h-320q-51 0 -51 -30q0 -22 21 -36.5t52 -23.5t66.5 -12.5t63.5 -3.5q31 0 61 5.5t54 17.5t38.5 32.5t14.5 50.5zM100 447v-386h321v386h60v-498h73v498h63v-558h-136q0 -46 -19 -77.5t-51.5 -51t-74.5 -28t-87 -8.5q-55 0 -104 9.5t-86 28t-59 46t-22 62.5
q0 21 9 35.5t22.5 24.5t28 14.5t26.5 4.5h357v51h-382v447h61z" />
    <glyph glyph-name="uni0BF7.credit" unicode="&#xbf7;" horiz-adv-x="966" 
d="M288 385q-38 1 -72.5 -9.5t-60 -31.5t-40 -51t-13.5 -69q3 10 11 20.5t19 19t23.5 14t24.5 5.5q29 0 49 -13t33 -33t19 -45t7 -49q1 -26 -8 -51.5t-25.5 -45.5t-39.5 -32.5t-51 -13.5t-51 11.5t-39.5 33t-25 46.5t-8.5 52v81q0 52 19 94t52 71t78.5 44.5t98.5 13.5h282
v-62h-124v-101q36 26 80 27q34 0 62 -16q29 16 62 16h22q62 0 109 -47t47 -109q-2 -38 -10 -56t-26 -38h133v-61h-222v61q12 0 23 6.5t20 16.5t14 20.5t5 18.5v32q0 52 -46 80q0 1 -47 14h-22q31 -37 31 -94v-62q0 -18 -7.5 -35t-20.5 -29.5t-30 -20.5t-35 -8q-37 -1 -65 27
t-28 66v62q0 57 31 94q-21 4 -39 -0.5t-41 -26.5v-222h-62v385h-96zM164 224q-13 1 -24.5 -7t-20 -20.5t-13 -27t-4.5 -26.5q0 -30 14.5 -54.5t47.5 -26.5q15 -1 26.5 7t19.5 20.5t12 27t4 26.5q1 13 -4 27t-13.5 25.5t-20 19.5t-24.5 9zM588 221q-31 -25 -31 -66v-62
q0 -11 10 -21q7 -7 21 -10q24 0 31 31v62q0 36 -31 66z" />
    <glyph glyph-name="uni0BF8.asabove" unicode="&#xbf8;" horiz-adv-x="1203" 
d="M1112 98q0 31 -35 41l-17 -78q50 3 52 35v2zM660 140q3 23 6 52t4 64h-1q-12 0 -25.5 -3.5t-30.5 -10.5h1q-16 -8 -28 -22t-20 -29.5t-12 -30.5t-4 -25q0 -29 15 -54q15 -28 39 -28q26 0 37.5 23t18.5 65v-1zM1011 386q-106 0 -106 -104q0 -36 44 -57h-1q36 -19 82 -19
l23 107q2 5 2 9v9q0 19 -13.5 37t-30.5 18zM357 297h-4q-5 1 -9.5 1.5t-10.5 1.5q-37 -2 -63 -28q-27 -27 -30 -67q-1 -7 -1 -13v-10q0 -33 15.5 -62t44.5 -55q53 5 87.5 37.5t35.5 83.5q0 12 -4 29q-15 67 -63 82h2zM1172 96q0 -90 -125 -96l-51 -243h-63l52 243h-249
l-13 54q60 31 61 97v4q0 39 -32 68q-3 3 -6.5 5t-7.5 5q-1 -29 -4 -53t-8 -42q-2 -29 -11.5 -55t-22.5 -44q-32 -47 -88 -47q-49 0 -83 51q-32 46 -32 92t25 92q5 5 8.5 10.5t6.5 10.5v-1q3 7 7 12.5t11 10.5q26 23 56 35t63 12h3q-3 63 -16.5 129t-43.5 120.5t-79 89.5
t-123 37h-8q-77 0 -134 -32t-95 -83t-57 -115t-19 -128q0 -38 6.5 -74.5t19.5 -68t33 -57.5t46 -44q-20 46 -20 101v17q3 61 50 105q50 47 108 48q16 0 34 -5q84 -24 107 -130q5 -23 5 -40q0 -83 -57 -134q-55 -47 -140 -49h-3q-61 0 -107 26.5t-77 71.5t-47 103.5
t-16 122.5q0 75 23 151t69.5 137.5t117.5 100.5t167 41h7q61 0 108 -20t82 -54t59.5 -79.5t39.5 -96.5t22.5 -104t8.5 -103q29 -12 54 -35q50 -46 51 -115v-4q0 -21 -6.5 -43t-17.5 -43h176l19 84q-60 0 -110 32v-1q-62 38 -62 100q0 171 167 171q43 0 74 -32q32 -32 32 -74
q0 -8 -0.5 -13.5t-1.5 -10.5l-24 -117q81 -20 81 -104z" />
    <glyph glyph-name="uni0BF9.rupee" unicode="&#xbf9;" horiz-adv-x="676" 
d="M556 576q0 53 -61 90q-66 -40 -66 -90q0 -32 17 -56q17 -26 45 -26h2q63 0 63 82zM491 433q-58 0 -91 45q-31 42 -32 98v2q0 62 59 114h-6q-15 0 -33 -3l-32 -3h3q-65 -18 -115.5 -57.5t-85.5 -98t-53 -135t-18 -168.5q0 -68 16.5 -129t45.5 -116q71 -137 189 -138h5
q57 0 101 17.5t76 50.5q66 66 69 184v7q0 20 -3.5 37t-13.5 31q-24 35 -61 35q-18 0 -40 -27q-12 -14 -17 -25.5t-5 -22.5v-131h-62v357h-96v-357h-61v419h357v-62h-138v-115q28 25 62 25q71 0 107 -54q16 -23 24.5 -52.5t8.5 -64.5q0 -144 -85 -228q-84 -85 -228 -85
q-148 0 -239 159q-35 63 -53.5 134.5t-18.5 151.5q0 108 23 197.5t65.5 156t103 109t135.5 57.5h13q44 0 83 -3.5t75 -25.5q93 -54 93 -143q0 -143 -124 -143h-3z" />
    <glyph glyph-name="uni0BFA.number" unicode="&#xbfa;" horiz-adv-x="967" 
d="M311 3l1 65q29 14 46 28.5t26.5 28.5t12.5 28.5t3 28.5q0 25 -13 41.5t-36 16.5q-29 0 -47 -17t-29 -44v-179h-69v370h-103v-370h-70v440h339q-26 44 -25 82.5t21 66.5t54.5 44t76.5 15q31 -1 59 -16.5t52 -41t44 -59t35 -71.5q59 -12 98 -56t53.5 -103t0 -123.5
t-62.5 -116.5h170v-61h-257v31v20.5t-1 9.5q52 43 71.5 94t17 98t-21.5 84t-45 50q12 -49 14.5 -95.5t-6.5 -82.5t-30.5 -58t-56.5 -22q-25 0 -46 11.5t-36.5 32t-26 48t-14.5 59.5q-3 27 3 55t20.5 52t37 42.5t53.5 26.5q-23 49 -55.5 84.5t-74.5 38.5q-58 4 -79.5 -30.5
t10.5 -108.5h40v-70l-190 -1v-97q33 38 76 38q54 0 86.5 -36.5t32.5 -91.5q0 -37 -15 -68t-38.5 -54t-51.5 -37.5t-54 -19.5zM571 287q5 -42 22.5 -61.5t31.5 -19.5q17 0 26.5 16.5t11.5 43t-2.5 60.5t-14.5 69q-38 -5 -59 -33.5t-16 -74.5z" />
    <glyph glyph-name="zerowidthspace" unicode="&#x200b;" horiz-adv-x="0" 
 />
    <glyph glyph-name="zerowidthnonjoiner" unicode="&#x200c;" horiz-adv-x="0" 
 />
    <glyph glyph-name="uni200D" unicode="&#x200d;" horiz-adv-x="0" 
 />
    <glyph glyph-name="hyphentwo" unicode="&#x2010;" horiz-adv-x="295" 
d="M254 286v-69h-214v69h214z" />
    <glyph glyph-name="nonbreakinghyphen" unicode="&#x2011;" horiz-adv-x="295" 
d="M254 286v-69h-214v69h214z" />
    <glyph glyph-name="figuredash" unicode="&#x2012;" horiz-adv-x="597" 
d="M27 221v69h548v-69h-548z" />
    <glyph glyph-name="endash" unicode="&#x2013;" horiz-adv-x="597" 
d="M27 221v69h548v-69h-548z" />
    <glyph glyph-name="emdash" unicode="&#x2014;" horiz-adv-x="1018" 
d="M15 221v69h986v-69h-986z" />
    <glyph glyph-name="horizontalbar" unicode="&#x2015;" horiz-adv-x="1018" 
d="M15 221v69h986v-69h-986z" />
    <glyph glyph-name="quoteleft" unicode="&#x2018;" horiz-adv-x="219" 
d="M155 588v-101h-93v79q0 67 15 94q19 35 64 58l22 -34q-51 -17 -54 -96h46z" />
    <glyph glyph-name="quoteright" unicode="&#x2019;" horiz-adv-x="219" 
d="M60 612v101h93v-79q0 -60 -14 -90q-18 -39 -66 -62l-21 34q50 19 53 96h-45z" />
    <glyph glyph-name="quotesinglbase" unicode="&#x201a;" horiz-adv-x="248" 
d="M165 98v-116q0 -46 -23 -76.5t-64 -39.5v43q26 9 34.5 26.5t8.5 46.5v18h-43v98h87z" />
    <glyph glyph-name="quoteleftreversed" unicode="&#x201b;" horiz-adv-x="219" 
d="M109 617q3 -79 54 -96l-22 -34q-45 23 -64 58q-15 27 -15 94v79h93v-101h-46z" />
    <glyph glyph-name="quotedblleft" unicode="&#x201c;" horiz-adv-x="328" 
d="M133 588v-101h-93v79q0 67 15 94q20 35 64 58l22 -34q-50 -17 -53 -96h45zM282 588v-101h-93v79q0 59 14 90q17 37 65 62l22 -34q-50 -17 -53 -96h45z" />
    <glyph glyph-name="quotedblright" unicode="&#x201d;" horiz-adv-x="328" 
d="M41 612v101h94v-79q0 -60 -14 -90q-18 -39 -66 -62l-20 34q50 19 52 96h-46zM191 612v101h93v-79q0 -59 -14 -90q-18 -39 -65 -62l-22 34q54 20 54 96h-46z" />
    <glyph glyph-name="quotedblbase" unicode="&#x201e;" horiz-adv-x="328" 
d="M41 0v101h94v-79q0 -60 -14 -90q-18 -39 -66 -62l-20 34q50 19 52 96h-46zM191 0v101h93v-79q0 -59 -14 -90q-18 -39 -65 -62l-22 34q54 20 54 96h-46z" />
    <glyph glyph-name="quotedblleftaltone" unicode="&#x201f;" horiz-adv-x="328" 
d="M88 617q3 -79 53 -96l-22 -34q-44 23 -64 58q-15 27 -15 94v79h93v-101h-45zM237 617q3 -79 53 -96l-22 -34q-48 25 -65 62q-14 31 -14 90v79h93v-101h-45z" />
    <glyph glyph-name="bullet" unicode="&#x2022;" horiz-adv-x="345" 
d="M52 346q0 51 36 86t87 35t86 -35t36 -86q1 -50 -35.5 -86t-86.5 -36q-52 0 -87.5 35t-35.5 87z" />
    <glyph glyph-name="uni20B9.rupee" unicode="&#x20b9;" horiz-adv-x="456" 
d="M352 -16l-63 -24l-251 258l26 42q30 1 64 8t63.5 20.5t51.5 35t28 51.5h-241l21 51h215q-9 22 -30.5 38t-49.5 26.5t-60 15.5t-62 5h-34l21 54h375l-21 -54h-137q24 -17 42 -38t26 -47h90l-21 -51h-65q-8 -64 -61 -104t-140 -53z" />
    <glyph glyph-name="uni25CC" unicode="&#x25cc;" horiz-adv-x="562" 
d="M117 506q0 15 9.5 24.5t24.5 9.5q13 0 22.5 -9.5t9.5 -24.5t-9.5 -24t-22.5 -9q-15 0 -24.5 9t-9.5 24zM47 409q0 15 9 24t24 9q14 0 23 -9t9 -24t-9 -24t-23 -9q-15 0 -24 9t-9 24zM34 298q0 15 9.5 24t23.5 9q15 0 24.5 -9t9.5 -24t-9.5 -24t-24.5 -9q-14 0 -23.5 9
t-9.5 24zM80 195q0 15 9.5 24t22.5 9q15 0 24.5 -9t9.5 -24t-9.5 -24t-24.5 -9q-13 0 -22.5 9t-9.5 24zM169 128q0 15 9.5 24t24.5 9q13 0 22.5 -9t9.5 -24t-9.5 -24t-22.5 -9q-15 0 -24.5 9t-9.5 24zM282 115q0 14 9 23.5t24 9.5t24 -9.5t9 -23.5q0 -15 -9 -24.5t-24 -9.5
t-24 9.5t-9 24.5zM388 161q0 15 9 24.5t24 9.5t24 -9.5t9 -24.5q0 -14 -9 -23.5t-24 -9.5t-24 9.5t-9 23.5zM452 248q0 15 9.5 24t23.5 9t23.5 -9t9.5 -24t-9.5 -24t-23.5 -9t-23.5 9t-9.5 24zM461 366q0 15 9.5 24t23.5 9q15 0 24.5 -9t9.5 -24t-9.5 -24t-24.5 -9
q-14 0 -23.5 9t-9.5 24zM417 472q0 12 9.5 22.5t23.5 10.5t23.5 -10.5t9.5 -22.5q0 -15 -9.5 -24.5t-23.5 -9.5t-23.5 9.5t-9.5 24.5zM333 530q0 15 9.5 24.5t24.5 9.5t24 -9.5t9 -24.5q0 -14 -9 -23.5t-24 -9.5t-24.5 9.5t-9.5 23.5zM223 544q0 14 9 23.5t24 9.5
q14 0 23 -9.5t9 -23.5q0 -15 -9 -24.5t-23 -9.5q-15 0 -24 9.5t-9 24.5z" />
    <glyph glyph-name="uni0B950BBF.ki" horiz-adv-x="811" 
d="M412 497q-30 42 -31 93q-1 64 45 110t110 46h62q68 0 113 -61q42 -56 42 -126v-559h-62v559q0 45 -24 82q-27 42 -69 42h-62q-38 0 -65 -27.5t-28 -65.5q-1 -37 27.5 -65t65.5 -28h31v-62h-155v-124h62q64 0 109 -45.5t46 -110.5q1 -63 -45 -108.5t-110 -46.5
q-66 -1 -109 47l43 42q27 -27 66 -27q37 0 64.5 28t28.5 65q1 36 -28 65t-65 29h-62v-63q0 -80 -53.5 -133t-133.5 -53q-78 0 -132 54t-54 132q0 52 36 88t88 37v186h249zM350 435h-125v-124h125v124zM225 62q51 -1 88 36t37 88v63h-187q-25 0 -43.5 -19t-18.5 -44
q-1 -51 36 -87t88 -37z" />
    <glyph glyph-name="uni0B950BC0.kii" horiz-adv-x="670" 
d="M408 89q27 -27 66 -27q37 0 64.5 28t28.5 65q1 36 -28 65t-65 29h-62v-63q0 -80 -53.5 -133t-133.5 -53q-78 0 -132 54t-54 132q0 52 36 88t88 37v186h218q-31 43 -31 93v31q0 51 36.5 88t87.5 37h62q36 0 64 -29t29 -65t-27.5 -64.5t-65.5 -28.5q-80 -1 -115 76
q-9 -27 -9 -45q0 -37 28 -65t65 -28h62v-62h-155v-124h62q64 0 109 -45.5t46 -110.5q1 -63 -45 -108.5t-110 -46.5q-66 -1 -109 47zM350 435h-125v-124h125v124zM225 62q51 -1 88 36t37 88v63h-187q-25 0 -43.5 -19t-18.5 -44q-1 -51 36 -87t88 -37zM474 683q0 -21 18 -44
q18 -18 44 -18q24 0 31 31q0 24 -31 31h-62z" />
    <glyph glyph-name="uni0B950BC1.ku" horiz-adv-x="820" 
d="M244 419q-66 -28 -105 -93.5t-39 -139.5q0 -130 90.5 -220t220.5 -90h31q120 0 199.5 79.5t79.5 199.5q0 37 -28 65.5t-65 28.5h-62v-63q0 -78 -54 -132t-132 -54q-79 0 -132.5 53t-54.5 133q-1 52 35.5 88t88.5 37v186h404v-62h-155v-124h62q65 0 110 -45.5t45 -110.5
q1 -144 -98 -242.5t-243 -98.5h-31q-157 0 -264.5 107.5t-108.5 264.5q-1 90 45 167.5t126 116.5zM504 435h-124v-124h124v124zM380 62q50 0 87 37t37 87v63h-187q-25 0 -43.5 -19t-18.5 -44q-1 -53 35.5 -88.5t89.5 -35.5z" />
    <glyph glyph-name="uni0B950BC2.kuu" horiz-adv-x="1097" 
d="M415 311h93q33 0 62 -16q30 16 62 16h62q63 0 109.5 -46.5t46.5 -109.5v-62q0 -24 -32 -31h249v-62h-342v31q24 0 43 19t19 43v62q0 52 -46 80q-1 1 -47 14h-62q31 -37 31 -94v-62q0 -37 -28 -64.5t-65 -28.5t-65 27.5t-28 65.5v62q0 57 31 94h-93v-63q0 -80 -53.5 -133
t-133.5 -53q-78 0 -132 54t-54 132q0 52 36 88t88 37v186h404v-62h-155v-124zM352 435h-124v-124h124v124zM228 62q50 -1 87 36.5t37 87.5v63h-186q-25 0 -43.5 -19t-18.5 -44q-1 -51 36 -87t88 -37zM570 221q-31 -26 -31 -66v-62q0 -10 10 -21q8 -7 21 -10q24 0 31 31v62
q0 36 -31 66z" />
    <glyph glyph-name="uni0B950BCD.k" horiz-adv-x="671" 
d="M411 89q27 -27 66 -27q37 0 64.5 28t28.5 65q1 36 -28 65t-65 29h-62v-63q0 -80 -53.5 -133t-133.5 -53q-78 0 -132 54t-54 132q0 52 36 88t88 37v186h404v-62h-155v-124h62q64 0 109 -45.5t46 -110.5q1 -63 -45 -108.5t-110 -46.5q-66 -1 -109 47zM352 435h-124v-124
h124v124zM228 62q50 -1 87 36.5t37 87.5v63h-186q-25 0 -43.5 -19t-18.5 -44q-1 -51 36 -87t88 -37zM384 750q24 1 42.5 -18.5t19.5 -43.5t-18.5 -42.5t-43.5 -19.5q-21 -1 -44 18q-18 18 -18 44q0 25 18.5 43t43.5 19z" />
    <glyph glyph-name="uni0B990BBF.ngi" horiz-adv-x="878" 
d="M608 62v373q-62 2 -105.5 47t-44.5 108t45.5 109.5t110.5 46.5h62q68 0 113 -61q42 -56 42 -126v-559h-62v559q0 45 -24 82q-27 42 -69 42h-62q-37 0 -64.5 -28t-28.5 -65t27.5 -65t65.5 -28h57v-497h-311v62q26 6 48.5 21.5t39.5 36.5t26.5 46.5t9.5 50.5q0 24 -19 43.5
t-43 19.5q-28 1 -51 -13.5t-39.5 -37.5t-25 -51t-8.5 -54v-124h-62v435h-125v-435h-62v497h373v-62h-124v-185q5 13 15.5 28.5t26 29.5t36.5 23.5t46 10.5q26 1 48.5 -9t39 -27.5t26 -40.5t10.5 -48t-8 -52t-23.5 -49t-32 -37t-34.5 -18h160v1z" />
    <glyph glyph-name="uni0B990BC0.ngii" horiz-adv-x="741" 
d="M620 62v373q-65 0 -110 44.5t-46 110.5q-1 55 34 103q38 53 91 53h93q37 0 64.5 -28.5t28.5 -65.5t-27.5 -65t-65.5 -28h-31q-81 0 -115 76q-8 -27 -10 -45q0 -38 28 -65.5t66 -27.5h63v-497h-311v62q26 6 48.5 21.5t39.5 36.5t26.5 46.5t9.5 50.5q0 24 -19 43.5
t-43 19.5q-28 1 -51 -13.5t-39.5 -37.5t-25 -51t-8.5 -54v-124h-62v435h-125v-435h-62v497h373v-62h-124v-185q5 13 15.5 28.5t26 29.5t36.5 23.5t46 10.5q26 1 48.5 -9t39 -27.5t26 -40.5t10.5 -48t-8 -52t-23.5 -49t-32 -37t-34.5 -18h160v1zM589 683q0 -24 19 -43t43 -19
h31q10 0 21 10q7 8 10 21q0 24 -31 31h-93z" />
    <glyph glyph-name="uni0B990BC1.ngu" horiz-adv-x="731" 
d="M626 0h-257v62q26 6 48.5 22t39.5 37t26.5 46.5t9.5 50.5q0 24 -19 43.5t-43 19.5q-28 1 -51 -13.5t-39.5 -37.5t-25 -51t-8.5 -54v-125h-62v436h-124v-436h-61v497h368v-61h-122l1 -185q5 13 15.5 28.5t26 29.5t36.5 23.5t46 10.5q26 1 48.5 -9t39 -27.5t26 -40.5
t10.5 -48t-8 -52t-23.5 -49.5t-32 -37.5t-34.5 -18h169v436h61v-680h-61v183z" />
    <glyph glyph-name="uni0B990BC2.nguu" horiz-adv-x="890" 
d="M402 -183q24 0 31 30q0 23 -31 31h-62q-23 0 -30 -31q0 -24 30 -30h62zM616 0h-262v62q26 6 48.5 21.5t39.5 36.5t26.5 46.5t9.5 50.5q0 24 -19 43.5t-43 19.5q-28 1 -51 -13.5t-39.5 -37.5t-25 -51t-8.5 -54v-124h-62v436h-124v-436h-62v497h368v-61h-120v-186
q5 13 15.5 28.5t26 29.5t36.5 23.5t46 10.5q26 1 48.5 -9t39 -27.5t26 -40.5t10.5 -48t-8 -52t-23.5 -49t-32 -37t-34.5 -18h174v436h62v-436q0 25 18 43t43 18q52 1 87.5 -34.5t35.5 -87.5q1 -111 -101 -182q-91 -64 -206 -64h-215q-37 0 -63.5 28t-27.5 65t26.5 64.5
t64.5 27.5h62q37 0 64 -27.5t28 -64.5q1 -24 -30 -30h91q91 0 162 45q82 52 83 138q0 24 -18.5 42t-42.5 19t-42.5 -18t-18.5 -43v-122h-62v122z" />
    <glyph glyph-name="uni0B990BCD.ng" horiz-adv-x="741" 
d="M248 0v435h-125v-435h-62v497h373v-62h-124v-185q5 13 15.5 28.5t26 29.5t36.5 23.5t46 10.5q26 1 48.5 -9t39 -27.5t26 -40.5t10.5 -48t-8 -52t-23.5 -49t-32 -37t-34.5 -18h160v436h63v-497h-311v62q26 6 48.5 21.5t39.5 36.5t26.5 46.5t9.5 50.5q0 24 -19 43.5
t-43 19.5q-28 1 -51 -13.5t-39.5 -37.5t-25 -51t-8.5 -54v-124h-62zM384 750q24 1 42.5 -18.5t19.5 -43.5t-18.5 -42.5t-43.5 -19.5q-21 -1 -44 18q-18 18 -18 44q0 25 18.5 43t43.5 19z" />
    <glyph glyph-name="uni0B9A0BBF.ci" horiz-adv-x="748" 
d="M412 497q-30 39 -31 93q-1 65 44.5 110t110.5 46q68 1 113 -61q42 -56 42 -126v-559h-62v559q0 45 -24 82q-27 42 -69 42q-38 0 -65 -27.5t-28 -65.5q-1 -37 27.5 -65t65.5 -28h31v-62h-155v-124h155v-62h-155v-63q0 -80 -53.5 -133t-133.5 -53q-78 0 -132 54t-54 132
q0 52 36 88t88 37v186h249zM225 62q51 -1 88 36t37 88v63h-187q-25 0 -43.5 -19t-18.5 -44q-1 -51 36 -87t88 -37zM350 311v124h-125v-124h125z" />
    <glyph glyph-name="uni0B9A0BC0.cii" horiz-adv-x="610" 
d="M381 497q-31 40 -31 93v31q0 51 36.5 88t87.5 37h62q36 0 64 -29t29 -65t-27.5 -64.5t-65.5 -28.5q-80 -1 -115 76q-9 -27 -9 -45q0 -37 28 -65t65 -28h62v-62h-155v-124h155v-62h-155v-63q0 -80 -53.5 -133t-133.5 -53q-78 0 -132 54t-54 132q0 52 36 88t88 37v186h218z
M225 62q51 -1 88 36t37 88v63h-187q-25 0 -43.5 -19t-18.5 -44q-1 -51 36 -87t88 -37zM350 311v124h-125v-124h125zM474 683q0 -21 18 -44q18 -18 44 -18q24 0 31 31q0 24 -31 31h-62z" />
    <glyph glyph-name="uni0B9A0BC1.cu" horiz-adv-x="723" 
d="M410 249v-62q0 -80 -53.5 -133t-133.5 -54t-133 53t-53 134q0 52 36 87t88 37v186h404v-62h-155v-124h279v-62h-93v-249h-62v249h-124zM223 62q51 -1 88 36.5t37 88.5v62h-187q-25 0 -43.5 -18.5t-18.5 -43.5q-1 -52 35.5 -88t88.5 -37zM348 311v124h-125v-124h125z" />
    <glyph glyph-name="uni0B9A0BC2.cuu" horiz-adv-x="884" 
d="M690 124q0 25 18.5 43.5t43.5 19.5q36 1 65 -28.5t29 -65.5v-31q0 -136 -104 -225q-100 -85 -238 -85h-62q-177 0 -293 131q-111 125 -111 304q0 88 46.5 166.5t124.5 116.5l35 -50q-66 -27 -106 -95q-38 -64 -38 -138q0 -151 94 -259q99 -114 248 -114h62q109 0 191 69
q88 72 88 179v31q0 24 -31 31q-24 0 -43 -19t-19 -43v-62h-62v249h-62v-62q0 -79 -53.5 -132.5t-132.5 -54.5t-132.5 53t-54.5 134q-1 52 35.5 87.5t88.5 36.5v186h404v-62h-155v-124h217v-62h-93v-125zM504 435h-124v-124h124v124zM380 62q51 -1 87.5 36.5t36.5 88.5v62
h-187q-25 0 -43.5 -18.5t-18.5 -43.5q-1 -51 36.5 -87.5t88.5 -37.5z" />
    <glyph glyph-name="uni0B9A0BCD.c" horiz-adv-x="609" 
d="M415 249v-63q0 -80 -53.5 -133t-133.5 -53q-78 0 -132 54t-54 132q0 52 36 88t88 37v186h404v-62h-155v-124h155v-62h-155zM228 62q50 -1 87 36.5t37 87.5v63h-186q-25 0 -43.5 -19t-18.5 -44q-1 -51 36 -87t88 -37zM352 311v124h-124v-124h124zM384 750q24 1 42.5 -18.5
t19.5 -43.5t-18.5 -42.5t-43.5 -19.5q-21 -1 -44 18q-18 18 -18 44q0 25 18.5 43t43.5 19z" />
    <glyph glyph-name="uni0B9E0BBF.nyi" horiz-adv-x="1040" 
d="M320 249q-20 1 -38 -22q-15 -19 -21 -41q-3 -11 -3 -30q0 -32 15 -60q18 -33 47 -34t47 34q15 28 16 60q1 30 -16 59q-19 33 -47 34zM941 569q0 45 -24 82q-27 42 -69 42h-62q-37 0 -64.5 -28t-28.5 -65t27.5 -64.5t65.5 -28.5v-72h-124v-248q0 51 36.5 87t87.5 37
q50 1 87.5 -36.5t37.5 -87.5v-62q0 -156 -108 -264t-265 -109q-206 -1 -349 128q-148 134 -148 338q0 117 77 200l45 -45q-60 -66 -60 -155q0 -179 130 -294q123 -109 305 -110q132 -1 221.5 89t89.5 222v62q0 25 -19 43.5t-44 18.5q-52 1 -88 -35.5t-36 -88.5v-125h-62v435
h-155q-79 0 -131 -51.5t-56 -130.5q2 24 20 41t42 17q54 1 91 -52q33 -46 34 -103t-33 -104q-36 -51 -92 -52q-55 -1 -91 52q-33 47 -33 104v93q0 106 71.5 177t177.5 71h225q-39 44 -40 103q-1 63 45.5 109.5t110.5 46.5h62q68 0 113 -61q42 -56 42 -126v-559h-62v559z" />
    <glyph glyph-name="uni0B9E0BC0.nyii" horiz-adv-x="950" 
d="M320 249q-20 1 -38 -22q-15 -19 -21 -41q-3 -11 -3 -30q0 -32 15 -60q18 -33 47 -34t47 34q15 28 16 60q1 30 -16 59q-19 33 -47 34zM702 636q-8 -27 -10 -45q0 -38 28 -65t66 -28v-63h-124v-248q0 51 36.5 87t87.5 37q50 1 87.5 -36.5t37.5 -87.5v-62q0 -156 -108 -264
t-265 -109q-206 -1 -349 128q-148 134 -148 338q0 117 77 200l45 -45q-60 -66 -60 -155q0 -179 130 -294q123 -109 305 -110q132 -1 221.5 89t89.5 222v62q0 25 -19 43.5t-44 18.5q-52 1 -88 -35.5t-36 -88.5v-125h-62v435h-155q-79 0 -131 -51.5t-56 -130.5q2 24 20 41
t42 17q54 1 91 -52q33 -46 34 -103t-33 -104q-36 -51 -92 -52q-55 -1 -91 52q-33 47 -33 104v93q0 106 71.5 177t177.5 71h217q-31 40 -32 94q-1 55 34 103q38 53 91 53h93q37 0 64.5 -28.5t28.5 -65.5t-27.5 -65t-65.5 -28h-31q-81 0 -115 76zM755 684q0 -24 19 -43t43 -19
h31q10 0 21 10q7 8 10 21q0 24 -31 31h-93z" />
    <glyph glyph-name="uni0B9E0BC1.nyu" horiz-adv-x="893" 
d="M503 0h-61v436h-153q-78 0 -131 -53q-50 -50 -53 -125q2 23 20 39.5t41 16.5h3q53 0 87 -51q32 -45 33 -102v-5q0 -52 -32 -98q-34 -49 -91 -51h-3q-52 0 -87 51q-33 47 -33 103v92q0 102 71 173q73 71 175 71h336v-61h-122v-232q14 43 49.5 72t76.5 30h4q89 0 89 -142
q0 -103 -32 -185h105v518h61v-579h-195q-45 -73 -119 -113.5t-176 -40.5h-168q-63 0 -108 46q-43 45 -45 108q0 21 18 44q19 17 44 17h513q17 34 27 77t10 98q0 50 -8 70t-24 22h-1q-30 0 -51.5 -15t-36 -37t-22.5 -46.5t-11 -44.5v-103zM125 -112q0 -24 18.5 -42.5
t42.5 -18.5h180q21 0 47.5 4t55 14.5t56.5 28t53 44.5h-422q-23 0 -31 -30zM164 253q-27 0 -44 -33q-13 -27 -15 -59v-5q0 -29 14 -54q18 -32 47 -34h2q25 0 44 34q14 27 16 59v4q0 25 -16 54q-19 33 -46 34h-2z" />
    <glyph glyph-name="uni0B9E0BC2.nyuu" horiz-adv-x="1168" 
d="M856 -82h-195q-45 -73 -119 -113.5t-176 -40.5h-168q-63 0 -108 46q-43 45 -45 108q0 21 18 44q19 17 44 17h513q17 34 27 77t10 98q0 50 -8 70t-24 22h-1q-30 0 -51.5 -15t-36 -37t-22.5 -46.5t-11 -44.5v-103h-61v436h-153q-78 0 -131 -53q-50 -50 -53 -125
q2 23 20 39.5t41 16.5h3q53 0 87 -51q32 -45 33 -102v-5q0 -52 -32 -98q-34 -49 -91 -51h-3q-52 0 -87 51q-33 47 -33 103v92q0 102 71 173q73 71 175 71h336v-61h-122v-232q14 43 49.5 72t76.5 30h4q89 0 89 -142q0 -103 -32 -185h105v518h351v-61h-122v-436h-61v436h-107
v-518zM125 -112q0 -24 18.5 -42.5t42.5 -18.5h180q21 0 47.5 4t55 14.5t56.5 28t53 44.5h-422q-23 0 -31 -30zM164 253q-27 0 -44 -33q-13 -27 -15 -59v-5q0 -29 14 -54q18 -32 47 -34h2q25 0 44 34q14 27 16 59v4q0 25 -16 54q-19 33 -46 34h-2z" />
    <glyph glyph-name="uni0B9E0BCD.ny" horiz-adv-x="950" 
d="M118 418l45 -45q-60 -66 -60 -155q0 -178 130 -293q124 -110 305 -111q131 -1 221 89.5t90 221.5v62q0 25 -19 43.5t-44 18.5q-51 1 -87.5 -35.5t-36.5 -88.5v-125h-62v435h-155q-80 0 -132.5 -53t-54.5 -133q0 25 18.5 43.5t43.5 18.5q54 1 91 -52q33 -46 34 -103
t-33 -104q-36 -51 -92 -52q-55 -1 -91 52q-33 47 -33 104v93q0 105 72 176.5t177 71.5h341v-62h-124v-248q0 51 36.5 87t87.5 37q50 1 87.5 -36.5t37.5 -87.5v-62q0 -155 -108.5 -263.5t-264.5 -109.5q-205 -1 -349 129q-148 134 -148 337q0 117 77 200zM320 249
q-20 1 -38 -22q-15 -18 -21 -41q-3 -11 -3 -30q0 -32 15 -60q18 -33 47 -34t47 34q15 28 16 60q1 30 -16 59q-19 33 -47 34zM554 750q24 1 42.5 -18.5t19.5 -43.5t-18.5 -42.5t-43.5 -19.5q-21 -1 -44 18q-18 18 -18 44q0 25 18.5 43t43.5 19z" />
    <glyph glyph-name="uni0B9F0BBF.tti" horiz-adv-x="726" 
d="M58 497h62v-436h201q-19 6 -38 25t-34.5 45t-25 57t-9.5 61v62q0 71 41 126q44 60 114 60q50 0 87 -37t37 -87v-312h178v-61h-178v-186h-62v186h-373v497zM366 435q-41 0 -67 -42q-23 -37 -23 -82v-62q0 -33 11 -66.5t31 -60.5t48.5 -44t63.5 -17h1v312q0 24 -18.5 42.5
t-43.5 19.5h-3z" />
    <glyph glyph-name="uni0B9F0BC0.ttii" horiz-adv-x="692" 
d="M276 279q0 -39 19 -76t46 -66.5t56 -49.5t49 -26h195v-61h-583v497h62v-436h231q-20 8 -44 30t-44.5 52.5t-34.5 66t-14 69.5v32q0 71 41 126q44 60 114 60q51 0 87 -37q35 -35 37 -87v-3q0 -25 -10 -47t-26.5 -38.5t-39 -26t-48.5 -9.5q-13 0 -27.5 5.5t-27.5 15t-23 22
t-15 25.5v-38zM367 435q-23 0 -41 -19.5t-19 -42.5v-3q0 -20 18 -41q18 -18 44 -18q25 0 43 18.5t19 43.5v2q0 23 -19.5 41t-42.5 19h-2z" />
    <glyph glyph-name="uni0B9F0BC1.ttu" horiz-adv-x="640" 
d="M290 497h62v-217q4 16 14 32.5t24 30t30.5 22t31.5 8.5q40 0 68 -21t46 -53t26.5 -70.5t8.5 -73.5v-62q0 -115 -66 -194q-70 -85 -183 -85h-31q-148 0 -221 151q-58 117 -58 284v62q0 165 57 283q74 152 222 152h31q107 0 177 -72q71 -70 72 -177h-62q0 81 -54 133
q-53 53 -133 53h-31q-154 0 -201 -210q-16 -70 -16 -162v-62q0 -144 39 -239q56 -134 178 -134h31q80 0 135 70q52 64 52 147v62q0 57 -18 99q-24 57 -73 57q-21 0 -38 -14t-29.5 -35t-19.5 -45t-9 -43v-174h-62v497z" />
    <glyph glyph-name="uni0B9F0BC2.ttuu" horiz-adv-x="640" 
d="M601 554q0 -51 -37 -87q-35 -35 -87 -37h-4q-48 0 -84 36q-35 37 -37 88v3q0 86 94 116q-15 6 -31 6h-94q-122 0 -178 -134q-39 -94 -39 -239v-62q0 -144 39 -239q56 -134 178 -134h31q80 0 135 70q52 64 52 147v62q0 23 -4 50.5t-14 51t-26.5 39t-42.5 15.5
q-20 0 -37.5 -11t-30.5 -27t-21.5 -33t-10.5 -28v-212h-62v501h62v-206q3 12 13 25.5t25 25.5t32 19.5t33 7.5q38 0 65.5 -21t45.5 -53t26.5 -70.5t8.5 -73.5v-62q0 -115 -66 -194q-70 -85 -183 -85h-31q-148 0 -221 151q-58 117 -58 284v62q0 166 57 284q73 151 222 151h94
q81 0 133 -54q53 -53 53 -133zM477 492q25 0 43 18.5t19 43.5v2q0 23 -19.5 41.5t-42.5 19.5h-2q-24 0 -41.5 -19.5t-18.5 -43.5v-3q0 -20 18 -41q18 -18 44 -18z" />
    <glyph glyph-name="uni0B9F0BCD.tt" horiz-adv-x="748" 
d="M58 497h62v-436h501v-61h-563v497zM364 750q24 1 42.5 -18.5t19.5 -43.5t-18.5 -42.5t-43.5 -19.5q-21 -1 -44 18q-18 18 -18 44q0 25 18.5 43t43.5 19z" />
    <glyph glyph-name="uni0BA30BBF.nni" horiz-adv-x="1277" 
d="M1044 746h31q68 0 113 -61q42 -56 42 -126v-559h-62v559q0 45 -24 82q-27 42 -69 42h-31q-38 0 -65 -27.5t-28 -65.5q-1 -37 27.5 -65t65.5 -28h62v-62h-93v-435h-62v435h-93q-40 0 -72 -16q72 -78 72 -170v-94q0 -57 -34 -103q-36 -51 -91 -52t-91 51q-33 47 -33 104v94
q0 100 70 170q-40 16 -70 16h-31q-37 0 -72 -16q72 -78 72 -170v-94q0 -57 -33 -103q-36 -51 -91 -52q-56 -1 -92 51q-33 46 -33 104v94q0 99 70 170q-45 16 -70 16h-31q-78 0 -132 -54t-54 -132q0 25 18.5 43.5t43.5 18.5q53 1 90 -53q33 -47 34 -103t-33 -103
q-36 -51 -91 -52t-91 51q-33 47 -33 104v94q0 106 71 177t177 71h31q63 0 125 -37q60 37 124 37h31q63 0 124 -37q59 37 125 37h62q-30 39 -31 93q-1 64 45 110t110 46zM452 384q-60 -51 -60 -135v-94q0 -34 14 -60q17 -32 48 -33q20 -1 38 22q15 19 20 41q4 18 4 30v94
q0 80 -64 135zM174 249q-29 1 -47 -34q-15 -28 -15 -60q0 -34 14 -60q17 -32 48 -33q20 -1 38 22q15 18 20 41q4 16 4 30q1 32 -15 60q-18 33 -47 34zM731 384q-60 -54 -60 -135v-94q0 -48 31 -79q13 -13 31 -14q21 -1 38 21q15 19 20 42q4 18 4 30v94q0 80 -64 135z" />
    <glyph glyph-name="uni0BA30BC0.nnii" horiz-adv-x="1183" 
d="M578 435q-37 0 -72 -16q72 -78 72 -170v-94q0 -57 -33 -103q-36 -51 -91 -52q-56 -1 -92 51q-33 46 -33 104v94q0 99 70 170q-45 16 -70 16h-31q-78 0 -132 -54t-54 -132q0 25 18.5 43.5t43.5 18.5q53 1 90 -53q33 -47 34 -103t-33 -103q-36 -51 -91 -52t-91 51
q-33 47 -33 104v94q0 106 71 177t177 71h31q63 0 125 -37q60 37 124 37h31q63 0 124 -37q59 37 125 37h62q-31 40 -31 93v31q0 51 36.5 88t87.5 37h62q38 0 65 -28t28 -66q1 -36 -27.5 -64.5t-65.5 -28.5q-81 -1 -114 76q-8 -27 -10 -45q0 -37 28 -65t65 -28h62v-62h-93
v-435h-62v435h-93q-40 0 -72 -16q72 -78 72 -170v-94q0 -57 -34 -103q-36 -51 -91 -52t-91 51q-33 47 -33 104v94q0 100 70 170q-40 16 -70 16h-31zM452 384q-60 -51 -60 -135v-94q0 -34 14 -60q17 -32 48 -33q20 -1 38 22q15 19 20 41q4 18 4 30v94q0 80 -64 135zM174 249
q-29 1 -47 -34q-15 -28 -15 -60q0 -34 14 -60q17 -32 48 -33q20 -1 38 22q15 18 20 41q4 16 4 30q1 32 -15 60q-18 33 -47 34zM731 384q-60 -54 -60 -135v-94q0 -48 31 -79q13 -13 31 -14q21 -1 38 21q15 19 20 42q4 18 4 30v94q0 80 -64 135zM1013 683q0 -21 18 -44
q18 -18 44 -18q24 0 31 31q0 24 -31 31h-62z" />
    <glyph glyph-name="uni0BA30BC1.nnu" horiz-adv-x="1293" 
d="M578 435q-40 0 -72 -16q72 -78 72 -170v-94q0 -57 -33 -103q-36 -51 -91 -52q-56 -1 -92 51q-33 46 -33 104v94q0 99 70 170q-45 16 -70 16h-31q-78 0 -132 -54t-54 -132q0 25 18.5 43.5t43.5 18.5q53 1 90 -53q33 -47 34 -103t-33 -103q-36 -51 -91 -52t-91 51
q-33 47 -33 104v94q0 106 71 177t177 71h31q63 0 125 -37q60 37 124 37h31q63 0 124 -37q58 36 125 37q104 1 176 -71t72 -177v-125q0 -56 -37 -155h99v528h62v-590h-200q-51 -72 -136 -114t-175 -42h-528q-61 0 -100.5 47t-40.5 109q0 21 18 44q18 18 44 18h887
q45 77 45 155v125q0 78 -54 132t-132 54q-40 0 -72 -16q72 -78 72 -170v-94q0 -57 -34 -103q-36 -51 -91 -52t-91 51q-33 47 -33 104v94q0 100 70 170q-40 16 -70 16h-31zM452 384q-61 -53 -61 -135v-94q0 -33 15 -60q17 -32 48 -33q20 -1 38 22q15 19 20 41q4 18 4 30v94
q0 80 -64 135zM174 249q-29 1 -47 -34q-15 -28 -15 -60q0 -34 14 -60q17 -32 48 -33q20 -1 38 22q15 18 20 41q4 16 4 30q1 32 -15 60q-18 33 -47 34zM951 -93h-789q-10 0 -21 -10q-7 -8 -10 -21q0 -24 19 -43t43 -19h540q124 0 218 93zM731 384q-60 -51 -60 -135v-94
q0 -34 14 -60q17 -32 48 -33q20 -1 38 22q15 19 20 41q4 18 4 30v94q0 80 -64 135z" />
    <glyph glyph-name="uni0BA30BC2.nnuu" horiz-adv-x="1587" 
d="M452 384q-61 -53 -61 -135v-94q0 -33 15 -60q17 -32 48 -33q20 -1 38 22q15 19 20 41q4 18 4 30v94q0 80 -64 135zM174 249q-29 1 -47 -34q-15 -28 -15 -60q0 -34 14 -60q17 -32 48 -33q20 -1 38 22q15 18 20 41q4 16 4 30q1 32 -15 60q-18 33 -47 34zM951 -93h-789
q-10 0 -21 -10q-7 -8 -10 -21q0 -24 19 -43t43 -19h540q124 0 218 93zM731 384q-60 -51 -60 -135v-94q0 -34 14 -60q17 -32 48 -33q20 -1 38 22q15 19 20 41q4 18 4 30v94q0 80 -64 135zM1427 0h-62v435h-135v-528h-200q-51 -72 -136 -114t-175 -42h-528q-61 0 -100.5 47
t-40.5 109q0 21 18 44q18 18 44 18h887q45 77 45 155v125q0 78 -54 132t-132 54q-40 0 -72 -16q72 -78 72 -170v-94q0 -57 -34 -103q-36 -51 -91 -52t-91 51q-33 47 -33 104v94q0 100 70 170q-40 16 -70 16h-31q-40 0 -72 -16q72 -78 72 -170v-94q0 -57 -33 -103
q-36 -51 -91 -52q-56 -1 -92 51q-33 46 -33 104v94q0 99 70 170q-45 16 -70 16h-31q-79 0 -132.5 -53.5t-53.5 -132.5q0 25 18.5 43.5t43.5 18.5q53 1 90 -53q33 -47 34 -103t-33 -103q-36 -51 -91 -52t-91 51q-33 47 -33 104v94q0 106 71 177t177 71h31q63 0 125 -37
q60 37 124 37h31q63 0 124 -37q58 36 125 37q104 1 176 -71t72 -177v-125q0 -56 -37 -155h99v528h383v-62h-124v-435z" />
    <glyph glyph-name="uni0BA30BCD.nn" horiz-adv-x="1127" 
d="M578 435q-37 0 -72 -16q72 -78 72 -170v-94q0 -57 -33 -103q-36 -51 -91 -52t-91 51q-33 47 -33 104v94q0 98 69 170q-40 16 -69 16h-32q-78 0 -132 -54t-54 -132q0 25 18.5 43.5t43.5 18.5q53 1 90 -53q33 -47 34 -103t-33 -103q-36 -51 -91 -52t-91 51q-33 47 -33 104
v94q0 106 71 177t177 71h32q63 0 124 -37q60 37 124 37h31q63 0 124 -37q59 37 125 37h248v-62h-93v-435h-62v435h-93q-40 0 -72 -16q72 -78 72 -170v-94q0 -57 -34 -103q-36 -51 -91 -52t-91 51q-33 47 -33 104v94q0 100 70 170q-40 16 -70 16h-31zM452 384
q-60 -51 -60 -135v-94q0 -34 14 -60q17 -32 48 -33q20 -1 38 22q15 19 20 41q4 18 4 30v94q0 80 -64 135zM174 249q-29 1 -47 -34q-15 -28 -15 -60q0 -34 14 -60q17 -32 48 -33q20 -1 38 22q15 18 20 41q4 16 4 30q1 32 -15 60q-18 33 -47 34zM731 384q-60 -54 -60 -135v-94
q0 -48 31 -79q13 -13 31 -14q24 -1 47 34q16 30 16 59v94q0 79 -65 135zM574 750q24 1 42.5 -18.5t19.5 -43.5t-18.5 -42.5t-43.5 -19.5q-21 -1 -44 18q-18 18 -18 44q0 25 18.5 43t43.5 19z" />
    <glyph glyph-name="uni0BA40BBF.ti" horiz-adv-x="782" 
d="M381 497q-30 39 -31 93q-1 64 45 110t110 46h62q68 0 113 -61q42 -56 42 -126v-559h-62v559q0 45 -24 82q-27 42 -69 42h-62q-38 0 -65 -27.5t-28 -65.5q-1 -37 27.5 -65t65.5 -28h31v-62h-124v-124h62q51 0 87.5 -37t36.5 -88v-31q0 -105 -71.5 -176.5t-176.5 -71.5
h-125q-44 0 -81 -24q-43 -27 -43 -69v-31h-62v31q0 68 61 113q55 42 125 42h125q78 0 132 54t54 132v31q0 24 -19 43.5t-43 19.5h-62v-63q0 -80 -53.5 -133t-133.5 -53q-78 0 -132 54t-54 132q0 52 36 88t88 37v186h218zM350 435h-125v-124h125v124zM225 62q51 -1 88 36
t37 88v63h-187q-25 0 -43.5 -19t-18.5 -44q-1 -51 36 -87t88 -37z" />
    <glyph glyph-name="uni0BA40BC0.tii" horiz-adv-x="631" 
d="M412 249v-63q0 -80 -53.5 -133t-133.5 -53q-78 0 -132 54t-54 132q0 52 36 88t88 37v186h201q-46 40 -46 93v31q0 50 37.5 87.5t87.5 37.5h62q36 0 64 -29t29 -65t-27.5 -64.5t-65.5 -28.5q-80 -1 -115 76q-9 -24 -9 -45q0 -37 28 -65t65 -28h62v-62h-124v-124h62
q51 0 87.5 -37t36.5 -88v-31q0 -105 -71.5 -176.5t-176.5 -71.5h-125q-44 0 -81 -24q-43 -27 -43 -69v-31h-62v31q0 68 61 113q55 42 125 42h125q78 0 132 54t54 132v31q0 24 -19 43.5t-43 19.5h-62zM350 435h-125v-124h125v124zM225 62q51 -1 88 36t37 88v63h-187
q-25 0 -43.5 -19t-18.5 -44q-1 -51 36 -87t88 -37zM443 683q0 -21 18 -44q18 -18 44 -18q24 0 31 31q0 24 -31 31h-62z" />
    <glyph glyph-name="uni0BA40BC1.tu" horiz-adv-x="843" 
d="M120 -93q-10 0 -21 -10q-7 -8 -10 -21q0 -24 19 -43t43 -19h167q105 0 175 93h-373zM532 -31q34 78 35 155q1 44 -24 82q-27 43 -69 43h-31v-63q0 -80 -53.5 -133t-133.5 -53h-31q-78 0 -132 54t-54 132q0 51 36.5 88t87.5 37h31v186h435v-62h-186v-124h31q68 0 113 -61
q42 -56 42 -126q0 -74 -31 -155h124v528h62v-590h-217q-90 -156 -249 -156h-155q-64 0 -109 46t-46 110q0 21 18 44q18 18 44 18h462zM381 435h-125v-124h125v124zM256 62q51 0 88 36.5t37 87.5v63h-218q-25 0 -43.5 -19t-18.5 -44q-1 -51 35.5 -87.5t88.5 -36.5h31z" />
    <glyph glyph-name="uni0BA40BC2.tuu" horiz-adv-x="1139" 
d="M120 -93q-10 0 -21 -10q-7 -8 -10 -21q0 -24 19 -43t43 -19h167q105 0 175 93h-373zM381 435h-125v-124h125v124zM256 62q51 0 88 36.5t37 87.5v63h-218q-25 0 -43.5 -19t-18.5 -44q-1 -51 35.5 -87.5t88.5 -36.5h31zM979 0h-62v435h-133v-528h-217q-90 -156 -249 -156
h-155q-64 0 -109 46t-46 110q0 21 18 44q18 18 44 18h462q34 78 35 155q1 44 -24 82q-27 43 -69 43h-31v-63q0 -80 -53.5 -133t-133.5 -53h-31q-78 0 -132 54t-54 132q0 51 36.5 88t87.5 37h31v186h435v-62h-186v-124h31q68 0 113 -61q42 -56 42 -126q0 -74 -31 -155h124
v528h381v-62h-124v-435z" />
    <glyph glyph-name="uni0BA40BCD.t" horiz-adv-x="637" 
d="M411 249v-62q0 -80 -53.5 -133t-133.5 -54t-133 53t-53 134q0 52 36 87t88 37v186h373v-62h-124v-124h62q50 0 87 -37t37 -87v-32q0 -105 -71.5 -176.5t-176.5 -71.5h-125q-44 0 -81 -24q-43 -27 -43 -69v-26h-62v26q0 68 61 113q55 42 125 42h125q78 0 132 54t54 132v32
q0 24 -19 43t-43 19h-62zM349 435h-125v-124h125v124zM224 62q51 -1 88 36.5t37 88.5v62h-187q-25 0 -43.5 -18.5t-18.5 -43.5q-1 -52 35.5 -88t88.5 -37zM374 750q24 1 42.5 -18.5t19.5 -43.5t-18.5 -42.5t-43.5 -19.5q-21 -1 -44 18q-18 18 -18 44q0 25 18.5 43t43.5 19z
" />
    <glyph glyph-name="uni0BA80BBF.ni" horiz-adv-x="762" 
d="M338 435v-198q7 19 18.5 33t24.5 23t26.5 13.5t23.5 4.5h31q49 0 87 -38t38 -87v-31q0 -105 -72 -176q-72 -72 -177 -72h-124q-44 0 -82 -24q-43 -27 -43 -69v-31h-62v31q0 68 61 113q56 42 126 42h124q78 0 132 54t54 132v31q0 24 -19 43.5t-43 19.5h-31q-18 0 -35 -10
t-30 -24t-20.5 -30.5t-7.5 -28.5v-156h-62v435h-156v-435h-62v497h311q-30 42 -31 93q-1 64 45 110t110 46h62q69 0 114 -61q42 -55 42 -126v-559h-62v559q0 45 -24 82q-27 42 -70 42h-62q-37 0 -64.5 -28t-28.5 -65t27.5 -65t65.5 -28h31v-62h-186z" />
    <glyph glyph-name="uni0BA80BC0.nii" horiz-adv-x="642" 
d="M400 683q0 -21 18 -44q18 -18 44 -18q24 0 31 31q0 24 -31 31h-62zM338 435v-198q7 19 18.5 33t24.5 23t26.5 13.5t23.5 4.5h31q49 0 87 -38t38 -87v-31q0 -105 -72 -176q-72 -72 -177 -72h-124q-44 0 -82 -24q-43 -27 -43 -69v-31h-62v31q0 68 61 113q56 42 126 42h124
q78 0 132 54t54 132v31q0 24 -19 43.5t-43 19.5h-31q-18 0 -35 -10t-30 -24t-20.5 -30.5t-7.5 -28.5v-156h-62v435h-156v-435h-62v497h249q-31 40 -31 93v31q0 51 36.5 88t87.5 37h62q38 0 65 -28t28 -66q1 -36 -27.5 -64.5t-65.5 -28.5q-81 -1 -114 76q-8 -27 -10 -45
q0 -37 28 -65t65 -28h93v-62h-186z" />
    <glyph glyph-name="uni0BA80BC1.nu" horiz-adv-x="715" 
d="M383 311q63 1 109 -46t46 -110v-31q0 -78 -31 -155h93v528h63v-590h-185q-91 -156 -250 -156h-94q-64 0 -109 46t-46 110q0 21 18 44q18 18 44 18h398q37 85 37 155v31q0 37 -28 65t-65 29q-38 1 -65.5 -27.5t-27.5 -66.5v-155h-62v435h-125v-435h-62v497h435v-62h-186
v-218q0 38 27.5 65.5t65.5 28.5zM404 -93h-312q-24 0 -31 -31q0 -24 19 -43t43 -19h105q103 0 176 93z" />
    <glyph glyph-name="uni0BA80BC2.nuu" horiz-adv-x="1018" 
d="M421 -93h-312q-24 0 -31 -31q0 -24 19 -43t43 -19h105q103 0 176 93zM869 0h-62v435h-127v-528h-185q-91 -156 -250 -156h-94q-64 0 -109 46t-46 110q0 21 18 44q18 18 44 18h398q37 85 37 155v31q0 37 -28 65t-65 29q-38 1 -65.5 -27.5t-27.5 -66.5v-155h-62v435h-125
v-435h-62v497h435v-62h-186v-218q0 38 27.5 65.5t65.5 28.5q63 1 109 -46t46 -110v-31q0 -78 -31 -155h93v528h376v-62h-124v-435z" />
    <glyph glyph-name="uni0BA80BCD.n" horiz-adv-x="621" 
d="M58 0v497h466v-62h-186v-198q7 19 18.5 33t24.5 23t26.5 13.5t23.5 4.5h31q49 0 87 -38t38 -87v-31q0 -105 -72 -176q-72 -72 -177 -72h-124q-44 0 -82 -24q-43 -27 -43 -69v-31h-62v31q0 68 61 113q56 42 126 42h124q78 0 132 54t54 132v31q0 24 -19 43.5t-43 19.5h-31
q-18 0 -35 -10t-30 -24t-20.5 -30.5t-7.5 -28.5v-156h-62v435h-155v-435h-63zM304 750q24 1 42.5 -18.5t19.5 -43.5t-18.5 -42.5t-43.5 -19.5q-21 -1 -44 18q-18 18 -18 44q0 25 18.5 43t43.5 19z" />
    <glyph glyph-name="uni0BAA0BBF.pi" horiz-adv-x="676" 
d="M431 373h-31q-63 0 -109 46t-46 109v31q0 79 53.5 132.5t132.5 54.5q80 1 133 -53t53 -134v-559h-62v559q0 51 -36.5 87t-87.5 37q-50 1 -87 -36.5t-37 -87.5v-31q0 -37 28 -65t65 -28h31v62h62v-497h-435v497h62v-436h311v312z" />
    <glyph glyph-name="uni0BAA0BC0.pii" horiz-adv-x="549" 
d="M307 528q0 -37 28 -65t65 -28h31v62h62v-497h-435v497h62v-436h311v312h-31q-68 0 -113 61q-42 55 -42 125t42 126q45 61 113 61h31q38 0 65 -28t28 -66q1 -50 -36.5 -87t-87.5 -37h-31q-33 0 -62 18v-18zM315 625q15 -35 54 -35h31q25 0 43 18.5t19 43.5q1 24 -31 31
h-31q-60 0 -85 -58z" />
    <glyph glyph-name="uni0BAA0BC1.pu" horiz-adv-x="553" 
d="M58 497h62v-436h311v436h62v-683h-62v186h-373v497z" />
    <glyph glyph-name="uni0BAA0BC2.puu" horiz-adv-x="718" 
d="M369 -249h-218q-37 0 -64.5 28.5t-28.5 65.5t27.5 65t65.5 28h63q37 0 64.5 -28t28.5 -65q1 -24 -31 -31h93q92 0 164 46q83 53 84 140q0 24 -18.5 42.5t-43.5 19.5q-24 1 -43 -18.5t-19 -43.5v-124h-62v124h-373v497h62v-436h311v436h62v-435q0 25 18.5 43.5t43.5 18.5
q52 1 88.5 -35.5t36.5 -88.5q1 -113 -102 -185q-91 -64 -209 -64zM214 -186q24 0 31 31q0 23 -31 31h-63q-10 0 -21 -10q-7 -8 -10 -21q0 -24 31 -31h63z" />
    <glyph glyph-name="uni0BAA0BCD.p" horiz-adv-x="551" 
d="M58 497h62v-436h311v436h62v-497h-435v497zM284 750q24 1 42.5 -18.5t19.5 -43.5t-18.5 -42.5t-43.5 -19.5q-21 -1 -44 18q-18 18 -18 44q0 25 18.5 43t43.5 19z" />
    <glyph glyph-name="uni0BAE0BBF.mi" horiz-adv-x="741" 
d="M338 61h62q50 0 87 37.5t37 87.5v125q0 51 -36.5 87t-87.5 37q-24 0 -43 -19t-19 -43v-312zM383 496q-23 43 -23 94q0 63 46.5 109.5t109.5 46.5h32q68 0 113 -61q42 -56 42 -126v-559h-62v559q0 45 -24 82q-27 42 -69 42h-32q-38 0 -65 -27.5t-28 -65.5q-1 -48 36 -103
q56 -18 91.5 -67.5t35.5 -108.5v-125q0 -78 -54 -132t-132 -54h-342v497h62v-436h156v312q0 46 30.5 81t76.5 42z" />
    <glyph glyph-name="uni0BAE0BC0.mii" horiz-adv-x="626" 
d="M58 497h62v-436h156v312q0 61 54 101q-54 47 -54 116v31q0 51 36.5 88t87.5 37h62q38 0 65 -28t28 -66q1 -36 -27.5 -64.5t-65.5 -28.5q-81 -1 -114 76q-8 -27 -10 -45q0 -38 27.5 -65t65.5 -28q68 -1 113 -61q42 -55 42 -125v-125q0 -78 -54 -132t-132 -54h-342v497z
M431 435h-31q-24 0 -43 -19t-19 -43v-312h62q50 0 87 37.5t37 87.5v125q0 44 -24 81q-27 43 -69 43zM400 683q0 -21 18 -44q18 -18 44 -18q24 0 31 31q0 24 -31 31h-62z" />
    <glyph glyph-name="uni0BAE0BC1.mu" horiz-adv-x="825" 
d="M350 -249q-129 -1 -220 90.5t-91 220.5v62q0 94 46.5 178t126.5 135l35 -53q-67 -42 -106.5 -111.5t-39.5 -148.5v-62q0 -105 72 -176t177 -72q50 0 87 37t37 87v62h-187v497h63v-436h124v312q0 51 36.5 87t87.5 37q79 1 132.5 -53t53.5 -133v-125q0 -78 -54 -132
t-132 -54h-62v-62q0 -77 -54.5 -131.5t-131.5 -55.5zM536 61h62q50 0 87 37.5t37 87.5v125q0 51 -36.5 87t-87.5 37q-24 0 -43 -19t-19 -43v-312z" />
    <glyph glyph-name="uni0BAE0BC2.muu" horiz-adv-x="828" 
d="M350 -249q-138 -1 -229 120q-82 109 -82 253v62q0 217 124 218q37 0 64.5 -28t28.5 -65q1 -36 -27 -65t-64 -30q-54 -1 -66 46l-2 -4l4 -72v-62q0 -120 63 -209q71 -101 186 -101q50 0 87 37t37 87v62h-187v497h63v-436h124v312q0 51 36.5 87t87.5 37q79 1 132.5 -53
t53.5 -133v-125q0 -78 -54 -132t-132 -54h-62v-62q0 -77 -54.5 -131.5t-131.5 -55.5zM536 61h62q50 0 87 37.5t37 87.5v125q0 51 -36.5 87t-87.5 37q-24 0 -43 -19t-19 -43v-312zM163 342q-23 0 -31 -31q0 -24 31 -31q24 0 31 31q0 24 -31 31z" />
    <glyph glyph-name="uni0BAE0BCD.m" horiz-adv-x="625" 
d="M276 61v312q0 51 36.5 87t87.5 37q79 1 132.5 -53t53.5 -133v-125q0 -78 -54 -132t-132 -54h-342v497h62v-436h156zM338 61h62q50 0 87 37.5t37 87.5v125q0 51 -36.5 87t-87.5 37q-24 0 -43 -19t-19 -43v-312zM274 750q24 1 42.5 -18.5t19.5 -43.5t-18.5 -42.5
t-43.5 -19.5q-21 -1 -44 18q-18 18 -18 44q0 25 18.5 43t43.5 19z" />
    <glyph glyph-name="uni0BAF0BBF.yi" horiz-adv-x="786" 
d="M546 373h-31q-64 0 -110 45.5t-46 109.5v31q0 80 53.5 133t133.5 54t133 -53t53 -134v-559h-62v559q0 51 -36.5 87t-87.5 37t-88 -36t-37 -88v-31q0 -38 28 -65.5t66 -27.5h31v62h62v-497h-342v93q0 -37 -28 -64.5t-65 -28.5q-50 -1 -87 36.5t-37 87.5v373h62v-373
q0 -21 18 -44q18 -18 44 -18q36 0 64.5 28.5t28.5 64.5v342h62v-436h218v312z" />
    <glyph glyph-name="uni0BAF0BC0.yii" horiz-adv-x="666" 
d="M546 435v62h62v-497h-342v93q0 -37 -28 -64.5t-65 -28.5q-50 -1 -87 36.5t-37 87.5v373h62v-373q0 -21 18 -44q18 -18 44 -18q36 0 64.5 28.5t28.5 64.5v342h62v-436h218v312h-31q-71 0 -115 59q-40 53 -41 127q-1 70 42 126q46 61 114 61h31q36 0 64 -29t29 -65
q1 -50 -36.5 -87t-87.5 -37h-32q-32 0 -62 18v-18q0 -38 28 -65.5t66 -27.5h31zM429 625q17 -35 54 -35h32q25 0 43 18.5t19 43.5q1 24 -31 31h-31q-58 0 -86 -58z" />
    <glyph glyph-name="uni0BAF0BC1.yu" horiz-adv-x="675" 
d="M276 0v93q0 -37 -28 -64.5t-65 -28.5q-50 -1 -87.5 36.5t-37.5 87.5v373h62v-373q0 -26 18.5 -43.5t44.5 -18.5q36 -1 64.5 28t28.5 65v342h62v-436h217v436h62v-683h-62v186h-279z" />
    <glyph glyph-name="uni0BAF0BC2.yuu" horiz-adv-x="816" 
d="M460 -249h-248q-38 0 -65.5 28t-28.5 66q-1 37 28 65t66 28h62q37 0 64.5 -28t28.5 -65q1 -24 -31 -31h124q93 0 165 46q83 52 84 140q0 24 -18.5 42.5t-43.5 19.5t-44 -18t-19 -44v-124h-62v124h-279v93q0 -37 -28 -64.5t-65 -28.5q-48 -1 -73 39q-21 34 -21 85v373h62
v-384q-1 -51 32 -51q42 0 69 43q24 37 24 81v311h62v-436h217v436h62v-435q0 25 19 43.5t44 18.5q52 1 88 -35.5t36 -88.5q1 -113 -102 -185q-91 -64 -209 -64zM274 -186q24 0 31 31q0 23 -31 31h-62q-24 0 -31 -31q0 -24 31 -31h62z" />
    <glyph glyph-name="uni0BAF0BCD.y" horiz-adv-x="676" 
d="M276 0v93q0 -37 -28 -64.5t-65 -28.5q-50 -1 -87.5 36.5t-37.5 87.5v373h62v-373q0 -26 18.5 -43.5t44.5 -18.5q36 -1 64.5 28t28.5 65v342h62v-436h217v436h62v-497h-341zM342 750q24 1 42.5 -18.5t19.5 -43.5t-18.5 -42.5t-43.5 -19.5q-21 -1 -44 18q-18 18 -18 44
q0 25 18.5 43t43.5 19z" />
    <glyph glyph-name="uni0BB00BBF.ri" horiz-adv-x="612" 
d="M500 559q0 45 -24 82q-27 42 -69 42h-62q-37 0 -64.5 -28t-28.5 -65t27 -65q27 -26 62 -28h77v-62h-78v-435l-156 -155l-46 46l140 140v404h-156v-435h-62v497h161q-31 40 -32 93q-1 63 46 109.5t110 46.5h62q68 0 113 -61q42 -56 42 -126v-559h-62v559z" />
    <glyph glyph-name="uni0BB00BC0.rii" horiz-adv-x="495" 
d="M254 637q-8 -27 -10 -45q0 -38 28 -65t66 -28v-2h126v-62h-124v-435l-156 -155l-46 46l140 140v404h-156v-435h-62v497h154q-31 40 -32 95t34 103q38 53 91 53h93q37 0 64.5 -28.5t28.5 -65.5t-27.5 -65t-65.5 -28h-31q-81 0 -115 76zM307 685q0 -24 19 -43t43 -19h31
q10 0 21 10q7 8 10 21q0 24 -31 31h-93z" />
    <glyph glyph-name="uni0BB00BC1.ru" horiz-adv-x="854" 
d="M536 435v-218q0 38 27.5 66t65.5 28q79 1 132.5 -53.5t54.5 -133.5q1 -154 -109 -263.5t-264 -109.5h-31q-155 0 -264 109t-109 264v62q0 88 46 162t125 114l29 -56q-62 -30 -100 -90.5t-38 -129.5v-62q0 -130 90.5 -220t220.5 -90h31q131 0 220 89.5t90 220.5
q0 50 -37 87t-87 38q-44 1 -70 -42q-23 -37 -23 -83v-124h-62v435h-124v-435h-63v497h373v-62h-124z" />
    <glyph glyph-name="uni0BB00BC2.ruu" horiz-adv-x="854" 
d="M163 404q37 0 64.5 -28t28.5 -65q1 -36 -27 -65t-64 -30q-54 -1 -66 46l-2 -4l4 -72v-62q0 -130 90.5 -220t220.5 -90h31q131 0 220 89.5t90 220.5q0 50 -37 87t-87 38q-44 1 -70 -42q-23 -37 -23 -83v-124h-62v435h-124v-435h-63v497h373v-62h-124v-218q0 38 27.5 66
t65.5 28q79 1 132.5 -53.5t54.5 -133.5q1 -154 -109 -263.5t-264 -109.5h-31q-155 0 -264 109t-109 264v62q0 217 124 218zM163 342q-23 0 -31 -31q0 -24 31 -31q24 0 31 31q0 24 -31 31z" />
    <glyph glyph-name="uni0BB00BCD.r" horiz-adv-x="495" 
d="M340 435v-435l-156 -155l-46 46l140 140v404h-156v-435h-62v497h404v-62h-124zM253 751q24 1 42.5 -18.5t19.5 -43.5t-18.5 -42.5t-43.5 -19.5q-21 -1 -44 18q-18 18 -18 44q0 25 18.5 43t43.5 19z" />
    <glyph glyph-name="uni0BB20BBF.li" horiz-adv-x="840" 
d="M565 435l-41 50l45 45q121 -117 122 -281q1 -93 -45 -165q-53 -83 -141 -84q-63 -1 -109 45t-46 110v187q0 36 -29 64t-65 29q-68 1 -113 -60q-42 -56 -42 -126q0 25 18.5 43.5t43.5 18.5q53 1 90 -53q33 -47 34 -103t-33 -103q-36 -51 -91 -52t-91 51q-33 47 -33 104v94
q0 96 60 169q63 78 157 79q64 1 110 -45t46 -110v-187q0 -38 27.5 -65t65.5 -28q63 -1 97 65q27 52 27 122q0 57 -27 124h-35q-63 0 -109 46t-46 109v31q0 79 53.5 132.5t132.5 54.5q80 1 133 -53t53 -134v-559h-62v559q0 51 -36.5 87t-87.5 37q-50 1 -87 -36.5t-37 -87.5
v-31q0 -38 26.5 -64.5t64.5 -28.5zM163 249q-29 1 -47 -34q-15 -28 -15 -60q0 -34 14 -60q17 -32 48 -33q20 -1 38 22q15 18 20 41q4 16 4 30q1 32 -15 60q-18 33 -47 34z" />
    <glyph glyph-name="uni0BB20BC0.lii" horiz-adv-x="730" 
d="M567 433q-18 27 -43 52l45 45q121 -117 122 -281q1 -93 -45 -165q-53 -83 -141 -84q-63 -1 -109 45t-46 110v187q0 36 -29 64t-65 29q-68 1 -113 -60q-42 -56 -42 -126q0 25 18.5 43.5t43.5 18.5q53 1 90 -53q33 -47 34 -103t-33 -103q-36 -51 -91 -52t-91 51
q-33 47 -33 104v94q0 96 60 169q63 78 157 79q64 1 110 -45t46 -110v-187q0 -38 27.5 -65t65.5 -28q63 -1 97 65q27 52 27 122q0 55 -29 122l-33 2q-71 4 -114 61q-40 52 -41 125q-1 71 41 126q45 61 114 61h31q38 0 65 -28t28 -66q1 -50 -36.5 -87t-87.5 -37h-31
q-33 0 -62 18v-18q0 -38 27.5 -65.5t65.5 -29.5zM163 249q-29 1 -47 -34q-15 -28 -15 -60q0 -34 14 -60q17 -32 48 -33q20 -1 38 22q15 18 20 41q4 16 4 30q1 32 -15 60q-18 33 -47 34zM482 625q15 -35 54 -35h31q25 0 43 18.5t19 43.5q1 24 -31 31h-31q-60 0 -85 -58z" />
    <glyph glyph-name="uni0BB20BC1.lu" horiz-adv-x="845" 
d="M474 2q-53 9 -88.5 54t-35.5 99v187q0 36 -29 64t-65 29q-68 1 -113 -60q-42 -56 -42 -126q0 25 18.5 43.5t43.5 18.5q53 1 90 -53q33 -47 34 -103t-33 -103q-36 -51 -91 -52t-91 51q-33 47 -33 104v94q0 96 60 169q63 78 157 79q64 1 110 -45t46 -110v-187
q0 -38 27.5 -65t65.5 -28q63 -1 97 65q27 52 27 122q0 134 -105 236l45 45q121 -117 122 -281q0 -82 -38 -151q-43 -80 -117 -96v-33h186v528h62v-590h-258q-9 -67 -60.5 -110t-119.5 -44q-104 -1 -158 15q-90 27 -91 110q0 37 29 64t66 27h282v33zM464 -93h-243
q-58 0 -58 -25q-1 -66 142 -66h41q90 0 118 91zM163 249q-29 1 -47 -34q-15 -28 -15 -60q0 -34 14 -60q17 -32 48 -33q20 -1 38 22q15 18 20 41q4 16 4 30q1 32 -15 60q-18 33 -47 34z" />
    <glyph glyph-name="uni0BB20BC2.luu" horiz-adv-x="1133" 
d="M464 -93h-243q-58 0 -58 -25q-1 -66 142 -66h41q90 0 118 91zM163 249q-29 1 -47 -34q-15 -28 -15 -60q0 -34 14 -60q17 -32 48 -33q20 -1 38 22q15 18 20 41q4 16 4 30q1 32 -15 60q-18 33 -47 34zM979 0h-62v435h-133v-528h-258q-9 -67 -60.5 -110t-119.5 -44
q-104 -1 -158 15q-90 27 -91 110q0 37 29 64t66 27h282v33q-53 9 -88.5 54t-35.5 99v187q0 36 -29 64t-65 29q-68 1 -113 -60q-42 -56 -42 -126q0 25 18.5 43.5t43.5 18.5q53 1 90 -53q33 -47 34 -103t-33 -103q-36 -51 -91 -52t-91 51q-33 47 -33 104v94q0 96 60 169
q63 78 157 79q64 1 110 -45t46 -110v-187q0 -38 27.5 -65t65.5 -28q63 -1 97 65q27 52 27 122q0 134 -105 236l45 45q121 -117 122 -281q0 -82 -38 -151q-43 -80 -117 -96v-33h186v528h381v-62h-124v-435z" />
    <glyph glyph-name="uni0BB20BCD.l" horiz-adv-x="728" 
d="M39 249q0 96 60 169q63 78 157 79q64 1 110 -45t46 -110v-187q0 -38 27.5 -65t65.5 -28q63 -1 97 65q27 52 27 122q0 134 -105 236l45 45q121 -117 122 -281q1 -93 -45 -165q-53 -83 -141 -84q-63 -1 -109 45t-46 110v187q0 36 -29 64t-65 29q-68 1 -113 -60
q-42 -56 -42 -126q0 25 18.5 43.5t43.5 18.5q53 1 90 -53q33 -47 34 -103t-33 -103q-36 -51 -91 -52t-91 51q-33 47 -33 104v94zM163 249q-29 1 -47 -34q-15 -28 -15 -60q0 -34 14 -60q17 -32 48 -33q20 -1 38 22q15 18 20 41q4 16 4 30q1 32 -15 60q-18 33 -47 34zM414 750
q24 1 42.5 -18.5t19.5 -43.5t-18.5 -42.5t-43.5 -19.5q-21 -1 -44 18q-18 18 -18 44q0 25 18.5 43t43.5 19z" />
    <glyph glyph-name="uni0BB50BBF.vi" horiz-adv-x="811" 
d="M567 373h-31q-63 0 -109 46t-46 109v31q0 79 53.5 132.5t132.5 54.5q80 1 133 -53t53 -134v-559h-62v559q0 51 -36.5 87t-87.5 37q-50 1 -87 -36.5t-37 -87.5v-31q0 -37 28 -65t65 -28h31v62h62v-497h-311v62q28 0 47 34q16 28 16 59v94q0 69 -28 121q-34 64 -97 65
q-68 1 -114 -60q-41 -56 -41 -126q0 25 18.5 43.5t43.5 18.5q53 1 90 -53q33 -47 34 -103t-33 -103q-36 -51 -91 -52t-91 51q-33 47 -33 104v94q0 96 60 169q63 78 157 79q84 1 140 -85q47 -72 47 -163v-94q0 -52 -29 -94h153v312zM163 249q-29 1 -47 -34q-15 -28 -15 -60
q0 -34 14 -60q17 -32 48 -33q20 -1 38 22q15 18 20 41q4 16 4 30q1 32 -15 60q-18 33 -47 34z" />
    <glyph glyph-name="uni0BB50BC0.vii" horiz-adv-x="684" 
d="M567 435v62h62v-497h-311v62q28 0 47 34q16 28 16 59v94q0 69 -28 121q-34 64 -97 65q-68 1 -114 -60q-41 -56 -41 -126q0 25 18.5 43.5t43.5 18.5q53 1 90 -53q33 -47 34 -103t-33 -103q-36 -51 -91 -52t-91 51q-33 47 -33 104v94q0 96 60 169q63 78 157 79
q84 1 140 -85q47 -72 47 -163v-94q0 -52 -29 -94h153v312h-31q-68 0 -113 61q-42 55 -42 125t42 126q45 61 113 61h31q38 0 65 -28t28 -66q1 -50 -36.5 -87t-87.5 -37h-31q-33 0 -62 18v-18q0 -37 28 -65t65 -28h31zM163 249q-29 1 -47 -34q-15 -28 -15 -60q0 -34 14 -60
q17 -32 48 -33q20 -1 38 22q15 18 20 41q4 16 4 30q1 32 -15 60q-18 33 -47 34zM450 625q18 -35 55 -35h31q25 0 43 18.5t19 43.5q1 24 -31 31h-31q-58 0 -86 -58z" />
    <glyph glyph-name="uni0BB50BC1.vu" horiz-adv-x="687" 
d="M414 61h153v436h62v-683h-62v186h-249v62q28 0 47 34q16 28 16 59v94q0 69 -28 121q-34 64 -97 65q-68 1 -114 -60q-41 -56 -41 -126q0 25 18.5 43.5t43.5 18.5q53 1 90 -53q33 -47 34 -103t-33 -103q-36 -51 -91 -52t-91 51q-33 47 -33 104v94q0 96 60 169q63 78 157 79
q84 1 140 -85q47 -72 47 -163v-94q0 -52 -29 -94zM163 249q-29 1 -47 -34q-15 -28 -15 -60q0 -34 14 -60q17 -32 48 -33q20 -1 38 22q15 18 20 41q4 16 4 30q1 32 -15 60q-18 33 -47 34z" />
    <glyph glyph-name="uni0BB50BC2.vuu" horiz-adv-x="854" 
d="M629 497v-435q0 25 18.5 43.5t43.5 18.5q52 1 88.5 -35.5t36.5 -88.5q1 -113 -102 -185q-91 -64 -209 -64h-280q-37 0 -64.5 28.5t-28.5 65.5t27.5 65t65.5 28h62q38 0 65.5 -27.5t28.5 -65.5q1 -24 -31 -31h155q92 0 164 46q83 53 84 140q0 24 -18.5 42.5t-43.5 19.5
q-24 1 -43 -18.5t-19 -43.5v-124h-62v124h-249v62q28 0 47 34q16 28 16 59v94q0 69 -28 121q-34 64 -97 65q-68 1 -114 -60q-41 -56 -41 -126q0 25 18.5 43.5t43.5 18.5q53 1 90 -53q33 -47 34 -103t-33 -103q-36 -51 -91 -52t-91 51q-33 47 -33 104v94q0 96 60 169
q63 78 157 79q84 1 140 -85q47 -72 47 -163v-94q0 -52 -29 -94h153v436h62zM163 249q-29 1 -47 -34q-15 -28 -15 -60q0 -34 14 -60q17 -32 48 -33q20 -1 38 22q15 18 20 41q4 16 4 30q1 32 -15 60q-18 33 -47 34zM287 -186q24 0 31 31q0 23 -31 31h-62q-10 0 -21 -10
q-7 -8 -10 -21q0 -24 31 -31h62z" />
    <glyph glyph-name="uni0BB50BCD.v" horiz-adv-x="687" 
d="M414 61h153v436h62v-497h-311v62q28 0 47 34q16 28 16 59v94q0 69 -28 121q-34 64 -97 65q-68 1 -114 -60q-41 -56 -41 -126q0 25 18.5 43.5t43.5 18.5q53 1 90 -53q33 -47 34 -103t-33 -103q-36 -51 -91 -52t-91 51q-33 47 -33 104v94q0 96 60 169q63 78 157 79
q84 1 140 -85q47 -72 47 -163v-94q0 -52 -29 -94zM163 249q-29 1 -47 -34q-15 -28 -15 -60q0 -34 14 -60q17 -32 48 -33q20 -1 38 22q15 18 20 41q4 16 4 30q1 32 -15 60q-18 33 -47 34zM404 750q24 1 42.5 -18.5t19.5 -43.5t-18.5 -42.5t-43.5 -19.5q-21 -1 -44 18
q-18 18 -18 44q0 25 18.5 43t43.5 19z" />
    <glyph glyph-name="uni0BB40BBF.llli" horiz-adv-x="738" 
d="M276 0h-218v497h62v-436h156v312q0 76 72 110q-40 51 -41 107q-1 64 45 110t110 46h31q79 0 133 -54t54 -133v-559h-63v559q0 50 -37 87t-87 37h-31q-37 0 -64.5 -28t-28.5 -65q-1 -54 68 -99q64 -12 106.5 -63.5t42.5 -116.5v-125q0 -78 -54 -132t-132 -54h-62
q0 -24 19 -43t43 -19h93v-62h-93q-61 0 -62 -31q-1 -37 -28.5 -65.5t-64.5 -28.5h-31q-50 0 -87.5 37.5t-37.5 87.5v31h62v-31q0 -25 19 -43.5t44 -18.5h31q25 0 43 18.5t19 43.5q1 30 62 31q-38 0 -65 27.5t-28 65.5zM338 61h62q50 0 87 37.5t37 87.5v125q0 51 -36.5 87
t-87.5 37q-24 0 -43 -19t-19 -43v-312z" />
    <glyph glyph-name="uni0BB40BC0.lllii" horiz-adv-x="623" 
d="M276 0h-218v497h62v-436h156v312q0 61 54 101q-54 47 -54 116v31q0 51 36.5 88t87.5 37h62q38 0 65 -28t28 -66q1 -36 -27.5 -64.5t-65.5 -28.5q-81 -1 -114 76q-8 -27 -10 -45q0 -38 27.5 -65t65.5 -28q68 -1 113 -61q42 -55 42 -125v-125q0 -78 -54 -132t-132 -54h-62
q0 -24 19 -43t43 -19h93v-62h-93q-61 0 -62 -31q-1 -37 -28.5 -65.5t-64.5 -28.5h-31q-50 0 -87.5 37.5t-37.5 87.5v31h62v-31q0 -25 19 -43.5t44 -18.5h31q25 0 43 18.5t19 43.5q1 30 62 31q-38 0 -65 27.5t-28 65.5zM338 61h62q50 0 87 37.5t37 87.5v125q0 44 -24 81
q-27 43 -69 43h-31q-24 0 -43 -19t-19 -43v-312zM400 683q0 -21 18 -44q18 -18 44 -18q24 0 31 31q0 24 -31 31h-62z" />
    <glyph glyph-name="uni0BB40BC1.lllu" horiz-adv-x="823" 
d="M181 468l35 -52q-55 -28 -87 -99q-28 -62 -28 -131v-93q0 -114 66 -194q71 -85 183 -85h93q25 0 43 18.5t19 43.5q1 30 62 31q-38 0 -65 27.5t-28 65.5h-187v497h63v-436h124v312q0 51 36.5 87t87.5 37q79 1 132.5 -53t53.5 -133v-125q0 -78 -54 -132t-132 -54h-62
q0 -24 19 -43t43 -19h93v-62h-93q-61 0 -62 -31q-1 -37 -28.5 -65.5t-64.5 -28.5h-93q-134 0 -224 106q-87 100 -87 236v93q0 88 34 161q37 81 108 121zM536 61h62q50 0 87 37.5t37 87.5v125q0 51 -36.5 87t-87.5 37q-24 0 -43 -19t-19 -43v-312z" />
    <glyph glyph-name="uni0BB40BC2.llluu" horiz-adv-x="823" 
d="M39 93v93q0 217 124 218q37 0 64.5 -28t28.5 -65q1 -36 -27 -65t-64 -30q-54 -1 -66 46l-2 -4l4 -72v-93q0 -114 66 -194q71 -85 183 -85h93q25 0 43 18.5t19 43.5q1 30 62 31q-38 0 -65 27.5t-28 65.5h-187v497h63v-436h124v312q0 51 36.5 87t87.5 37q79 1 132.5 -53
t53.5 -133v-125q0 -78 -54 -132t-132 -54h-62q0 -24 19 -43t43 -19h93v-62h-93q-61 0 -62 -31q-1 -37 -28.5 -65.5t-64.5 -28.5h-93q-134 0 -224 106q-87 100 -87 236zM536 61h62q50 0 87 37.5t37 87.5v125q0 51 -36.5 87t-87.5 37q-24 0 -43 -19t-19 -43v-312zM163 342
q-23 0 -31 -31q0 -24 31 -31q24 0 31 31q0 24 -31 31z" />
    <glyph glyph-name="uni0BB40BCD.lll" horiz-adv-x="625" 
d="M276 0h-218v497h62v-436h156v312q0 51 36.5 87t87.5 37q79 1 132.5 -53t53.5 -133v-125q0 -78 -54 -132t-132 -54h-62q0 -24 19 -43t43 -19h93v-62h-93q-61 0 -62 -31q-1 -37 -28.5 -65.5t-64.5 -28.5h-31q-50 0 -87.5 37.5t-37.5 87.5v31h62v-31q0 -25 19 -43.5
t44 -18.5h31q25 0 43 18.5t19 43.5q1 30 62 31q-38 0 -65 27.5t-28 65.5zM338 61h62q50 0 87 37.5t37 87.5v125q0 51 -36.5 87t-87.5 37q-24 0 -43 -19t-19 -43v-312zM304 750q24 1 42.5 -18.5t19.5 -43.5t-18.5 -42.5t-43.5 -19.5q-21 -1 -44 18q-18 18 -18 44
q0 25 18.5 43t43.5 19z" />
    <glyph glyph-name="uni0BB30BBF.lli" horiz-adv-x="905" 
d="M39 249q0 93 46 164q52 82 140 84h3q76 0 122 -87v87h186q-29 32 -31 93v4q0 61 45 106q46 46 110 46h31q69 0 114 -61q42 -55 42 -126v-559h-63v559q0 45 -24 82q-27 42 -69 42h-31q-18 0 -35 -7.5t-29.5 -20.5t-20.5 -30t-8 -35v-4q0 -34 27 -61q28 -28 66 -28h62v-62
h-93v-435h-62v435h-155v-435h-62v249q0 69 -28 121q-35 65 -97 65q-63 0 -96 -65q-27 -51 -28 -121q3 10 11 20.5t19 19t23.5 14t24.5 5.5q29 0 49 -15t33 -37.5t19 -49.5t7 -51v-5q0 -53 -33 -98q-36 -51 -91 -52h-3q-53 0 -88 51q-33 47 -33 104v94zM161 249
q-26 0 -45 -34q-15 -28 -15 -60q0 -34 14 -60q17 -31 48 -33h2q19 0 36 22q16 19 20 41q4 15 4 30v5q0 30 -15 55q-18 32 -47 34h-2z" />
    <glyph glyph-name="uni0BB30BC0.llii" horiz-adv-x="777" 
d="M40 249q0 93 46 164q52 82 140 84h3q76 0 122 -87v87h155q-31 34 -31 93v31q0 51 36 88q37 37 88 37h62q19 0 36 -7.5t29.5 -20.5t20 -30t7.5 -36v-3q0 -34 -28 -62t-65 -28h-3q-78 0 -111 76q-4 -14 -6.5 -25t-3.5 -20q0 -18 7.5 -35t20.5 -30t30 -20.5t35 -7.5h93v-62
h-93v-435h-62v435h-155v-435h-62v249q0 69 -28 121q-35 65 -97 65q-63 0 -96 -65q-27 -51 -28 -121q3 10 11 20.5t19 19t23.5 14t24.5 5.5q29 0 49 -15t33 -37.5t19 -49.5t7 -51v-5q0 -53 -33 -98q-36 -51 -91 -52h-3q-53 0 -88 51q-33 47 -33 104v94zM599 683q0 -21 18 -44
q18 -18 44 -18q24 0 31 31q0 24 -31 31h-62zM162 249q-26 0 -45 -34q-15 -28 -15 -60q0 -34 14 -60q17 -31 48 -33h2q19 0 36 22q16 19 20 41q4 15 4 30v5q0 30 -15 55q-18 32 -47 34h-2z" />
    <glyph glyph-name="uni0BB30BC1.llu" horiz-adv-x="1010" 
d="M225 249q0 94 46 164q54 83 141 84h3q76 0 121 -87v87h342v-62h-94v-186q14 29 36 45t39 16q22 0 42.5 -10t36 -27t24.5 -39.5t9 -47.5v-62q0 -161 -139 -272q-128 -101 -296 -101h-62q-182 0 -309 127q-126 126 -126 308v31q0 76 38 146q37 70 104 105l35 -51
q-50 -26 -83 -84q-32 -59 -32 -116v-31q0 -156 108 -264q110 -108 265 -108h62q145 0 254 80q119 89 119 230v62q0 24 -15 43.5t-36 19.5q-11 0 -22.5 -6.5t-21.5 -17.5t-18 -25t-12 -29v-171h-62v435h-124v-435h-62v249q0 70 -27 121q-32 63 -97 65h-3q-32 0 -54.5 -16
t-39.5 -48q-13 -25 -20 -55.5t-8 -66.5q3 10 11 20.5t19 19t23.5 14t24.5 5.5q29 0 49 -15t33 -37.5t19 -49.5t7 -51v-5q0 -53 -33 -98q-36 -51 -91 -52h-3q-53 0 -88 51q-33 47 -33 104v94zM347 249q-26 0 -45 -34q-15 -28 -15 -60q0 -34 14 -60q17 -31 48 -33h2
q19 0 36 22q16 19 20 41q4 15 4 30v5q0 30 -15 55q-18 32 -47 34h-2z" />
    <glyph glyph-name="uni0BB30BC2.lluu" horiz-adv-x="1010" 
d="M784 249q0 24 19.5 43t43.5 19q51 1 87.5 -36.5t36.5 -88.5v-62q0 -161 -139 -272q-127 -101 -296 -101h-62q-190 0 -315 140q-120 134 -120 326v63q0 216 124 217q37 0 64.5 -28t28.5 -65t-26.5 -65t-64.5 -30l-2 2q-51 0 -64 44l-2 2l-2 -6l6 -71v-63q0 -164 103 -281
q108 -122 270 -122h62q146 0 254 80q119 89 119 230v62q0 24 -19 43t-43 20q-28 1 -47 -34q-16 -29 -16 -60v-155h-62v435h-124v-435h-62v249q0 70 -27 121q-33 64 -97 65t-97 -64q-26 -50 -28 -122q0 25 19 43.5t44 18.5q53 1 90 -53q33 -47 34 -103t-33 -103
q-36 -51 -91 -52q-56 -1 -92 51q-33 46 -33 104v94q0 93 46 164q54 83 141 84q79 1 124 -87v87h342v-62h-94v-186zM350 249q-29 1 -47 -34q-15 -28 -16 -60t15 -60q18 -32 48 -33q20 -1 38 22q15 18 20 41q4 16 4 30q1 32 -15 60q-18 33 -47 34zM163 435q-23 0 -31 -31
q0 -24 31 -31q24 0 31 31q0 24 -31 31z" />
    <glyph glyph-name="uni0BB30BCD.ll" horiz-adv-x="757" 
d="M102 249q3 10 11 20.5t19 19t23.5 14t24.5 5.5q29 0 49 -15t33 -37.5t19 -49.5t7 -51v-5q0 -53 -33 -98q-36 -51 -91 -52h-3q-53 0 -88 51q-33 47 -33 104v94q0 93 46 164q52 82 140 84h3q76 0 122 -87v87h372v-62h-93v-435h-62v435h-155v-435h-62v249q0 69 -28 121
q-35 65 -97 65q-63 0 -96 -65q-27 -51 -28 -121zM162 249q-26 0 -45 -34q-15 -28 -15 -60q0 -34 14 -60q17 -31 48 -33h2q19 0 36 22q16 19 20 41q4 15 4 30v5q0 30 -15 55q-18 32 -47 34h-2zM424 750q24 1 42.5 -18.5t19.5 -43.5t-18.5 -42.5t-43.5 -19.5q-21 -1 -44 18
q-18 18 -18 44q0 25 18.5 43t43.5 19z" />
    <glyph glyph-name="uni0BB10BBF.rri" horiz-adv-x="728" 
d="M577 249q1 -140 -69 -249q-80 -124 -211 -124h-124q-48 0 -83 -22q-41 -26 -41 -71v-32h-63v32q0 68 61 113q56 42 126 42h124q104 0 167 105q51 85 51 206q0 69 -28 121q-34 64 -97 65q-36 1 -64.5 -27.5t-28.5 -65.5v-342h-62v342q0 34 -14 60q-17 32 -48 33
q-20 1 -38 -22q-15 -18 -21 -41q-3 -11 -3 -30v-342h-62v342q0 57 33 103q36 51 91 52q45 1 95 -72q27 39 70 58q-40 54 -41 107q-1 64 45 110t110 46h31q79 0 133 -54t54 -133v-559h-62v559q0 51 -37 87.5t-88 36.5h-31q-37 0 -64.5 -28t-28.5 -65q-1 -47 31 -79
q14 -14 31 -14q85 -1 125 -87q30 -64 31 -161z" />
    <glyph glyph-name="uni0BB10BC0.rrii" horiz-adv-x="611" 
d="M429 491q66 -18 110 -97q37 -67 38 -145q1 -140 -69 -249q-80 -124 -211 -124h-124q-48 0 -83 -22q-41 -26 -41 -71v-32h-63v32q0 68 61 113q56 42 126 42h124q104 0 167 105q51 85 51 206q0 69 -28 121q-34 64 -97 65q-36 1 -64.5 -27.5t-28.5 -65.5v-342h-62v342
q0 34 -14 60q-17 32 -48 33q-20 1 -38 -22q-15 -18 -21 -41q-3 -11 -3 -30v-342h-62v342q0 57 33 103q36 51 91 52q45 1 95 -72q30 42 70 60q-41 49 -41 105v31q0 51 36.5 88t87.5 37h62q37 0 65 -28.5t29 -65.5t-28 -65t-66 -28q-81 -1 -114 76q-8 -27 -10 -45
q0 -60 70 -99zM421 683q0 -21 18 -44q18 -18 44 -18q25 0 32 31q0 31 -32 31h-62z" />
    <glyph glyph-name="uni0BB10BC1.rru" horiz-adv-x="728" 
d="M390 435q-36 1 -64.5 -28t-28.5 -65v-342h-62v342q0 34 -14 60q-17 32 -48 33q-20 1 -38 -22q-15 -18 -21 -41q-3 -11 -3 -30v-342h-62v342q0 57 33 103q36 51 91 52q45 1 95 -72q50 72 122 72q64 0 110 -45.5t46 -109.5v-249q0 -49 -24 -124h86v528h62v-590h-179
q-93 -156 -256 -156q-97 0 -162 30q-87 40 -87 126q0 26 18.5 44t44.5 18h405q29 58 29 124v249q0 36 -28.5 64t-64.5 29zM416 -93h-305q-45 0 -45 -14q0 -78 169 -79q109 -1 181 93z" />
    <glyph glyph-name="uni0BB10BC2.rruu" horiz-adv-x="995" 
d="M416 -93h-305q-45 0 -45 -14q0 -78 169 -79q109 -1 181 93zM839 0h-62v435h-107v-528h-179q-93 -156 -256 -156q-97 0 -162 30q-87 40 -87 126q0 26 18.5 44t44.5 18h405q29 58 29 124v249q0 36 -28.5 64t-64.5 29t-64.5 -28t-28.5 -65v-342h-62v342q0 34 -14 60
q-17 32 -48 33q-20 1 -38 -22q-15 -18 -21 -41q-3 -11 -3 -30v-342h-62v342q0 57 33 103q36 51 91 52q45 1 95 -72q50 72 122 72q64 0 110 -45.5t46 -109.5v-249q0 -49 -24 -124h86v528h355v-62h-124v-435z" />
    <glyph glyph-name="uni0BB10BCD.rr" horiz-adv-x="617" 
d="M391 435q-36 1 -64.5 -27.5t-28.5 -65.5v-342h-62v342q0 34 -14 60q-17 32 -48 33q-20 1 -38 -22q-15 -18 -21 -41q-3 -11 -3 -30v-342h-62v342q0 57 33 103q36 51 91 52q45 1 95 -72q50 72 122 72q85 0 140 -85q46 -71 47 -163q1 -140 -69 -249q-80 -124 -211 -124h-124
q-48 0 -83 -22q-41 -26 -41 -71v-32h-63v32q0 68 61 113q56 42 126 42h124q104 0 167 105q51 85 51 206q0 69 -28 121q-34 64 -97 65zM264 750q24 1 42.5 -18.5t19.5 -43.5t-18.5 -42.5t-43.5 -19.5q-21 -1 -44 18q-18 18 -18 44q0 25 18.5 43t43.5 19z" />
    <glyph glyph-name="uni0BA90BBF.nnni" horiz-adv-x="998" 
d="M753 497h63v-62h-94v-435h-62v435h-93q-37 0 -72 -16q72 -78 72 -170v-94q0 -57 -33 -103q-36 -51 -91 -52q-56 -1 -92 51q-33 46 -33 104v94q0 99 70 170q-45 16 -70 16h-31q-78 0 -132 -54t-54 -132q0 25 18.5 43.5t43.5 18.5q53 1 90 -53q33 -47 34 -103t-33 -103
q-36 -51 -91 -52t-91 51q-33 47 -33 104v94q0 106 71 177t177 71h31q63 0 125 -37q60 37 124 37h62q-30 33 -31 93q-1 64 45 110t110 46h31q69 0 114 -61q42 -55 42 -126v-559h-62v559q0 45 -24 82q-27 42 -70 42h-31q-37 0 -64.5 -28t-28.5 -65t27.5 -65t65.5 -28zM441 384
q-60 -51 -60 -135v-94q0 -34 14 -60q17 -32 48 -33q20 -1 38 22q15 19 20 41q4 18 4 30v94q0 80 -64 135zM163 249q-29 1 -47 -34q-15 -28 -15 -60q0 -34 14 -60q17 -32 48 -33q20 -1 38 22q15 18 20 41q4 16 4 30q1 32 -15 60q-18 33 -47 34z" />
    <glyph glyph-name="uni0BA90BC0.nnnii" horiz-adv-x="847" 
d="M598 497q-31 34 -31 93v31q0 51 36.5 88t87.5 37h62q37 0 65 -28.5t29 -65.5t-28 -65t-66 -28q-81 -1 -114 76q-8 -27 -10 -45q0 -37 28 -65t65 -28h94v-62h-94v-435h-62v435h-93q-37 0 -72 -16q72 -78 72 -170v-94q0 -57 -33 -103q-36 -51 -91 -52q-56 -1 -92 51
q-33 46 -33 104v94q0 99 70 170q-45 16 -70 16h-31q-78 0 -132 -54t-54 -132q0 25 18.5 43.5t43.5 18.5q53 1 90 -53q33 -47 34 -103t-33 -103q-36 -51 -91 -52t-91 51q-33 47 -33 104v94q0 106 71 177t177 71h31q63 0 125 -37q60 37 124 37h31zM441 384q-60 -51 -60 -135
v-94q0 -34 14 -60q17 -32 48 -33q20 -1 38 22q15 19 20 41q4 18 4 30v94q0 80 -64 135zM163 249q-29 1 -47 -34q-15 -28 -15 -60q0 -34 14 -60q17 -32 48 -33q20 -1 38 22q15 18 20 41q4 16 4 30q1 32 -15 60q-18 33 -47 34zM691 683q0 -21 18 -44q18 -18 44 -18q24 0 31 31
q0 24 -31 31h-62z" />
    <glyph glyph-name="uni0BA90BC1.nnnu" horiz-adv-x="1008" 
d="M779 -31h99v528h62v-590h-200q-51 -72 -130 -114t-167 -42h-280q-64 0 -109 46t-46 110q0 21 18 44q18 18 44 18h639q44 76 44 155v125q0 78 -54 132t-132 54q-37 0 -72 -16q72 -78 72 -170v-94q0 -57 -33 -103q-36 -51 -91 -52q-56 -1 -92 51q-33 46 -33 104v94
q0 99 70 170q-45 16 -70 16h-31q-78 0 -132 -54t-54 -132q0 25 18.5 43.5t43.5 18.5q53 1 90 -53q33 -47 34 -103t-33 -103q-36 -51 -91 -52t-91 51q-33 47 -33 104v94q0 106 71 177t177 71h31q63 0 125 -37q59 36 124 37q103 1 176 -72t73 -176v-125q0 -56 -37 -155z
M660 -93h-540q-10 0 -21 -10q-7 -8 -10 -21q0 -24 19 -43t43 -19h292q126 0 217 93zM441 384q-60 -51 -60 -135v-94q0 -34 14 -60q17 -32 48 -33q20 -1 38 22q15 19 20 41q4 18 4 30v94q0 80 -64 135zM163 249q-29 1 -47 -34q-15 -28 -15 -60q0 -34 14 -60q17 -32 48 -33
q20 -1 38 22q15 18 20 41q4 16 4 30q1 32 -15 60q-18 33 -47 34z" />
    <glyph glyph-name="uni0BA90BC2.nnnuu" horiz-adv-x="1270" 
d="M660 -93h-540q-10 0 -21 -10q-7 -8 -10 -21q0 -24 19 -43t43 -19h292q126 0 217 93zM441 384q-60 -51 -60 -135v-94q0 -34 14 -60q17 -32 48 -33q20 -1 38 22q15 19 20 41q4 18 4 30v94q0 80 -64 135zM163 249q-29 1 -47 -34q-15 -28 -15 -60q0 -34 14 -60q17 -32 48 -33
q20 -1 38 22q15 18 20 41q4 16 4 30q1 32 -15 60q-18 33 -47 34zM1119 0h-62v435h-117v-528h-200q-51 -72 -130 -114t-167 -42h-280q-64 0 -109 46t-46 110q0 21 18 44q18 18 44 18h639q44 76 44 155v125q0 78 -54 132t-132 54q-37 0 -72 -16q72 -78 72 -170v-94
q0 -57 -33 -103q-36 -51 -91 -52q-56 -1 -92 51q-33 46 -33 104v94q0 99 70 170q-45 16 -70 16h-31q-79 0 -132.5 -53.5t-53.5 -132.5q0 25 18.5 43.5t43.5 18.5q53 1 90 -53q33 -47 34 -103t-33 -103q-36 -51 -91 -52t-91 51q-33 47 -33 104v94q0 106 71 177t177 71h31
q63 0 125 -37q59 36 124 37q103 1 176 -72t73 -176v-125q0 -56 -37 -155h99v528h365v-62h-124v-435z" />
    <glyph glyph-name="uni0BA90BCD.nnn" horiz-adv-x="845" 
d="M567 435q-37 0 -72 -16q72 -78 72 -170v-94q0 -57 -33 -103q-36 -51 -91 -52q-56 -1 -92 51q-33 46 -33 104v94q0 99 70 170q-45 16 -70 16h-31q-78 0 -132 -54t-54 -132q0 25 18.5 43.5t43.5 18.5q53 1 90 -53q33 -47 34 -103t-33 -103q-36 -51 -91 -52t-91 51
q-33 47 -33 104v94q0 106 71 177t177 71h31q63 0 125 -37q60 37 124 37h249v-62h-94v-435h-62v435h-93zM441 384q-60 -51 -60 -135v-94q0 -34 14 -60q17 -32 48 -33q20 -1 38 22q15 19 20 41q4 18 4 30v94q0 80 -64 135zM163 249q-29 1 -47 -34q-15 -28 -15 -60
q0 -34 14 -60q17 -32 48 -33q20 -1 38 22q15 18 20 41q4 16 4 30q1 32 -15 60q-18 33 -47 34zM444 750q24 1 42.5 -18.5t19.5 -43.5t-18.5 -42.5t-43.5 -19.5q-21 -1 -44 18q-18 18 -18 44q0 25 18.5 43t43.5 19z" />
    <glyph glyph-name="uni0B9C0BBF.ji" horiz-adv-x="837" 
d="M744 559q0 44 -24 82q-27 42 -69 42h-62q-18 0 -35 -7.5t-29.5 -20.5t-20.5 -30t-8 -35v-3q0 -34 28 -62q18 -24 39 -30q61 -8 105 -52q54 -53 54 -132t-53.5 -133t-132.5 -54h-311q-51 0 -87 -36.5t-37 -87.5t35.5 -87t88.5 -37q36 -1 64 27.5t29 65.5q1 54 53 90
q47 34 103 34h93q57 0 103 -33q52 -36 52 -91v-31q0 -50 -37 -87t-87 -37h-62q-52 0 -87 36t-37 88h62q0 -24 19 -43t43 -19h62q24 0 43 19t19 43v31q0 28 -34 46q-30 16 -59 16h-93q-38 0 -65 -27.5t-28 -65.5q-1 -54 -53 -90q-47 -33 -103 -34q-79 -1 -132.5 53t-53.5 133
q0 78 54 132t132 54h311q51 0 87 37t37 88t-36 87t-88 37q-50 1 -87 -36.5t-37 -87.5v-94h-62v94q0 52 -36.5 87.5t-88.5 36.5q-10 0 -31 -6q39 -9 66 -43.5t27 -74.5q0 -51 -36.5 -87.5t-87.5 -37.5q-53 -1 -88.5 35.5t-35.5 89.5q0 78 54 132t132 54q93 0 156 -93
q39 61 93 82q-40 43 -41 104v4q0 59 46 105q47 47 110 47h62q68 0 113 -61q42 -56 42 -126v-559h-62v559zM138 398q-36 -33 -37 -87q0 -21 18 -44q18 -18 44 -18q24 0 43 19t19 43q1 60 -87 87z" />
    <glyph glyph-name="uni0B9C0BC0.jii" horiz-adv-x="758" 
d="M510 635q-8 -27 -10 -45q0 -38 26 -66q17 -18 36 -29q62 -7 106 -52q54 -53 54 -132t-53.5 -133t-132.5 -54h-311q-51 0 -87 -36.5t-37 -87.5t35.5 -87t88.5 -37q36 -1 64 27.5t29 65.5q1 54 53 90q47 34 103 34h93q57 0 103 -33q52 -36 52 -91v-31q0 -50 -37 -87
t-87 -37h-62q-52 0 -87 36t-37 88h62q0 -24 19 -43t43 -19h62q24 0 43 19t19 43v31q0 28 -34 46q-30 16 -59 16h-93q-38 0 -65 -27.5t-28 -65.5q-1 -54 -53 -90q-47 -33 -103 -34q-79 -1 -132.5 53t-53.5 133q0 78 54 132t132 54h311q51 0 87 37t37 88t-36 87t-88 37
q-50 1 -87 -36.5t-37 -87.5v-94h-62v94q0 52 -36.5 87.5t-88.5 36.5q-10 0 -31 -6q39 -9 66 -43.5t27 -74.5q0 -51 -36.5 -87.5t-87.5 -37.5q-53 -1 -88.5 35.5t-35.5 89.5q0 78 54 132t132 54q93 0 156 -93q40 62 96 83q-38 43 -39 103q-1 55 34 103q38 53 91 53h93
q37 0 64.5 -28.5t28.5 -65.5t-27.5 -65t-65.5 -28h-31q-81 0 -115 76zM138 398q-36 -33 -37 -87q0 -21 18 -44q18 -18 44 -18q24 0 43 19t19 43q1 60 -87 87zM563 683q0 -24 19 -43t43 -19h31q10 0 21 10q7 8 10 21q0 24 -31 31h-93z" />
    <glyph glyph-name="uni0B9C0BCD.j" horiz-adv-x="762" 
d="M536 -186q-52 0 -87 36t-37 88h62q0 -24 19 -43t43 -19h62q24 0 43 19t19 43v31q0 28 -34 46q-30 16 -59 16h-93q-38 0 -65 -27.5t-28 -65.5q-1 -54 -53 -90q-47 -33 -103 -34q-79 -1 -132.5 53t-53.5 133q0 78 54 132t132 54h311q51 0 87 37t37 88t-36 87t-88 37
q-50 1 -87 -36.5t-37 -87.5v-94h-62v94q0 52 -36.5 87.5t-88.5 36.5q-10 0 -31 -6q39 -9 66 -43.5t27 -74.5q0 -51 -36.5 -87.5t-87.5 -37.5q-53 -1 -88.5 35.5t-35.5 89.5q0 78 54 132t132 54q93 0 156 -93q60 93 155 93q79 0 132.5 -53.5t53.5 -132.5t-53.5 -133
t-132.5 -54h-311q-51 0 -87 -36.5t-37 -87.5t35.5 -87t88.5 -37q36 -1 64 27.5t29 65.5q1 54 53 90q47 34 103 34h93q57 0 103 -33q52 -36 52 -91v-31q0 -50 -37 -87t-87 -37h-62zM138 398q-36 -33 -37 -87q0 -21 18 -44q18 -18 44 -18q24 0 43 19t19 43q1 60 -87 87z
M383 746q24 1 42.5 -18.5t19.5 -43.5t-18.5 -42.5t-43.5 -19.5q-21 -1 -44 18q-18 18 -18 44q0 25 18.5 43t43.5 19z" />
    <glyph glyph-name="uni0BB70BBF.ssi" horiz-adv-x="868" 
d="M845 0h-102v-186h-62v186h-373v62q28 0 47 34q16 28 16 59v94q0 69 -28 121q-34 64 -97 65q-68 1 -114 -60q-40 -54 -41 -121q2 22 18 38q19 19 44 19q53 1 90 -53q33 -47 34 -103t-33 -103q-36 -51 -91 -52t-91 51q-33 47 -33 104v94q0 96 60 169q63 78 157 79
q84 1 140 -85q47 -72 47 -163v-94q0 -52 -29 -94h208q-64 3 -106 62q-42 56 -42 126v62q0 72 41 126q13 18 28 30q-8 6 -14 13q-46 45 -47 110v4q0 59 46 105q47 47 110 47h62q68 0 113 -61q42 -56 42 -126v-445h-62v445q0 44 -24 82q-27 42 -69 42h-62q-18 0 -35 -7.5
t-29.5 -20.5t-20.5 -30t-8 -35v-3q0 -34 28 -62q27 -26 59 -28h6q44 -4 78 -37q37 -37 37 -87v-312h102v-61zM619 435q-43 1 -70 -42q-23 -36 -23 -82v-62q0 -72 41 -126q45 -61 114 -62v312q0 24 -18.5 42.5t-43.5 19.5zM153 249q-29 1 -47 -34q-15 -28 -15 -60
q0 -34 14 -60q17 -32 48 -33q20 -1 38 22q15 18 20 41q4 16 4 30q1 32 -15 60q-18 33 -47 34z" />
    <glyph glyph-name="uni0BB70BC0.ssii" horiz-adv-x="848" 
d="M547 635q-8 -27 -10 -45q0 -38 28 -65t66 -28v-1q43 -4 75 -36q37 -37 37 -87v-312h73v-61h-73v-186h-62v186h-373v62q28 0 47 34q16 28 16 59v94q0 69 -28 121q-34 64 -97 65q-68 1 -114 -60q-40 -54 -41 -121q2 22 18 38q19 19 44 19q53 1 90 -53q33 -47 34 -103
t-33 -103q-36 -51 -91 -52t-91 51q-33 47 -33 104v94q0 96 60 169q63 78 157 79q84 1 140 -85q47 -72 47 -163v-94q0 -51 -29 -94h208q-64 3 -106 62q-42 56 -42 126v62q0 72 41 126q13 18 29 31q-7 5 -13 12q-45 45 -46 110q-1 55 34 103q38 53 91 53h93q37 0 64.5 -28.5
t28.5 -65.5t-27.5 -65t-65.5 -28h-31q-81 0 -115 76zM619 435q-43 1 -70 -42q-23 -36 -23 -82v-62q0 -72 41 -126q45 -61 114 -62v312q0 24 -18.5 42.5t-43.5 19.5zM153 249q-29 1 -47 -34q-15 -28 -15 -60q0 -34 14 -60q17 -32 48 -33q20 -1 38 22q15 18 20 41q4 16 4 30
q1 32 -15 60q-18 33 -47 34zM600 683q0 -24 19 -43t43 -19h31q10 0 21 10q7 8 10 21q0 24 -31 31h-93z" />
    <glyph glyph-name="uni0BB70BCD.ss" horiz-adv-x="853" 
d="M414 61h215q-68 0 -113 62q-42 56 -42 126v62q0 72 41 126q44 60 114 60q50 0 87 -37t37 -87v-312h73v-61h-73v-186h-62v186h-373v62q28 0 47 34q16 28 16 59v94q0 69 -28 121q-34 64 -97 65q-68 1 -114 -60q-41 -56 -41 -126q0 25 18.5 43.5t43.5 18.5q53 1 90 -53
q33 -47 34 -103t-33 -103q-36 -51 -91 -52t-91 51q-33 47 -33 104v94q0 96 60 169q63 78 157 79q84 1 140 -85q47 -72 47 -163v-94q0 -51 -29 -94zM163 249q-29 1 -47 -34q-15 -28 -15 -60q0 -34 14 -60q17 -32 48 -33q20 -1 38 22q15 18 20 41q4 16 4 30q1 32 -15 60
q-18 33 -47 34zM629 435q-43 1 -70 -42q-23 -36 -23 -82v-62q0 -72 41 -126q45 -61 114 -62v312q0 24 -18.5 42.5t-43.5 19.5zM448 746q24 1 42.5 -18.5t19.5 -43.5t-18.5 -42.5t-43.5 -19.5q-21 -1 -44 18q-18 18 -18 44q0 25 18.5 43t43.5 19z" />
    <glyph glyph-name="uni0BB80BBF.si" horiz-adv-x="932" 
d="M839 559q0 44 -24 82q-27 42 -69 42h-62q-18 0 -35 -7.5t-29.5 -20.5t-20.5 -30t-8 -35v-3q0 -34 28 -62q21 -20 44 -26l30 31q123 -120 123 -281v-63q0 -69 -28 -121q-34 -65 -97 -65h-31q-62 0 -96 65q-28 53 -28 121v125q0 54 -7 77q-14 46 -55 47q-62 2 -62 -124
v-311h-62v249q0 78 -13 118q-22 68 -81 68h-31q-63 0 -96 -65q-25 -48 -28 -116q2 22 18 38q19 19 44 19q53 1 90 -53q33 -47 34 -103t-33 -103q-36 -51 -91 -52t-91 51q-33 47 -33 104v94q0 92 46 164q54 84 140 84h31q76 0 117 -74q34 73 101 74q62 1 96 -65
q28 -55 28 -121v-125q0 -53 7 -77q14 -47 55 -47h31q40 0 54 46q8 26 8 78v63q0 63 -29 128q-14 31 -33 58h-7q-64 0 -109 45q-46 45 -47 110v4q0 59 46 105q47 47 110 47h62q68 0 113 -61q42 -56 42 -126v-559h-62v559zM163 249q-29 1 -47 -34q-15 -28 -15 -60
q0 -34 14 -60q17 -32 48 -33q20 -1 38 22q15 18 20 41q4 16 4 30q1 32 -15 60q-18 33 -47 34z" />
    <glyph glyph-name="uni0BB80BC0.sii" horiz-adv-x="854" 
d="M610 635q-8 -27 -10 -45q0 -38 28 -65q17 -17 37 -23l28 28q123 -120 123 -281v-63q0 -69 -28 -121q-34 -65 -97 -65h-31q-62 0 -96 65q-28 53 -28 121v125q0 54 -7 77q-14 46 -55 47q-62 2 -62 -124v-311h-62v249q0 78 -13 118q-22 68 -81 68h-31q-63 0 -96 -65
q-25 -48 -28 -116q2 22 18 38q19 19 44 19q53 1 90 -53q33 -47 34 -103t-33 -103q-36 -51 -91 -52t-91 51q-33 47 -33 104v94q0 92 46 164q54 84 140 84h31q76 0 117 -74q34 73 101 74q62 1 96 -65q28 -55 28 -121v-125q0 -53 7 -77q14 -47 55 -47h31q40 0 54 46q8 26 8 78
v63q0 63 -29 128q-14 31 -33 58q-63 1 -107 45q-45 45 -46 110q-1 55 34 103q38 53 91 53h93q37 0 64.5 -28.5t28.5 -65.5t-27.5 -65t-65.5 -28h-31q-81 0 -115 76zM163 249q-29 1 -47 -34q-15 -28 -15 -60q0 -34 14 -60q17 -32 48 -33q20 -1 38 22q15 18 20 41q4 16 4 30
q1 32 -15 60q-18 33 -47 34zM663 683q0 -24 19 -43t43 -19h31q10 0 21 10q7 8 10 21q0 24 -31 31h-93z" />
    <glyph glyph-name="uni0BB80BCD.s" horiz-adv-x="854" 
d="M412 311v-311h-62v249q0 78 -13 118q-22 68 -81 68h-31q-63 0 -96 -65q-26 -50 -28 -121q0 25 18.5 43.5t43.5 18.5q53 1 90 -53q33 -47 34 -103t-33 -103q-36 -51 -91 -52t-91 51q-33 47 -33 104v94q0 92 46 164q54 84 140 84h31q76 0 117 -74q34 73 101 74q62 1 96 -65
q28 -55 28 -121v-125q0 -53 7 -77q14 -47 55 -47h31q40 0 54 46q8 26 8 78v63q0 63 -29 128t-75 108l44 45q123 -120 123 -281v-63q0 -69 -28 -121q-34 -65 -97 -65h-31q-62 0 -96 65q-28 53 -28 121v125q0 54 -7 77q-14 46 -55 47q-62 2 -62 -124zM163 249q-29 1 -47 -34
q-15 -28 -15 -60q0 -34 14 -60q17 -32 48 -33q20 -1 38 22q15 18 20 41q4 16 4 30q1 32 -15 60q-18 33 -47 34zM461 746q24 1 42.5 -18.5t19.5 -43.5t-18.5 -42.5t-43.5 -19.5q-21 -1 -44 18q-18 18 -18 44q0 25 18.5 43t43.5 19z" />
    <glyph glyph-name="uni0BB90BBF.hi" horiz-adv-x="1256" 
d="M1165 559q0 44 -24 82q-27 42 -69 42h-62q-18 0 -35 -7.5t-29.5 -20.5t-20.5 -30t-8 -35v-3q0 -34 28 -62q21 -20 40 -29q54 -5 95 -45q46 -46 46 -109v-218q0 -106 -71 -177t-177 -71h-653q-44 0 -81 -24q-43 -27 -43 -69v-32h-62v32q0 68 61 113q55 42 125 42h653
q78 0 132 54t54 132v218q0 36 -28.5 64t-64.5 29q-37 1 -65 -27.5t-28 -65.5v-342h-62v342q0 36 -29 64t-65 29t-64.5 -28t-28.5 -65v-342h-311v62q28 0 47 34q16 28 16 59v94q0 69 -28 121q-34 64 -97 65q-68 1 -114 -60q-40 -54 -41 -121q2 22 18 38q19 19 44 19
q53 1 90 -53q33 -47 34 -103t-33 -103q-36 -51 -91 -52t-91 51q-33 47 -33 104v94q0 96 60 169q63 78 157 79q84 1 140 -85q47 -72 47 -163v-94q0 -52 -29 -94h153v281q0 63 46 108.5t109 46.5q74 1 123 -66q24 33 55 49q-45 45 -46 110v4q0 59 46 105q47 47 110 47h62
q68 0 113 -61q42 -56 42 -126v-559h-62v559zM163 249q-29 1 -47 -34q-15 -28 -15 -60q0 -34 14 -60q17 -32 48 -33q20 -1 38 22q15 18 20 41q4 16 4 30q1 32 -15 60q-18 33 -47 34z" />
    <glyph glyph-name="uni0BB90BC0.hii" horiz-adv-x="1170" 
d="M929 635q-8 -27 -10 -45q0 -38 28 -65q21 -21 48 -30q48 -7 85 -44q46 -46 46 -109v-218q0 -106 -71 -177t-177 -71h-653q-44 0 -81 -24q-43 -27 -43 -69v-32h-62v32q0 68 61 113q55 42 125 42h653q78 0 132 54t54 132v218q0 36 -28.5 64t-64.5 29q-37 1 -65 -27.5
t-28 -65.5v-342h-62v342q0 36 -29 64t-65 29t-64.5 -28t-28.5 -65v-342h-311v62q28 0 47 34q16 28 16 59v94q0 69 -28 121q-34 64 -97 65q-68 1 -114 -60q-40 -54 -41 -121q2 22 18 38q19 19 44 19q53 1 90 -53q33 -47 34 -103t-33 -103q-36 -51 -91 -52t-91 51
q-33 47 -33 104v94q0 96 60 169q63 78 157 79q84 1 140 -85q47 -72 47 -163v-94q0 -52 -29 -94h153v281q0 63 46 108.5t109 46.5q74 1 123 -66q24 34 57 50q-44 44 -45 109q-1 55 34 103q38 53 91 53h93q37 0 64.5 -28.5t28.5 -65.5t-27.5 -65t-65.5 -28h-31q-81 0 -115 76z
M163 249q-29 1 -47 -34q-15 -28 -15 -60q0 -34 14 -60q17 -32 48 -33q20 -1 38 22q15 18 20 41q4 16 4 30q1 32 -15 60q-18 33 -47 34zM982 683q0 -24 19 -43t43 -19h31q10 0 21 10q7 8 10 21q0 24 -31 31h-93z" />
    <glyph glyph-name="uni0BB90BCD.h" horiz-adv-x="1170" 
d="M414 61h153v281q0 63 46 108.5t109 46.5q74 1 123 -66q48 66 126 66q63 0 109 -46t46 -109v-218q0 -106 -71 -177t-177 -71h-653q-44 0 -81 -24q-43 -27 -43 -69v-32h-62v32q0 68 61 113q55 42 125 42h653q78 0 132 54t54 132v218q0 36 -28.5 64t-64.5 29
q-37 1 -65 -27.5t-28 -65.5v-342h-62v342q0 36 -29 64t-65 29t-64.5 -28t-28.5 -65v-342h-311v62q28 0 47 34q16 28 16 59v94q0 69 -28 121q-34 64 -97 65q-68 1 -114 -60q-41 -56 -41 -126q0 25 18.5 43.5t43.5 18.5q53 1 90 -53q33 -47 34 -103t-33 -103q-36 -51 -91 -52
t-91 51q-33 47 -33 104v94q0 96 60 169q63 78 157 79q84 1 140 -85q47 -72 47 -163v-94q0 -52 -29 -94zM163 249q-29 1 -47 -34q-15 -28 -15 -60q0 -34 14 -60q17 -32 48 -33q20 -1 38 22q15 18 20 41q4 16 4 30q1 32 -15 60q-18 33 -47 34zM618 746q24 1 42.5 -18.5
t19.5 -43.5t-18.5 -42.5t-43.5 -19.5q-21 -1 -44 18q-18 18 -18 44q0 25 18.5 43t43.5 19z" />
    <glyph glyph-name="uni0B950BCD0BB7.xa" horiz-adv-x="1256" 
d="M352 435h-124v-124h124v124zM228 62q50 -1 87 36.5t37 87.5v63h-186q-25 0 -43.5 -19t-18.5 -44q-1 -51 36 -87t88 -37zM570 221q-31 -26 -31 -66v-62q0 -10 10 -21q8 -7 21 -10q24 0 31 31v62q0 36 -31 66zM1037 435q-43 1 -70 -42q-23 -36 -23 -82v-62q0 -72 41 -126
q45 -61 114 -62v312q0 24 -18.5 42.5t-43.5 19.5zM725 0v31q62 21 62 86v38q0 52 -46 80q-1 1 -47 14h-62q31 -37 31 -94v-62q0 -37 -28 -64.5t-65 -28.5t-65 27.5t-28 65.5v62q0 57 31 94h-93v-63q0 -80 -53.5 -133t-133.5 -53q-78 0 -132 54t-54 132q0 52 36 88t88 37v186
h404v-62h-155v-124h93q33 0 62 -16q30 16 62 16h62q63 0 109.5 -46.5t46.5 -109.5v-38q0 -14 -10 -32t-22 -24h203q-62 0 -103 66q-36 56 -36 122v62q0 72 41 126q44 60 114 60q50 0 87 -37t37 -87v-312h75v-61h-75v-186h-62v186h-374z" />
    <glyph glyph-name="uni0B950BCD0BB70BBF.xi" horiz-adv-x="1312" 
d="M1211 559q0 44 -24 82q-27 42 -69 42h-62q-18 0 -35 -7.5t-29.5 -20.5t-20.5 -30t-8 -35v-3q0 -34 28 -62q20 -19 42 -28h4q50 0 87 -37t37 -87v-312h112v-61h-112v-186h-62v186h-374v31q62 21 62 86v38q0 52 -46 80q-1 1 -47 14h-62q31 -37 31 -94v-62q0 -37 -28 -64.5
t-65 -28.5t-65 27.5t-28 65.5v62q0 57 31 94h-93v-63q0 -80 -53.5 -133t-133.5 -53q-78 0 -132 54t-54 132q0 52 36 88t88 37v186h404v-62h-155v-124h93q33 0 62 -16q30 16 62 16h62q63 0 109.5 -46.5t46.5 -109.5v-38q0 -14 -10 -32t-22 -24h197q-58 3 -97 66
q-36 56 -36 122v62q0 72 41 126q15 21 33 34q-5 4 -9 9q-46 45 -47 110v4q0 59 46 105q47 47 110 47h62q68 0 113 -61q42 -56 42 -126v-464h-62v464zM1037 435q-43 1 -70 -42q-23 -36 -23 -82v-62q0 -72 41 -126q45 -61 114 -62v312q0 24 -18.5 42.5t-43.5 19.5zM228 62
q50 -1 87 36.5t37 87.5v63h-186q-25 0 -43.5 -19t-18.5 -44q-1 -51 36 -87t88 -37zM352 435h-124v-124h124v124zM570 221q-31 -26 -31 -66v-62q0 -10 10 -21q8 -7 21 -10q24 0 31 31v62q0 36 -31 66z" />
    <glyph glyph-name="uni0B950BCD0BB70BC0.xii" horiz-adv-x="1256" 
d="M962 635q-8 -27 -10 -45q0 -38 28 -65q26 -26 62 -28h4q44 -4 78 -37q37 -37 37 -87v-312h75v-61h-75v-186h-62v186h-374v31q62 21 62 86v38q0 52 -46 80q-1 1 -47 14h-62q31 -37 31 -94v-62q0 -37 -28 -64.5t-65 -28.5t-65 27.5t-28 65.5v62q0 57 31 94h-93v-63
q0 -80 -53.5 -133t-133.5 -53q-78 0 -132 54t-54 132q0 52 36 88t88 37v186h404v-62h-155v-124h93q33 0 62 -16q30 16 62 16h62q63 0 109.5 -46.5t46.5 -109.5v-38q0 -14 -10 -32t-22 -24h197q-58 3 -97 66q-36 56 -36 122v62q0 72 41 126q13 17 27 30q-7 6 -14 13
q-45 45 -46 110q-1 55 34 103q38 53 91 53h93q37 0 64.5 -28.5t28.5 -65.5t-27.5 -65t-65.5 -28h-31q-81 0 -115 76zM1037 435q-43 1 -70 -42q-23 -36 -23 -82v-62q0 -72 41 -126q45 -61 114 -62v312q0 24 -18.5 42.5t-43.5 19.5zM228 62q50 -1 87 36.5t37 87.5v63h-186
q-25 0 -43.5 -19t-18.5 -44q-1 -51 36 -87t88 -37zM352 435h-124v-124h124v124zM570 221q-31 -26 -31 -66v-62q0 -10 10 -21q8 -7 21 -10q24 0 31 31v62q0 36 -31 66zM1015 683q0 -24 19 -43t43 -19h31q10 0 21 10q7 8 10 21q0 24 -31 31h-93z" />
    <glyph glyph-name="uni0B950BCD0BB70BCD.x" horiz-adv-x="1256" 
d="M352 435h-124v-124h124v124zM228 62q50 -1 87 36.5t37 87.5v63h-186q-25 0 -43.5 -19t-18.5 -44q-1 -51 36 -87t88 -37zM570 221q-31 -26 -31 -66v-62q0 -10 10 -21q8 -7 21 -10q24 0 31 31v62q0 36 -31 66zM1037 435q-43 1 -70 -42q-23 -36 -23 -82v-62q0 -72 41 -126
q45 -61 114 -62v312q0 24 -18.5 42.5t-43.5 19.5zM725 0v31q62 21 62 86v38q0 52 -46 80q-1 1 -47 14h-62q31 -37 31 -94v-62q0 -37 -28 -64.5t-65 -28.5t-65 27.5t-28 65.5v62q0 57 31 94h-93v-63q0 -80 -53.5 -133t-133.5 -53q-78 0 -132 54t-54 132q0 52 36 88t88 37v186
h404v-62h-155v-124h93q33 0 62 -16q30 16 62 16h62q63 0 109.5 -46.5t46.5 -109.5v-38q0 -14 -10 -32t-22 -24h203q-62 0 -103 66q-36 56 -36 122v62q0 72 41 126q44 60 114 60q50 0 87 -37t37 -87v-312h75v-61h-75v-186h-62v186h-374zM709 746q24 1 42.5 -18.5t19.5 -43.5
t-18.5 -42.5t-43.5 -19.5q-21 -1 -44 18q-18 18 -18 44q0 25 18.5 43t43.5 19z" />
    <glyph glyph-name="uni0BB60BBF.shi" horiz-adv-x="939" 
d="M844 559q0 44 -24 82q-27 42 -69 42h-62q-18 0 -35 -7.5t-29.5 -20.5t-20.5 -30t-8 -35v-3q0 -34 28 -62q30 -28 65 -28h39v-1h41v-342q0 -27 -10.5 -54t-30.5 -49.5t-49 -36.5t-66 -14q-63 0 -109 45q-45 45 -45 108v282h-109v-281q0 -31 -13.5 -59t-36.5 -49
t-52.5 -33.5t-60.5 -12.5q-26 0 -52 11.5t-47 32t-34.5 49t-13.5 61.5v342h62v-342q0 -38 28 -66t65 -27q37 2 64 29q30 30 30 64v342h276q-31 40 -32 94v4q0 59 46 105q47 47 110 47h62q68 0 113 -61q42 -56 42 -126v-559h-62v559zM678 90q30 30 30 64v281h-19h-7h-162
v-281q0 -37 28 -65q14 -14 32 -21t36 -7q19 0 33.5 7.5t28.5 21.5z" />
    <glyph glyph-name="uni0BB60BC0.shii" horiz-adv-x="808" 
d="M590 635q-8 -27 -10 -45q0 -38 28 -65t66 -28h55v-1h40v-342q0 -27 -10.5 -54t-30.5 -49.5t-49 -36.5t-66 -14q-63 0 -109 45q-45 45 -45 108v282h-109v-281q0 -31 -13.5 -59t-36.5 -49t-52.5 -33.5t-60.5 -12.5q-26 0 -52 11.5t-47 32t-34.5 49t-13.5 61.5v342h62v-342
q0 -38 28 -66t65 -27q37 2 64 29q30 30 30 64v342h261q-31 40 -32 94q-1 55 34 103q38 53 91 53h93q37 0 64.5 -28.5t28.5 -65.5t-27.5 -65t-65.5 -28h-31q-81 0 -115 76zM678 90q30 30 30 64v281h-188v-281q0 -37 28 -65q14 -14 32 -21t36 -7q19 0 33.5 7.5t28.5 21.5z
M643 683q0 -24 19 -43t43 -19h31q10 0 21 10q7 8 10 21q0 24 -31 31h-93z" />
    <glyph glyph-name="uni0BB60BCD.sh" horiz-adv-x="805" 
d="M187 0q31 0 60.5 12.5t52.5 33.5t36.5 49t13.5 59v281h109v-282q0 -63 45 -108q46 -45 109 -45q37 0 66 14t49 36.5t30.5 49.5t10.5 54v342h-480v-342q0 -34 -30 -64q-27 -27 -64 -29q-37 -1 -65 27t-28 66v342h-62v-342q0 -33 13.5 -61.5t34.5 -49t47 -32t52 -11.5z
M678 90q-14 -14 -28.5 -21.5t-33.5 -7.5q-18 0 -36 7t-32 21q-28 28 -28 65v281h188v-281q0 -34 -30 -64zM382 749q24 1 42.5 -18.5t19.5 -43.5t-18.5 -42.5t-43.5 -19.5q-21 -1 -44 18q-18 18 -18 44q0 25 18.5 43t43.5 19z" />
    <glyph glyph-name="uni0BA30BBE.nnaa.ornl" horiz-adv-x="1288" 
d="M150 464l35 -50q-39 -24 -62 -70.5t-23 -94.5v-63q0 -88 44 -157.5t118.5 -117t172.5 -72.5t205 -25h64q115 0 204.5 30.5t151.5 81.5t94.5 118.5t32.5 141.5v63q0 76 -55 131t-131 55q-39 0 -72 -16q72 -76 72 -170v-94q0 -53 -35 -102q-38 -53 -89 -53q-52 0 -90 53
q-35 49 -35 102v94q0 100 70 170q-36 16 -70 16h-31q-38 0 -71 -16q71 -79 71 -170v-94q0 -55 -34 -102q-38 -53 -90 -53t-90 53q-34 47 -34 102v94q0 103 70 170q-36 16 -70 16h-31q-77 0 -132 -55t-55 -131q0 25 18.5 43.5t43.5 18.5q52 0 90 -53q35 -50 35 -103t-35 -102
q-38 -53 -90 -53q-51 0 -89 53q-35 49 -35 102v94q0 100 74 174t175 74h31q65 0 124 -37q55 37 124 37h31q66 0 125 -37q55 37 124 37q101 0 175 -74t74 -174v-63q0 -87 -38.5 -166t-109.5 -138.5t-171 -95t-222 -35.5h-69q-128 0 -238 30.5t-191 86.5t-127 137t-46 181v63
q0 32 8 63t22.5 59.5t35.5 52.5t46 40zM595 384q-60 -52 -60 -135v-94q0 -31 16 -59q18 -34 46 -34t46 34q16 28 16 59v94q0 80 -64 135zM317 249q-26 0 -46 -35q-16 -28 -16 -59t16 -59q19 -34 46 -34q28 0 47 34q16 28 16 59t-16 59q-20 35 -47 35zM875 384
q-60 -52 -60 -135v-94q0 -31 16 -59q18 -34 46 -34q27 0 46 34q16 28 16 59v94q0 80 -64 135z" />
    <glyph glyph-name="uni0BB10BBE.rraa.ornl" horiz-adv-x="754" 
d="M145 489l53 -35q-41 -66 -60 -115q-37 -92 -37 -199q0 -139 74 -228q81 -98 225 -98q44 0 88.5 13t80.5 38t59 62.5t23 85.5q0 26 -9.5 46t-21 39.5t-21 41.5t-9.5 52q0 23 9.5 43t21.5 38t21.5 35t9.5 33q0 24 -9 41.5t-23 29t-31 17.5t-34 6q-36 0 -65 -29
q-28 -28 -28 -64v-342h-62v342q0 31 -16 59q-19 34 -46 34q-28 0 -46 -34q-16 -28 -16 -59v-342h-63v342q0 53 35 102q38 53 90 53q49 0 95 -72q50 72 122 72q29 0 57.5 -10t51.5 -29.5t37 -48.5t14 -66q0 -24 -10 -44t-21.5 -38t-21.5 -35t-10 -34q0 -28 10 -48t21.5 -40.5
t21.5 -44t10 -59.5q0 -57 -28.5 -103t-73.5 -78.5t-101 -50t-112 -17.5q-172 0 -269 112q-92 107 -92 277q0 195 106 349z" />
    <glyph glyph-name="uni0BA90BBE.nnnaa.ornl" horiz-adv-x="1010" 
d="M536 -249q-105 0 -196 32t-157.5 89.5t-105 137.5t-38.5 176v63q0 32 8 63t22.5 59.5t35.5 52.5t46 40l35 -50q-39 -24 -62 -70.5t-23 -94.5v-63q0 -83 33.5 -151.5t92 -117t138 -75.5t171.5 -27q95 0 165.5 30t116.5 81t68.5 118.5t22.5 141.5v63q0 75 -56 131
q-55 55 -131 55q-39 0 -72 -16q72 -76 72 -170v-94q0 -55 -34 -102q-38 -53 -90 -53t-90 53q-34 47 -34 102v94q0 103 70 170q-36 16 -70 16h-31q-77 0 -132 -55t-55 -131q0 25 18.5 43.5t43.5 18.5q52 0 90 -53q35 -50 35 -103t-35 -102q-38 -53 -90 -53q-51 0 -89 53
q-35 49 -35 102v94q0 100 74 174t175 74h31q65 0 124 -37q55 37 124 37q101 0 175 -74t74 -174v-63q0 -87 -26.5 -166t-80 -138.5t-135.5 -95t-193 -35.5zM596 384q-60 -52 -60 -135v-94q0 -31 16 -59q18 -34 46 -34t46 34q16 28 16 59v94q0 80 -64 135zM318 249
q-26 0 -46 -35q-16 -28 -16 -59t16 -59q19 -34 46 -34q28 0 47 34q16 28 16 59t-16 59q-20 35 -47 35z" />
    <glyph glyph-name="uni0BB20BC8.lai.ornl" horiz-adv-x="1196" 
d="M504 249q0 96 60 169q63 78 157 79q64 1 110 -45t46 -110v-187q0 -19 7.5 -36t20 -29.5t29.5 -20t36 -7.5q62 -1 97 65q27 53 27 122q0 134 -105 236l45 45q120 -116 122 -281q2 -93 -45 -165q-52 -82 -141 -84q-63 -1 -109 45t-46 110v187q0 35 -29 64q-27 27 -65 29
q-68 2 -113 -60q-21 -28 -30.5 -55.5t-13.5 -47.5q11 17 28.5 28t35.5 11q33 0 56.5 -14.5t38 -37t21.5 -50.5t8 -54t-8 -53.5t-25.5 -49.5t-39.5 -36.5t-51 -15.5q-25 -1 -46 10t-36.5 29t-25.5 41.5t-14 47.5q-46 -59 -108.5 -93.5t-137.5 -34.5h-10q-45 0 -83.5 16
t-67 42.5t-44.5 61t-16 72.5q0 62 27 96.5t67.5 54t87.5 31t87.5 28t67.5 44.5t27 81q0 30 -8.5 58t-26.5 49.5t-45.5 34.5t-66.5 13q-19 0 -30 -0.5t-18.5 -2t-13.5 -3.5l-15 -5q28 -3 49.5 -14.5t35.5 -27.5t21.5 -35t7.5 -37q0 -25 -9.5 -47t-26.5 -38.5t-40 -26.5
t-50 -10t-50.5 10t-41 27t-27 39.5t-9.5 47.5q0 45 19.5 79.5t51 58.5t71.5 36.5t81 12.5q42 0 79.5 -16.5t65.5 -45.5t44 -69t16 -88q0 -67 -27 -105t-67.5 -60t-87.5 -34t-87.5 -27t-67.5 -39t-27 -70q0 -25 10.5 -48t29.5 -41t46.5 -28.5t60.5 -10.5h13q48 0 86.5 15.5
t68.5 39.5t51.5 52.5t34.5 53.5v24zM628 249q-15 1 -27 -9t-19.5 -24.5t-11.5 -31t-4 -29.5q0 -15 3.5 -31t11 -29.5t19.5 -22.5t28 -10q19 -1 38 22q12 14 18 33.5t6 37.5q1 14 -3 30t-12 30t-20 23.5t-27 10.5zM143 640q-22 -14 -31 -34.5t-9 -46.5q0 -25 19.5 -43.5
t44.5 -18.5t44.5 14t19.5 46q0 29 -23 52.5t-65 30.5z" />
    <glyph glyph-name="uni0BB30BC8.llai.ornl" horiz-adv-x="1222" 
d="M562 249q3 10 11 20.5t19 19t23.5 14t24.5 5.5q29 0 49 -15t33 -37.5t19 -49.5t7 -51v-5q0 -53 -33 -98q-36 -51 -91 -52h-3q-53 0 -88 51q-23 32 -31 72q-45 -57 -107 -90t-135 -33h-10q-45 0 -83.5 16t-67 42.5t-44.5 61.5t-16 72q0 62 27 96.5t67.5 54t87.5 31
t87.5 28t67.5 44.5t27 81q0 30 -8.5 58t-26.5 49.5t-45.5 34.5t-66.5 13q-19 0 -30 -0.5t-18.5 -2t-13.5 -3.5l-15 -5q28 -3 49.5 -14.5t35.5 -27.5t21.5 -35t7.5 -37q0 -25 -9.5 -47t-26.5 -38.5t-40 -26.5t-50 -10t-50.5 10t-41 27t-27 39.5t-9.5 47.5q0 45 19.5 79.5
t51 58.5t71.5 36.5t81 12.5q42 0 79.5 -16.5t65.5 -45.5t44 -69t16 -88q0 -67 -27 -105t-67.5 -60t-87.5 -34t-87.5 -27t-67.5 -39t-27 -70q0 -25 10.5 -48t29.5 -41t46.5 -28.5t60.5 -10.5h13q45 0 82 12.5t66.5 33t51.5 45t37 48.5v46q0 94 46 164q53 83 140 84h3
q76 0 122 -87v87h372v-62h-93v-435h-62v435h-155v-435h-62v249q0 69 -28 121q-35 65 -97 65q-63 0 -96 -65q-26 -50 -28 -121zM622 249q-26 0 -45 -34q-15 -28 -15 -60q0 -34 14 -60q17 -31 48 -33h2q20 0 36 22q15 18 20 41q4 13 4 30v5q0 30 -15 55q-19 33 -47 34h-2z
M143 640q-22 -14 -31 -34.5t-9 -46.5q0 -25 19.5 -43.5t44.5 -18.5t44.5 14t19.5 46q0 29 -23 52.5t-65 30.5z" />
    <glyph glyph-name="uni0BA30BC8.nnai.ornl" horiz-adv-x="1585" 
d="M1018 435q-39 0 -72 -16q72 -78 72 -170v-94q0 -56 -33 -103q-36 -51 -91 -52t-91 51q-33 47 -33 104v94q0 98 69 170q-39 16 -69 16h-32q-78 0 -132 -54t-54 -132q9 26 30 44t46 18q30 0 50.5 -15t33.5 -38t19 -50.5t7 -52.5q1 -26 -7 -53.5t-24 -50t-39.5 -37
t-53.5 -14.5q-23 0 -42.5 9.5t-35 25.5t-26 36.5t-15.5 42.5q-45 -53 -105 -83.5t-130 -30.5h-10q-45 0 -83.5 16t-67 42.5t-44.5 61t-16 72.5q0 62 27 96.5t67.5 54t87.5 31t87.5 28t67.5 44.5t27 81q0 30 -8.5 58t-26.5 49.5t-45.5 34.5t-66.5 13q-19 0 -30 -0.5t-18.5 -2
t-13.5 -3.5l-15 -5q28 -3 49.5 -14.5t35.5 -27.5t21.5 -35t7.5 -37q0 -25 -9.5 -47t-26.5 -38.5t-40 -26.5t-50 -10t-50.5 10t-41 27t-27 39.5t-9.5 47.5q0 45 19.5 79.5t51 58.5t71.5 36.5t81 12.5q42 0 79.5 -16.5t65.5 -45.5t44 -69t16 -88q0 -67 -27 -105t-67.5 -60
t-87.5 -34t-87.5 -27t-67.5 -39t-27 -70q0 -25 10.5 -48t29.5 -41t46.5 -28.5t60.5 -10.5h13q42 0 77.5 12.5t63.5 32t49.5 44t36.5 48.5v48q0 106 71 177t177 71h32q63 0 124 -37q59 37 124 37h31q63 0 124 -37q58 37 125 37h248v-62h-93v-435h-62v435h-93q-41 0 -72 -16
q72 -78 72 -170v-94q0 -57 -34 -103q-36 -51 -91 -52t-91 51q-33 47 -33 104v94q0 100 70 170q-39 16 -70 16h-31zM1171 384q-60 -54 -60 -135v-94q0 -48 31 -79q12 -12 31 -14q24 -1 47 34q16 29 16 59v94q0 79 -65 135zM892 384q-60 -51 -60 -135v-94q0 -34 14 -60
q17 -31 48 -33q19 -1 38 22q16 21 20 41q4 16 4 30v94q0 80 -64 135zM614 249q-28 1 -47 -34q-15 -28 -15 -60q0 -34 14 -60q17 -31 48 -33q19 -1 38 22q16 19 20 41q4 15 4 30q2 32 -15 60q-18 32 -47 34zM143 640q-22 -14 -31 -34.5t-9 -46.5q0 -25 19.5 -43.5t44.5 -18.5
t44.5 14t19.5 46q0 29 -23 52.5t-65 30.5z" />
    <glyph glyph-name="uni0BA90BC8.nnnai.ornl" horiz-adv-x="1305" 
d="M738 435q-78 0 -132 -54t-54 -132q9 26 30 44t46 18q30 0 50.5 -15t33.5 -38t19 -50.5t7 -52.5q1 -26 -7 -53.5t-24 -50t-39.5 -37t-53.5 -14.5q-23 0 -42.5 9.5t-35 25.5t-26 36.5t-15.5 42.5q-45 -53 -105 -83.5t-130 -30.5h-10q-45 0 -83.5 16t-67 42.5t-44.5 61
t-16 72.5q0 62 27 96.5t67.5 54t87.5 31t87.5 28t67.5 44.5t27 81q0 30 -8.5 58t-26.5 49.5t-45.5 34.5t-66.5 13q-19 0 -30 -0.5t-18.5 -2t-13.5 -3.5l-15 -5q28 -3 49.5 -14.5t35.5 -27.5t21.5 -35t7.5 -37q0 -25 -9.5 -47t-26.5 -38.5t-40 -26.5t-50 -10t-50.5 10t-41 27
t-27 39.5t-9.5 47.5q0 45 19.5 79.5t51 58.5t71.5 36.5t81 12.5q42 0 79.5 -16.5t65.5 -45.5t44 -69t16 -88q0 -67 -27 -105t-67.5 -60t-87.5 -34t-87.5 -27t-67.5 -39t-27 -70q0 -25 10.5 -48t29.5 -41t46.5 -28.5t60.5 -10.5h13q42 0 77.5 12.5t63.5 32t49.5 44t36.5 48.5
v48q0 106 71 177t177 71h31q63 0 124 -37q58 37 125 37h248v-62h-93v-435h-62v435h-93q-41 0 -72 -16q72 -78 72 -170v-94q0 -57 -34 -103q-36 -51 -91 -52t-91 51q-33 47 -33 104v94q0 100 70 170q-39 16 -70 16h-31zM891 384q-60 -54 -60 -135v-94q0 -48 31 -79
q12 -12 31 -14q24 -1 47 34q16 29 16 59v94q0 79 -65 135zM614 249q-28 1 -47 -34q-15 -28 -15 -60q0 -34 14 -60q17 -31 48 -33q19 -1 38 22q16 19 20 41q4 15 4 30q2 32 -15 60q-18 32 -47 34zM143 640q-22 -14 -31 -34.5t-9 -46.5q0 -25 19.5 -43.5t44.5 -18.5t44.5 14
t19.5 46q0 29 -23 52.5t-65 30.5z" />
    <glyph glyph-name="uni0BBF.i.dotted" horiz-adv-x="721" 
d="M617 559q0 21 -6 43t-18 40t-30.5 29.5t-44.5 11.5h-47q-22 0 -41 -7.5t-32.5 -20.5t-21 -30t-7.5 -35q0 -19 8 -36t20.5 -29.5t29.5 -20t35 -7.5h39v-62h-39q-33 0 -61.5 13t-49.5 35t-33 50.5t-12 60.5q0 31 13.5 59t36.5 48.5t53 32.5t63 12h47q38 0 68 -17.5
t50.5 -44.5t31 -60.5t10.5 -64.5v-559h-62v559zM147 426q0 15 9.5 24.5t24.5 9.5q13 0 22.5 -9.5t9.5 -24.5t-9.5 -24t-22.5 -9q-15 0 -24.5 9t-9.5 24zM77 329q0 15 9 24t24 9q14 0 23 -9t9 -24t-9 -24t-23 -9q-15 0 -24 9t-9 24zM64 218q0 15 9.5 24t23.5 9q15 0 24.5 -9
t9.5 -24t-9.5 -24t-24.5 -9q-14 0 -23.5 9t-9.5 24zM110 115q0 15 9.5 24t22.5 9q15 0 24.5 -9t9.5 -24t-9.5 -24t-24.5 -9q-13 0 -22.5 9t-9.5 24zM199 48q0 15 9.5 24t24.5 9q13 0 22.5 -9t9.5 -24t-9.5 -24t-22.5 -9q-15 0 -24.5 9t-9.5 24zM312 35q0 14 9 23.5t24 9.5
t24 -9.5t9 -23.5q0 -15 -9 -24.5t-24 -9.5t-24 9.5t-9 24.5zM418 81q0 15 9 24.5t24 9.5t24 -9.5t9 -24.5q0 -14 -9 -23.5t-24 -9.5t-24 9.5t-9 23.5zM482 168q0 15 9.5 24t23.5 9t23.5 -9t9.5 -24t-9.5 -24t-23.5 -9t-23.5 9t-9.5 24zM491 286q0 15 9.5 24t23.5 9
q15 0 24.5 -9t9.5 -24t-9.5 -24t-24.5 -9q-14 0 -23.5 9t-9.5 24zM447 392q0 12 9.5 22.5t23.5 10.5t23.5 -10.5t9.5 -22.5q0 -15 -9.5 -24.5t-23.5 -9.5t-23.5 9.5t-9.5 24.5zM363 450q0 15 9.5 24.5t24.5 9.5t24 -9.5t9 -24.5q0 -14 -9 -23.5t-24 -9.5t-24.5 9.5
t-9.5 23.5zM253 464q0 14 9 23.5t24 9.5q14 0 23 -9.5t9 -23.5q0 -15 -9 -24.5t-23 -9.5q-15 0 -24 9.5t-9 24.5z" />
    <glyph glyph-name="uni0BC0.ii.dotted" horiz-adv-x="602" 
d="M416 564q-35 0 -66.5 17.5t-42.5 63.5q-16 -22 -16 -52q0 -42 30 -69t76 -27h43v-62h-43q-37 0 -68 11.5t-53 32.5t-34.5 50.5t-12.5 64.5q0 30 13 57.5t36 48.5t54.5 33.5t68.5 12.5h4q29 0 53 -8t41 -21t26.5 -30t9.5 -35q0 -22 -9.5 -38.5t-25.5 -27.5t-35.5 -16.5
t-40.5 -5.5h-8zM400 684q-17 0 -31.5 -3.5t-26.5 -8.5q7 -33 28.5 -45.5t45.5 -12.5h7q20 0 35 10t15 24q0 9 -6 15.5t-15.5 11t-21 7t-22.5 2.5h-8zM147 426q0 15 9.5 24.5t24.5 9.5q13 0 22.5 -9.5t9.5 -24.5t-9.5 -24t-22.5 -9q-15 0 -24.5 9t-9.5 24zM77 329q0 15 9 24
t24 9q14 0 23 -9t9 -24t-9 -24t-23 -9q-15 0 -24 9t-9 24zM64 218q0 15 9.5 24t23.5 9q15 0 24.5 -9t9.5 -24t-9.5 -24t-24.5 -9q-14 0 -23.5 9t-9.5 24zM110 115q0 15 9.5 24t22.5 9q15 0 24.5 -9t9.5 -24t-9.5 -24t-24.5 -9q-13 0 -22.5 9t-9.5 24zM199 48q0 15 9.5 24
t24.5 9q13 0 22.5 -9t9.5 -24t-9.5 -24t-22.5 -9q-15 0 -24.5 9t-9.5 24zM312 35q0 14 9 23.5t24 9.5t24 -9.5t9 -23.5q0 -15 -9 -24.5t-24 -9.5t-24 9.5t-9 24.5zM418 81q0 15 9 24.5t24 9.5t24 -9.5t9 -24.5q0 -14 -9 -23.5t-24 -9.5t-24 9.5t-9 23.5zM482 168
q0 15 9.5 24t23.5 9t23.5 -9t9.5 -24t-9.5 -24t-23.5 -9t-23.5 9t-9.5 24zM491 286q0 15 9.5 24t23.5 9q15 0 24.5 -9t9.5 -24t-9.5 -24t-24.5 -9q-14 0 -23.5 9t-9.5 24zM447 392q0 12 9.5 22.5t23.5 10.5t23.5 -10.5t9.5 -22.5q0 -15 -9.5 -24.5t-23.5 -9.5t-23.5 9.5
t-9.5 24.5zM363 450q0 -14 9.5 -23.5t24.5 -9.5t24 9.5t9 23.5q0 15 -9 24.5t-24 9.5t-24.5 -9.5t-9.5 -24.5zM253 464q0 14 9 23.5t24 9.5q14 0 23 -9.5t9 -23.5q0 -15 -9 -24.5t-23 -9.5q-15 0 -24 9.5t-9 24.5z" />
    <glyph glyph-name="uni0BC1.u.dotted" horiz-adv-x="939" 
d="M459 497h448v-62q0 -72 -36.5 -119t-107.5 -47q-39 0 -67 14.5t-46 38.5t-26.5 53.5t-8.5 59.5h-156v62zM763 332q24 0 40 8.5t25.5 22.5t13 33t3.5 39h-168q0 -20 5.5 -39t16.5 -33t27 -22.5t37 -8.5zM147 426q0 15 9.5 24.5t24.5 9.5q13 0 22.5 -9.5t9.5 -24.5
t-9.5 -24t-22.5 -9q-15 0 -24.5 9t-9.5 24zM77 329q0 15 9 24t24 9q14 0 23 -9t9 -24t-9 -24t-23 -9q-15 0 -24 9t-9 24zM64 218q0 15 9.5 24t23.5 9q15 0 24.5 -9t9.5 -24t-9.5 -24t-24.5 -9q-14 0 -23.5 9t-9.5 24zM110 115q0 15 9.5 24t22.5 9q15 0 24.5 -9t9.5 -24
t-9.5 -24t-24.5 -9q-13 0 -22.5 9t-9.5 24zM199 48q0 15 9.5 24t24.5 9q13 0 22.5 -9t9.5 -24t-9.5 -24t-22.5 -9q-15 0 -24.5 9t-9.5 24zM312 35q0 14 9 23.5t24 9.5t24 -9.5t9 -23.5q0 -15 -9 -24.5t-24 -9.5t-24 9.5t-9 24.5zM418 81q0 15 9 24.5t24 9.5t24 -9.5t9 -24.5
q0 -14 -9 -23.5t-24 -9.5t-24 9.5t-9 23.5zM482 168q0 15 9.5 24t23.5 9t23.5 -9t9.5 -24t-9.5 -24t-23.5 -9t-23.5 9t-9.5 24zM491 286q0 15 9.5 24t23.5 9q15 0 24.5 -9t9.5 -24t-9.5 -24t-24.5 -9q-14 0 -23.5 9t-9.5 24zM447 392q0 12 9.5 22.5t23.5 10.5t23.5 -10.5
t9.5 -22.5q0 -15 -9.5 -24.5t-23.5 -9.5t-23.5 9.5t-9.5 24.5zM363 450q0 15 9.5 24.5t24.5 9.5t24 -9.5t9 -24.5q0 -14 -9 -23.5t-24 -9.5t-24.5 9.5t-9.5 23.5zM253 464q0 14 9 23.5t24 9.5q14 0 23 -9.5t9 -23.5q0 -15 -9 -24.5t-23 -9.5q-15 0 -24 9.5t-9 24.5z" />
    <glyph glyph-name="uni0BC2.uu.dotted" horiz-adv-x="1183" 
d="M699 497q5 39 24 69.5t48 51.5t65.5 32.5t76.5 11.5q48 0 89.5 -18t72.5 -50t48.5 -75.5t17.5 -94.5q0 -75 -23 -129t-62 -88.5t-92 -50.5t-113 -16q-100 0 -172.5 51t-107.5 154l56 27q30 -91 89.5 -130.5t134.5 -39.5q46 0 87.5 12t73 38.5t49.5 68.5t18 103
q0 41 -13 73.5t-35.5 55.5t-53 35t-64.5 12q-26 0 -51 -5.5t-45.5 -17.5t-35 -31.5t-20.5 -48.5h230v-62q0 -72 -36.5 -119t-107.5 -47q-39 0 -67 14.5t-46 38.5t-26.5 53.5t-8.5 59.5h-200v62h200zM847 332q24 0 40 8.5t25.5 22.5t13 33t3.5 39h-168q0 -20 5.5 -39
t16.5 -33t27 -22.5t37 -8.5zM147 426q0 15 9.5 24.5t24.5 9.5q13 0 22.5 -9.5t9.5 -24.5t-9.5 -24t-22.5 -9q-15 0 -24.5 9t-9.5 24zM77 329q0 15 9 24t24 9q14 0 23 -9t9 -24t-9 -24t-23 -9q-15 0 -24 9t-9 24zM64 218q0 15 9.5 24t23.5 9q15 0 24.5 -9t9.5 -24t-9.5 -24
t-24.5 -9q-14 0 -23.5 9t-9.5 24zM110 115q0 15 9.5 24t22.5 9q15 0 24.5 -9t9.5 -24t-9.5 -24t-24.5 -9q-13 0 -22.5 9t-9.5 24zM199 48q0 15 9.5 24t24.5 9q13 0 22.5 -9t9.5 -24t-9.5 -24t-22.5 -9q-15 0 -24.5 9t-9.5 24zM312 35q0 14 9 23.5t24 9.5t24 -9.5t9 -23.5
q0 -15 -9 -24.5t-24 -9.5t-24 9.5t-9 24.5zM418 81q0 15 9 24.5t24 9.5t24 -9.5t9 -24.5q0 -14 -9 -23.5t-24 -9.5t-24 9.5t-9 23.5zM482 168q0 15 9.5 24t23.5 9t23.5 -9t9.5 -24t-9.5 -24t-23.5 -9t-23.5 9t-9.5 24zM491 286q0 15 9.5 24t23.5 9q15 0 24.5 -9t9.5 -24
t-9.5 -24t-24.5 -9q-14 0 -23.5 9t-9.5 24zM447 392q0 12 9.5 22.5t23.5 10.5t23.5 -10.5t9.5 -22.5q0 -15 -9.5 -24.5t-23.5 -9.5t-23.5 9.5t-9.5 24.5zM363 450q0 15 9.5 24.5t24.5 9.5t24 -9.5t9 -24.5q0 -14 -9 -23.5t-24 -9.5t-24.5 9.5t-9.5 23.5zM253 464
q0 14 9 23.5t24 9.5q14 0 23 -9.5t9 -23.5q0 -15 -9 -24.5t-23 -9.5q-15 0 -24 9.5t-9 24.5z" />
    <glyph glyph-name="uni0BCD.pulli.dotted" horiz-adv-x="602" 
d="M314 746q24 0 43 -19t19 -43q0 -25 -18 -43.5t-44 -18.5q-28 0 -45 19.5t-17 42.5q0 25 18.5 43.5t43.5 18.5zM147 426q0 15 9.5 24.5t24.5 9.5q13 0 22.5 -9.5t9.5 -24.5t-9.5 -24t-22.5 -9q-15 0 -24.5 9t-9.5 24zM77 329q0 15 9 24t24 9q14 0 23 -9t9 -24t-9 -24
t-23 -9q-15 0 -24 9t-9 24zM64 218q0 15 9.5 24t23.5 9q15 0 24.5 -9t9.5 -24t-9.5 -24t-24.5 -9q-14 0 -23.5 9t-9.5 24zM110 115q0 15 9.5 24t22.5 9q15 0 24.5 -9t9.5 -24t-9.5 -24t-24.5 -9q-13 0 -22.5 9t-9.5 24zM199 48q0 15 9.5 24t24.5 9q13 0 22.5 -9t9.5 -24
t-9.5 -24t-22.5 -9q-15 0 -24.5 9t-9.5 24zM312 35q0 14 9 23.5t24 9.5t24 -9.5t9 -23.5q0 -15 -9 -24.5t-24 -9.5t-24 9.5t-9 24.5zM418 81q0 15 9 24.5t24 9.5t24 -9.5t9 -24.5q0 -14 -9 -23.5t-24 -9.5t-24 9.5t-9 23.5zM482 168q0 15 9.5 24t23.5 9t23.5 -9t9.5 -24
t-9.5 -24t-23.5 -9t-23.5 9t-9.5 24zM491 286q0 15 9.5 24t23.5 9q15 0 24.5 -9t9.5 -24t-9.5 -24t-24.5 -9q-14 0 -23.5 9t-9.5 24zM447 392q0 12 9.5 22.5t23.5 10.5t23.5 -10.5t9.5 -22.5q0 -15 -9.5 -24.5t-23.5 -9.5t-23.5 9.5t-9.5 24.5zM363 450q0 15 9.5 24.5
t24.5 9.5t24 -9.5t9 -24.5q0 -14 -9 -23.5t-24 -9.5t-24.5 9.5t-9.5 23.5zM253 464q0 14 9 23.5t24 9.5q14 0 23 -9.5t9 -23.5q0 -15 -9 -24.5t-23 -9.5q-15 0 -24 9.5t-9 24.5z" />
    </font>
</defs>
</svg>
